{"glyphs":{"0":{"ha":385,"x_min":26,"x_max":358,"o":"m 358 215 q 316 49 358 103 q 194 -6 274 -6 q 69 51 111 -6 q 26 218 26 108 l 26 704 q 69 871 26 814 q 194 928 111 928 q 316 874 274 928 q 358 707 358 819 l 358 215 m 254 708 q 193 832 254 832 q 131 707 131 832 l 131 215 q 193 90 131 90 q 254 214 254 90 l 254 708 z "},"1":{"ha":215,"x_min":18,"x_max":188,"o":"m 88 0 l 88 771 l 18 771 l 18 854 q 80 870 64 854 q 100 922 96 886 l 188 922 l 188 0 l 88 0 z "},"2":{"ha":371,"x_min":26,"x_max":350,"o":"m 26 0 l 26 214 q 38 299 26 263 q 78 372 49 336 q 113 409 93 390 q 154 447 133 428 q 194 482 175 465 q 224 513 213 499 q 244 552 239 532 q 250 600 250 572 l 250 763 q 238 814 250 797 q 190 831 225 831 q 142 812 154 831 q 129 756 129 793 l 129 638 l 31 638 l 31 747 q 36 826 31 792 q 58 883 42 860 q 106 917 75 906 q 190 928 138 928 q 269 918 238 928 q 317 888 300 908 q 342 838 335 868 q 349 765 349 807 l 349 597 q 338 522 349 550 q 306 467 328 493 q 274 434 293 451 q 235 399 254 417 q 197 363 215 381 q 165 331 178 344 q 137 283 143 304 q 131 236 131 261 l 131 92 l 350 92 l 350 0 l 26 0 z "},"3":{"ha":371,"x_min":26,"x_max":351,"o":"m 351 171 q 310 40 351 85 q 188 -6 269 -6 q 26 168 26 -6 l 26 268 l 125 268 l 125 163 q 186 90 125 90 q 249 163 249 90 l 249 378 q 233 427 249 410 q 179 444 217 444 l 136 444 l 136 531 l 183 531 q 233 548 219 531 q 246 594 246 565 l 246 765 q 231 812 246 793 q 186 831 217 831 q 141 813 157 831 q 125 764 125 794 l 125 661 l 26 661 l 26 754 q 68 881 26 835 q 186 928 110 928 q 257 915 228 928 q 305 880 286 901 q 333 831 324 858 q 342 775 342 803 l 342 604 q 269 494 342 507 l 269 489 q 327 455 303 482 q 351 371 351 428 l 351 171 z "},"4":{"ha":379,"x_min":18,"x_max":361,"o":"m 213 722 l 208 722 l 89 319 l 213 319 l 213 722 m 211 0 l 211 232 l 18 232 l 18 318 l 188 922 l 311 922 l 311 319 l 361 319 l 361 232 l 311 232 l 311 0 l 211 0 z "},"5":{"ha":378,"x_min":26,"x_max":351,"o":"m 351 171 q 310 40 351 85 q 188 -6 269 -6 q 128 2 157 -6 q 77 28 100 10 q 40 81 54 47 q 26 167 26 114 l 26 238 l 125 238 l 125 161 q 143 106 125 121 q 186 90 161 90 q 247 163 247 90 l 247 426 q 231 476 247 463 q 190 489 215 489 q 129 454 150 489 l 28 454 l 43 922 l 331 922 l 331 831 l 133 831 l 122 535 l 128 535 q 165 566 143 554 q 225 578 188 578 q 273 572 250 578 q 313 549 296 565 q 341 505 331 532 q 351 436 351 478 l 351 171 z "},"6":{"ha":378,"x_min":26,"x_max":351,"o":"m 351 168 q 192 -6 351 -6 q 67 40 108 -6 q 26 171 26 85 l 26 749 q 67 882 26 836 q 192 928 108 928 q 310 888 268 928 q 351 768 351 847 l 351 690 l 253 690 l 253 764 q 192 831 253 831 q 131 757 131 831 l 131 518 l 136 518 q 176 563 151 546 q 239 581 201 581 q 321 548 290 581 q 351 456 351 515 l 351 168 m 253 432 q 238 478 253 464 q 199 493 224 493 q 131 436 147 493 l 131 163 q 192 90 131 90 q 253 163 253 90 l 253 432 z "},"7":{"ha":313,"x_min":18,"x_max":296,"o":"m 68 0 q 83 204 69 92 q 115 430 96 317 q 158 648 135 543 q 204 828 182 753 l 18 828 l 18 922 l 296 922 l 296 838 q 249 651 272 757 q 209 431 226 544 q 181 205 192 317 q 171 0 171 93 l 68 0 z "},"8":{"ha":371,"x_min":19,"x_max":351,"o":"m 244 765 q 230 812 244 793 q 185 831 215 831 q 140 812 154 831 q 126 765 126 793 l 126 592 q 138 546 126 564 q 185 528 150 528 q 233 546 221 528 q 244 592 244 564 l 244 765 m 249 379 q 235 426 249 410 q 185 442 221 442 q 136 426 150 442 q 122 379 122 410 l 122 163 q 185 90 122 90 q 249 163 249 90 l 249 379 m 351 171 q 185 -6 351 -6 q 19 171 19 -6 l 19 368 q 44 452 19 425 q 101 486 68 479 l 101 492 q 29 603 29 504 l 29 775 q 38 831 29 804 q 66 880 47 858 q 114 915 85 901 q 185 928 143 928 q 256 915 226 928 q 304 880 285 901 q 333 831 324 858 q 342 775 342 804 l 342 603 q 269 492 342 504 l 269 486 q 327 452 303 479 q 351 368 351 425 l 351 171 z "},"9":{"ha":378,"x_min":26,"x_max":351,"o":"m 247 429 l 242 429 q 201 384 226 401 q 139 367 176 367 q 57 400 88 367 q 26 492 26 433 l 26 754 q 188 928 26 928 q 351 751 351 928 l 351 174 q 310 40 351 86 q 186 -6 269 -6 q 69 35 110 -6 q 29 154 29 75 l 29 246 l 126 246 l 126 158 q 186 92 126 92 q 247 165 247 92 l 247 429 m 247 760 q 186 832 247 832 q 125 760 125 832 l 125 515 q 179 454 125 454 q 247 511 231 454 l 247 760 z "},"\u0017":{"ha":124,"x_min":0,"x_max":0,"o":""}," ":{"ha":124,"x_min":0,"x_max":0,"o":""},"!":{"ha":182,"x_min":36,"x_max":146,"o":"m 39 0 l 39 143 l 140 143 l 140 0 l 39 0 m 56 247 q 42 388 47 317 q 36 536 36 460 l 36 922 l 146 922 l 146 571 q 141 404 146 485 q 126 247 136 324 l 56 247 z "},"\"":{"ha":261,"x_min":26,"x_max":235,"o":"m 26 625 m 26 625 l 26 933 l 107 933 l 107 625 l 26 625 m 154 625 l 154 933 l 235 933 l 235 625 l 154 625 z "},"#":{"ha":410,"x_min":29,"x_max":381,"o":"m 67 0 l 86 292 l 29 292 l 36 363 l 90 363 l 104 568 l 46 568 l 51 639 l 108 639 l 128 922 l 200 922 l 182 639 l 250 639 l 269 922 l 342 922 l 324 639 l 381 639 l 375 568 l 318 568 l 306 363 l 365 363 l 358 292 l 300 292 l 282 0 l 208 0 l 228 292 l 158 292 l 140 0 l 67 0 m 164 363 l 232 363 l 246 568 l 176 568 l 164 363 z "},"$":{"ha":400,"x_min":26,"x_max":372,"o":"m 158 -83 l 158 10 q 57 63 88 19 q 26 188 26 106 l 26 276 l 125 276 l 125 174 q 194 100 125 100 q 249 122 235 100 q 263 178 263 143 l 263 311 q 229 376 263 346 q 168 421 206 397 q 94 479 131 444 q 49 535 69 503 q 29 614 29 568 l 29 754 q 60 862 29 821 q 158 911 90 903 l 158 1014 l 238 1014 l 238 910 q 333 850 307 899 q 360 728 360 801 l 360 650 l 263 650 l 263 750 q 247 801 263 782 q 197 821 231 821 q 149 803 165 821 q 133 760 133 786 l 133 633 q 140 589 133 606 q 175 550 147 572 q 252 497 214 518 q 321 447 290 476 q 358 395 344 425 q 372 317 372 365 l 372 182 q 340 62 372 104 q 238 10 308 19 l 238 -83 l 158 -83 z "},"%":{"ha":415,"x_min":14,"x_max":401,"o":"m 14 0 m 54 -21 l 304 946 l 361 946 l 110 -21 l 54 -21 m 179 593 q 158 509 179 536 q 97 482 136 482 q 35 511 57 482 q 14 594 14 540 l 14 813 q 35 896 14 867 q 97 925 57 925 q 158 898 136 925 q 179 814 179 871 l 179 593 m 124 814 q 96 872 124 872 q 68 814 68 872 l 68 593 q 96 535 68 535 q 124 593 124 535 l 124 814 m 401 107 q 380 23 401 50 q 319 -4 358 -4 q 258 25 279 -4 q 236 108 236 54 l 236 326 q 258 410 236 381 q 319 439 279 439 q 380 412 358 439 q 401 328 401 385 l 401 107 m 346 328 q 318 386 346 386 q 290 328 290 386 l 290 107 q 318 49 290 49 q 346 107 346 49 l 346 328 z "},"&":{"ha":375,"x_min":26,"x_max":351,"o":"m 26 371 q 51 456 26 429 q 110 489 76 482 l 110 494 q 36 604 36 507 l 36 769 q 45 826 36 799 q 73 874 54 853 q 122 909 92 896 q 192 922 151 922 l 233 922 l 233 825 l 193 825 q 148 806 163 825 q 133 758 133 786 l 133 594 q 147 545 133 560 q 196 531 160 531 l 226 531 l 226 444 l 192 444 q 144 427 157 444 q 131 378 131 410 l 131 163 q 197 90 131 90 q 249 121 238 90 q 261 200 261 151 l 261 531 l 351 531 l 351 168 q 192 -6 351 -6 q 68 40 110 -6 q 26 171 26 85 l 26 371 z "},"'":{"ha":133,"x_min":26,"x_max":107,"o":"m 26 625 l 26 933 l 107 933 l 107 625 l 26 625 z "},"(":{"ha":239,"x_min":46,"x_max":221,"o":"m 149 -199 q 105 -66 124 -139 q 73 86 86 7 q 53 249 60 165 q 46 414 46 332 q 52 574 46 493 q 72 733 58 656 q 104 881 85 810 q 149 1011 124 951 l 221 1011 q 157 723 179 878 q 135 413 135 568 q 156 100 135 258 q 221 -199 178 -58 l 149 -199 z "},")":{"ha":239,"x_min":18,"x_max":192,"o":"m 18 -199 q 81 100 60 -58 q 103 413 103 258 q 81 723 103 568 q 18 1011 60 878 l 90 1011 q 134 881 115 951 q 166 733 153 810 q 185 575 179 656 q 192 415 192 494 q 185 249 192 333 q 165 86 178 165 q 134 -66 153 7 q 90 -199 115 -139 l 18 -199 z "},"*":{"ha":344,"x_min":14,"x_max":329,"o":"m 243 625 l 171 721 l 100 625 l 53 657 l 125 757 l 14 793 l 31 846 l 140 811 l 140 933 l 201 933 l 201 811 l 311 846 l 329 793 l 218 757 l 289 658 l 243 625 z "},"+":{"ha":357,"x_min":26,"x_max":331,"o":"m 139 311 l 139 425 l 26 425 l 26 504 l 139 504 l 139 615 l 218 615 l 218 504 l 331 504 l 331 425 l 218 425 l 218 311 l 139 311 z "},",":{"ha":156,"x_min":26,"x_max":129,"o":"m 26 -146 q 60 -111 50 -132 q 71 -56 71 -90 l 71 0 l 26 0 l 26 143 l 129 143 l 129 -42 q 103 -153 129 -114 q 26 -206 76 -193 l 26 -146 z "},"-":{"ha":181,"x_min":22,"x_max":160,"o":"m 22 378 l 22 465 l 160 465 l 160 378 l 22 378 z "},".":{"ha":156,"x_min":26,"x_max":129,"o":"m 26 0 l 26 143 l 129 143 l 129 0 l 26 0 z "},"/":{"ha":224,"x_min":4,"x_max":219,"o":"m 4 0 l 136 922 l 219 922 l 86 0 l 4 0 z "},":":{"ha":156,"x_min":26,"x_max":129,"o":"m 26 33 l 26 176 l 129 176 l 129 33 l 26 33 m 26 501 l 26 644 l 129 644 l 129 501 l 26 501 z "},";":{"ha":156,"x_min":26,"x_max":129,"o":"m 26 501 l 26 644 l 129 644 l 129 501 l 26 501 m 26 -112 q 60 -78 50 -99 q 71 -22 71 -57 l 71 33 l 26 33 l 26 176 l 129 176 l 129 -8 q 103 -120 129 -81 q 26 -172 76 -160 l 26 -112 z "},"<":{"ha":357,"x_min":26,"x_max":331,"o":"m 26 419 l 26 504 l 331 651 l 331 563 l 114 464 l 114 458 l 331 361 l 331 274 l 26 419 z "},"=":{"ha":357,"x_min":26,"x_max":331,"o":"m 26 529 l 26 608 l 331 608 l 331 529 l 26 529 m 26 315 l 26 394 l 331 394 l 331 315 l 26 315 z "},">":{"ha":357,"x_min":26,"x_max":331,"o":"m 26 274 l 26 361 l 243 458 l 243 464 l 26 563 l 26 651 l 331 504 l 331 419 l 26 274 z "},"?":{"ha":361,"x_min":18,"x_max":338,"o":"m 129 0 l 129 138 l 231 138 l 231 0 l 129 0 m 132 242 l 132 332 q 138 403 132 378 q 153 447 143 429 q 192 509 168 479 q 226 567 215 539 q 235 596 232 579 q 238 644 238 613 l 238 758 q 226 814 238 797 q 179 831 215 831 q 128 810 139 831 q 117 753 117 790 l 117 654 l 18 654 l 18 735 q 23 817 18 781 q 44 878 28 853 q 93 915 61 903 q 181 928 125 928 q 261 917 231 928 q 309 885 292 907 q 332 828 326 863 q 338 747 338 794 l 338 638 q 333 577 338 599 q 321 539 329 556 q 280 471 301 499 q 243 410 258 443 q 232 371 235 390 q 229 317 229 351 l 229 242 l 132 242 z "},"@":{"ha":488,"x_min":26,"x_max":461,"o":"m 404 -87 q 256 -117 354 -117 q 135 -99 181 -117 q 66 -49 90 -82 q 34 34 42 -15 q 26 149 26 83 l 26 599 q 34 714 26 664 q 65 798 42 764 q 133 849 89 832 q 247 867 176 867 q 358 851 317 867 q 423 802 400 835 q 453 720 446 769 q 461 604 461 671 l 461 242 q 435 152 461 182 q 361 122 410 122 q 318 132 333 122 q 296 158 303 142 l 290 158 q 260 130 276 138 q 225 122 244 122 q 165 153 181 122 q 150 243 150 185 l 150 504 q 152 562 150 536 q 162 605 154 588 q 184 632 169 622 q 222 642 199 642 q 286 604 267 642 l 290 604 l 294 636 l 340 636 l 340 207 q 367 179 340 179 q 397 224 397 179 l 397 603 q 392 697 397 658 q 370 759 386 736 q 324 792 354 782 q 247 803 294 803 q 167 792 197 803 q 120 757 136 781 q 99 694 104 733 q 93 599 93 654 l 93 149 q 99 58 93 94 q 122 -3 104 21 q 170 -37 139 -26 q 254 -47 201 -47 q 383 -26 326 -47 l 404 -87 m 213 229 q 221 194 213 204 q 246 183 229 183 q 274 196 264 183 q 285 242 285 208 l 285 532 q 246 582 285 582 q 213 544 213 582 l 213 229 z "},"A":{"ha":388,"x_min":10,"x_max":376,"o":"m 272 0 l 249 225 l 135 225 l 113 0 l 10 0 l 118 922 l 267 922 l 376 0 l 272 0 m 144 315 l 239 315 l 194 753 l 189 753 l 144 315 z "},"B":{"ha":379,"x_min":26,"x_max":360,"o":"m 26 0 l 26 922 l 217 922 q 319 885 290 922 q 349 782 349 849 l 349 603 q 281 492 349 506 l 281 486 q 338 454 317 479 q 360 371 360 429 l 360 119 q 331 30 360 60 q 231 0 301 0 l 26 0 m 256 378 q 196 440 256 440 l 129 440 l 129 90 l 197 90 q 256 153 256 90 l 256 378 m 251 764 q 240 815 251 799 q 196 832 228 832 l 129 832 l 129 526 l 197 526 q 237 541 222 526 q 251 592 251 556 l 251 764 z "},"C":{"ha":378,"x_min":26,"x_max":351,"o":"m 253 376 l 351 376 l 351 168 q 192 -6 351 -6 q 67 40 108 -6 q 26 171 26 85 l 26 753 q 189 928 26 928 q 310 886 268 928 q 351 753 351 844 l 351 592 l 253 592 l 253 757 q 192 831 253 831 q 131 757 131 831 l 131 164 q 190 90 131 90 q 253 163 253 90 l 253 376 z "},"D":{"ha":385,"x_min":26,"x_max":358,"o":"m 26 0 l 26 922 l 199 922 q 358 761 358 922 l 358 171 q 318 42 358 83 q 199 0 278 0 l 26 0 m 192 94 q 240 120 228 94 q 253 192 253 146 l 253 733 q 239 803 253 778 q 185 828 225 828 l 129 828 l 129 94 l 192 94 z "},"E":{"ha":303,"x_min":26,"x_max":288,"o":"m 26 0 l 26 922 l 279 922 l 279 828 l 129 828 l 129 531 l 265 531 l 265 436 l 129 436 l 129 94 l 288 94 l 288 0 l 26 0 z "},"F":{"ha":303,"x_min":26,"x_max":285,"o":"m 26 0 l 26 922 l 285 922 l 285 828 l 132 828 l 132 518 l 263 518 l 263 425 l 132 425 l 132 0 l 26 0 z "},"G":{"ha":378,"x_min":26,"x_max":351,"o":"m 283 0 l 278 49 l 274 49 q 239 10 261 25 q 174 -6 217 -6 q 65 40 103 -6 q 26 171 26 85 l 26 749 q 67 881 26 835 q 188 928 108 928 q 310 881 268 928 q 351 747 351 833 l 351 638 l 253 638 l 253 757 q 190 831 253 831 q 131 757 131 831 l 131 163 q 190 90 131 90 q 253 154 243 90 l 253 386 l 183 386 l 183 479 l 351 479 l 351 0 l 283 0 z "},"H":{"ha":389,"x_min":26,"x_max":363,"o":"m 257 0 l 257 443 l 132 443 l 132 0 l 26 0 l 26 922 l 132 922 l 132 538 l 257 538 l 257 922 l 363 922 l 363 0 l 257 0 z "},"I":{"ha":158,"x_min":26,"x_max":132,"o":"m 26 0 l 26 922 l 132 922 l 132 0 l 26 0 z "},"J":{"ha":369,"x_min":18,"x_max":343,"o":"m 240 922 l 343 922 l 343 171 q 302 40 343 85 q 179 -6 261 -6 q 18 168 18 -6 l 18 338 l 117 338 l 117 163 q 178 90 117 90 q 240 163 240 90 l 240 922 z "},"K":{"ha":383,"x_min":26,"x_max":374,"o":"m 267 0 l 181 394 l 176 394 l 133 276 l 133 0 l 26 0 l 26 922 l 133 922 l 133 536 l 139 536 q 153 584 144 557 q 176 654 161 611 q 213 762 190 697 q 268 922 235 826 l 374 922 l 253 561 l 372 0 l 267 0 z "},"L":{"ha":311,"x_min":26,"x_max":293,"o":"m 26 0 l 26 922 l 132 922 l 132 96 l 293 96 l 293 0 l 26 0 z "},"M":{"ha":547,"x_min":26,"x_max":519,"o":"m 426 0 l 426 475 q 426 525 426 492 q 427 595 426 558 q 428 667 428 632 q 431 722 429 701 l 425 722 l 321 0 l 225 0 l 121 722 l 115 722 q 117 681 117 701 q 119 632 118 660 q 119 567 119 604 q 119 475 119 529 l 119 0 l 26 0 l 26 922 l 188 922 l 272 242 l 278 242 l 364 922 l 519 922 l 519 0 l 426 0 z "},"N":{"ha":408,"x_min":26,"x_max":382,"o":"m 254 0 l 118 722 l 113 722 q 115 676 114 700 q 116 621 115 651 q 117 551 117 590 q 117 461 117 513 l 117 0 l 26 0 l 26 922 l 168 922 l 289 232 l 294 232 q 292 290 293 260 q 291 358 292 321 q 290 440 290 394 q 290 543 290 485 l 290 922 l 382 922 l 382 0 l 254 0 z "},"O":{"ha":376,"x_min":22,"x_max":354,"o":"m 354 168 q 311 38 354 81 q 189 -6 268 -6 q 65 40 107 -6 q 22 171 22 85 l 22 749 q 65 881 22 835 q 188 928 108 928 q 310 881 267 928 q 354 747 354 833 l 354 168 m 250 757 q 188 831 250 831 q 126 757 126 831 l 126 163 q 189 90 126 90 q 250 163 250 90 l 250 757 z "},"P":{"ha":372,"x_min":26,"x_max":353,"o":"m 132 364 l 132 0 l 26 0 l 26 922 l 221 922 q 324 885 294 922 q 353 782 353 849 l 353 504 q 324 401 353 438 q 221 364 294 364 l 132 364 m 132 454 l 200 454 q 242 471 229 454 q 254 519 254 488 l 254 769 q 242 813 254 799 q 200 828 229 828 l 132 828 l 132 454 z "},"Q":{"ha":375,"x_min":22,"x_max":415,"o":"m 354 172 q 232 3 354 26 l 232 -178 q 279 -231 232 -231 q 322 -179 322 -231 l 322 -35 l 415 -35 l 415 -174 q 385 -283 415 -243 q 282 -324 354 -324 q 175 -282 207 -324 q 143 -172 143 -240 l 143 4 q 22 174 22 28 l 22 746 q 63 881 22 833 q 188 928 104 928 q 313 881 271 928 q 354 747 354 835 l 354 172 m 250 754 q 235 810 250 790 q 188 831 219 831 q 141 810 156 831 q 126 756 126 790 l 126 169 q 188 96 126 96 q 250 168 250 96 l 250 754 z "},"R":{"ha":378,"x_min":26,"x_max":356,"o":"m 26 0 l 26 922 l 221 922 q 324 885 294 922 q 353 782 353 849 l 353 571 q 283 460 353 476 l 283 454 q 337 422 318 447 q 356 343 356 396 l 356 0 l 253 0 l 253 351 q 242 396 253 382 q 200 410 231 410 l 129 410 l 129 0 l 26 0 m 253 769 q 197 828 253 828 l 129 828 l 129 496 l 199 496 q 238 510 224 496 q 253 561 253 525 l 253 769 z "},"S":{"ha":392,"x_min":22,"x_max":368,"o":"m 258 640 l 258 758 q 242 811 258 792 q 193 831 226 831 q 145 813 161 831 q 129 768 129 796 l 129 669 q 137 610 129 629 q 167 571 144 592 q 206 536 185 553 q 248 504 226 519 q 289 473 269 489 q 322 442 308 457 q 357 385 346 417 q 368 301 368 354 l 368 167 q 328 38 368 82 q 196 -6 288 -6 q 63 40 104 -6 q 22 174 22 85 l 22 276 l 121 276 l 121 165 q 192 90 121 90 q 258 158 258 90 l 258 275 q 249 346 258 324 q 215 392 240 368 q 140 456 178 428 q 72 522 101 485 q 26 675 26 582 l 26 769 q 66 884 26 840 q 192 928 106 928 q 269 915 238 928 q 320 877 301 901 q 347 819 339 853 q 356 747 356 786 l 356 640 l 258 640 z "},"T":{"ha":365,"x_min":18,"x_max":347,"o":"m 129 0 l 129 828 l 18 828 l 18 922 l 347 922 l 347 828 l 233 828 l 233 0 l 129 0 z "},"U":{"ha":383,"x_min":26,"x_max":356,"o":"m 253 922 l 356 922 l 356 171 q 315 40 356 85 q 192 -6 274 -6 q 69 38 113 -6 q 26 168 26 81 l 26 922 l 129 922 l 129 163 q 190 90 129 90 q 253 163 253 90 l 253 922 z "},"V":{"ha":388,"x_min":10,"x_max":376,"o":"m 119 0 l 10 922 l 114 922 l 192 186 l 197 186 l 275 922 l 376 922 l 268 0 l 119 0 z "},"W":{"ha":569,"x_min":10,"x_max":558,"o":"m 86 0 l 10 922 l 111 922 l 160 197 l 165 197 l 225 922 l 344 922 l 407 197 l 413 197 l 460 922 l 558 922 l 482 0 l 344 0 l 288 725 l 282 725 l 225 0 l 86 0 z "},"X":{"ha":406,"x_min":10,"x_max":394,"o":"m 390 922 l 269 481 l 394 0 l 288 0 l 204 356 l 199 356 l 115 0 l 10 0 l 135 467 l 14 922 l 119 922 l 201 585 l 207 585 l 288 922 l 390 922 z "},"Y":{"ha":383,"x_min":8,"x_max":375,"o":"m 142 0 l 142 385 l 8 922 l 113 922 l 192 567 l 197 567 l 274 922 l 375 922 l 246 383 l 246 0 l 142 0 z "},"Z":{"ha":350,"x_min":18,"x_max":333,"o":"m 18 0 l 18 96 l 224 828 l 19 828 l 19 922 l 328 922 l 328 828 l 125 94 l 333 94 l 333 0 l 18 0 z "},"[":{"ha":239,"x_min":49,"x_max":221,"o":"m 49 -181 l 49 999 l 221 999 l 221 914 l 128 914 l 128 -97 l 221 -97 l 221 -181 l 49 -181 z "},"\\":{"ha":224,"x_min":4,"x_max":219,"o":"m 136 0 l 4 922 l 88 922 l 219 0 l 136 0 z "},"]":{"ha":239,"x_min":18,"x_max":189,"o":"m 18 -181 l 18 -97 l 111 -97 l 111 914 l 18 914 l 18 999 l 189 999 l 189 -181 l 18 -181 z "},"^":{"ha":357,"x_min":10,"x_max":349,"o":"m 135 922 l 225 922 l 349 593 l 260 593 l 181 826 l 175 826 l 99 593 l 10 593 l 135 922 z "},"_":{"ha":258,"x_min":0,"x_max":261,"o":"m 0 -136 l 0 -69 l 261 -69 l 261 -136 l 0 -136 z "},"`":{"ha":265,"x_min":29,"x_max":236,"o":"m 29 865 l 82 926 l 236 742 l 197 701 l 29 865 z "},"a":{"ha":369,"x_min":22,"x_max":342,"o":"m 243 358 q 216 344 228 347 q 179 332 204 340 q 131 306 143 321 q 119 260 119 290 l 119 132 q 174 82 119 82 q 217 94 201 82 q 243 132 232 107 l 243 358 m 250 0 l 247 58 l 242 58 q 202 14 226 33 q 129 -6 178 -6 q 47 25 71 -6 q 22 108 22 56 l 22 242 q 29 300 22 276 q 51 341 36 324 q 92 370 67 358 q 153 393 117 382 q 217 415 193 404 q 242 450 242 426 l 242 544 q 185 590 242 590 q 124 540 124 590 l 124 456 l 31 456 l 31 551 q 72 646 31 615 q 192 676 114 676 q 342 558 342 676 l 342 0 l 250 0 z "},"b":{"ha":376,"x_min":29,"x_max":347,"o":"m 247 522 q 190 590 247 590 q 149 570 163 590 q 126 507 135 550 l 126 157 q 149 100 133 118 q 192 82 164 82 q 247 149 247 82 l 247 522 m 29 0 l 29 933 l 128 933 l 128 614 l 133 614 q 174 661 150 646 q 233 676 197 676 q 322 635 297 676 q 347 518 347 594 l 347 144 q 319 34 347 74 q 232 -6 290 -6 q 126 68 160 -6 l 121 68 l 118 0 l 29 0 z "},"c":{"ha":369,"x_min":29,"x_max":340,"o":"m 244 247 l 340 247 l 340 151 q 303 33 340 72 q 185 -6 267 -6 q 29 151 29 -6 l 29 519 q 186 676 29 676 q 303 638 267 676 q 340 519 340 599 l 340 426 l 244 426 l 244 519 q 186 586 244 586 q 126 519 126 586 l 126 151 q 186 85 126 85 q 244 151 244 85 l 244 247 z "},"d":{"ha":376,"x_min":29,"x_max":347,"o":"m 131 149 q 145 97 131 113 q 188 82 160 82 q 229 99 215 82 q 251 157 243 117 l 251 514 q 231 573 244 556 q 189 590 218 590 q 146 574 161 590 q 131 522 131 558 l 131 149 m 258 0 l 256 68 l 250 68 q 146 -6 219 -6 q 60 28 90 -6 q 29 125 29 63 l 29 547 q 60 643 29 610 q 146 676 92 676 q 204 662 181 676 q 243 614 228 647 l 249 614 l 249 933 l 347 933 l 347 0 l 258 0 z "},"e":{"ha":374,"x_min":29,"x_max":344,"o":"m 344 151 q 185 -6 344 -6 q 29 151 29 -6 l 29 519 q 186 676 29 676 q 344 519 344 676 l 344 311 l 126 311 l 126 149 q 186 82 126 82 q 246 149 246 82 l 246 231 l 344 231 l 344 151 m 246 521 q 186 589 246 589 q 126 521 126 589 l 126 383 l 246 383 l 246 521 z "},"f":{"ha":290,"x_min":15,"x_max":275,"o":"m 275 581 l 178 581 l 178 0 l 78 0 l 78 581 l 15 581 l 15 671 l 78 671 l 78 783 q 236 933 78 933 l 272 933 l 272 843 l 236 843 q 178 783 178 843 l 178 671 l 275 671 l 275 581 z "},"g":{"ha":376,"x_min":29,"x_max":347,"o":"m 347 -167 q 188 -324 347 -324 q 69 -285 107 -324 q 32 -167 32 -246 l 32 -42 l 128 -42 l 128 -167 q 188 -233 128 -233 q 249 -167 249 -233 l 249 64 l 243 64 q 142 0 214 0 q 56 38 82 0 q 29 151 29 75 l 29 544 q 58 640 29 604 q 146 676 88 676 q 209 658 185 676 q 250 603 233 639 l 256 603 l 258 671 l 347 671 l 347 -167 m 131 174 q 143 111 131 131 q 186 92 156 92 q 233 119 221 92 q 251 186 244 146 l 251 493 q 233 562 244 533 q 188 590 222 590 q 131 522 131 590 l 131 174 z "},"h":{"ha":379,"x_min":29,"x_max":351,"o":"m 250 0 l 250 526 q 194 589 250 589 q 149 570 165 589 q 129 507 132 551 l 129 0 l 29 0 l 29 933 l 129 933 l 129 610 l 135 610 q 239 676 163 676 q 326 638 301 676 q 351 540 351 599 l 351 0 l 250 0 z "},"i":{"ha":158,"x_min":29,"x_max":129,"o":"m 29 0 l 29 671 l 129 671 l 129 0 l 29 0 m 29 743 l 29 872 l 129 872 l 129 743 l 29 743 z "},"j":{"ha":176,"x_min":-169,"x_max":147,"o":"m -169 -37 l -74 -37 l -74 -167 q -14 -233 -74 -233 q 47 -167 47 -233 l 47 671 l 147 671 l 147 -167 q -12 -324 147 -324 q -132 -285 -94 -324 q -169 -167 -169 -246 l -169 -37 m 47 743 l 47 872 l 147 872 l 147 743 l 47 743 z "},"k":{"ha":375,"x_min":29,"x_max":367,"o":"m 260 0 l 176 278 l 171 278 l 129 189 l 129 0 l 29 0 l 29 933 l 129 933 l 129 388 l 135 388 q 144 412 139 397 q 163 456 150 426 q 198 537 175 486 q 258 671 221 588 l 367 671 l 249 394 l 365 0 l 260 0 z "},"l":{"ha":158,"x_min":29,"x_max":129,"o":"m 29 0 l 29 933 l 129 933 l 129 0 l 29 0 z "},"m":{"ha":589,"x_min":29,"x_max":560,"o":"m 458 0 l 458 526 q 404 590 458 590 q 365 575 378 590 q 342 526 351 560 l 342 0 l 246 0 l 246 526 q 192 590 246 590 q 152 574 165 590 q 129 526 139 558 l 129 0 l 29 0 l 29 671 l 122 671 l 125 603 l 131 603 q 169 660 146 643 q 229 676 193 676 q 296 656 268 676 q 335 596 324 636 q 383 659 354 642 q 444 676 411 676 q 527 642 494 676 q 560 546 560 608 l 560 0 l 458 0 z "},"n":{"ha":379,"x_min":29,"x_max":351,"o":"m 250 0 l 250 526 q 194 590 250 590 q 153 575 167 590 q 129 526 139 560 l 129 0 l 29 0 l 29 671 l 122 671 l 125 603 l 131 603 q 236 676 163 676 q 320 644 289 676 q 351 546 351 611 l 351 0 l 250 0 z "},"o":{"ha":372,"x_min":29,"x_max":343,"o":"m 343 151 q 305 32 343 69 q 186 -6 267 -6 q 67 32 106 -6 q 29 151 29 69 l 29 519 q 67 639 29 601 q 186 676 106 676 q 305 639 267 676 q 343 519 343 601 l 343 151 m 246 519 q 186 586 246 586 q 126 519 126 586 l 126 151 q 186 85 126 85 q 246 151 246 85 l 246 519 z "},"p":{"ha":376,"x_min":29,"x_max":347,"o":"m 247 522 q 189 590 247 590 q 148 575 161 590 q 126 526 135 560 l 126 144 q 148 97 135 111 q 189 82 161 82 q 232 97 217 82 q 247 149 247 113 l 247 522 m 29 -324 l 29 671 l 118 671 l 121 603 l 126 603 q 167 659 143 642 q 231 676 192 676 q 317 643 286 676 q 347 547 347 610 l 347 125 q 317 28 347 63 q 232 -6 286 -6 q 133 58 161 -6 l 128 58 l 128 -324 l 29 -324 z "},"q":{"ha":376,"x_min":29,"x_max":550,"o":"m 550 -167 q 515 -285 550 -246 q 401 -324 479 -324 q 249 -167 249 -324 l 249 58 l 243 58 q 143 -6 215 -6 q 54 35 79 -6 q 29 150 29 75 l 29 547 q 60 643 29 610 q 146 676 90 676 q 209 659 185 676 q 250 601 233 642 l 256 601 l 258 671 l 347 671 l 347 -143 q 358 -212 347 -192 q 400 -233 369 -233 q 454 -167 454 -233 l 454 -37 l 550 -37 l 550 -167 m 131 149 q 145 97 131 113 q 188 82 160 82 q 228 98 215 82 q 251 150 242 114 l 251 521 q 228 574 242 558 q 188 590 215 590 q 131 522 131 590 l 131 149 z "},"r":{"ha":288,"x_min":29,"x_max":271,"o":"m 29 0 l 29 671 l 122 671 l 125 593 l 131 593 q 170 655 146 633 q 232 676 194 676 q 271 668 254 676 l 271 576 q 228 586 254 586 q 162 563 185 586 q 129 476 139 539 l 129 0 l 29 0 z "},"s":{"ha":368,"x_min":25,"x_max":343,"o":"m 243 465 l 243 543 q 185 594 243 594 q 125 549 125 594 l 125 474 q 131 438 125 450 q 161 411 138 426 q 226 374 193 389 q 290 336 260 358 q 330 290 317 317 q 343 215 343 264 l 343 128 q 306 27 343 60 q 188 -6 268 -6 q 63 30 101 -6 q 25 133 25 65 l 25 215 l 119 215 l 119 131 q 134 90 119 103 q 183 76 149 76 q 243 126 243 76 l 243 213 q 235 249 243 235 q 200 282 228 263 q 174 297 190 288 q 140 318 158 307 q 103 341 121 329 q 72 364 85 353 q 40 410 49 385 q 31 474 31 436 l 31 557 q 69 644 31 613 q 182 676 107 676 q 299 640 260 676 q 338 539 338 604 l 338 465 l 243 465 z "},"t":{"ha":357,"x_min":29,"x_max":328,"o":"m 242 381 l 328 381 l 328 151 q 297 33 328 71 q 186 -6 267 -6 q 67 33 104 -6 q 29 151 29 71 l 29 856 l 128 856 l 128 671 l 328 671 l 328 581 l 128 581 l 128 151 q 188 85 128 85 q 229 101 217 85 q 242 151 242 117 l 242 381 z "},"u":{"ha":378,"x_min":29,"x_max":349,"o":"m 131 671 l 131 154 q 143 98 131 114 q 186 82 156 82 q 229 99 217 82 q 249 157 242 115 l 249 671 l 349 671 l 349 0 l 256 0 l 253 68 l 247 68 q 206 11 229 28 q 143 -6 182 -6 q 52 38 75 -6 q 29 154 29 81 l 29 671 l 131 671 z "},"v":{"ha":354,"x_min":8,"x_max":346,"o":"m 111 0 l 8 671 l 110 671 l 178 149 l 183 149 l 250 671 l 346 671 l 246 0 l 111 0 z "},"w":{"ha":521,"x_min":8,"x_max":511,"o":"m 76 0 l 8 671 l 103 671 l 147 165 l 153 165 l 204 671 l 315 671 l 369 165 l 375 165 l 418 671 l 511 671 l 443 0 l 315 0 l 263 514 l 257 514 l 204 0 l 76 0 z "},"x":{"ha":371,"x_min":8,"x_max":364,"o":"m 360 671 l 250 350 l 364 0 l 258 0 l 188 243 l 182 243 l 111 0 l 8 0 l 122 342 l 13 671 l 115 671 l 186 440 l 192 440 l 258 671 l 360 671 z "},"y":{"ha":376,"x_min":29,"x_max":347,"o":"m 131 160 q 145 108 131 124 q 188 92 160 92 q 229 108 215 92 q 251 164 243 125 l 251 671 l 347 671 l 347 -167 q 188 -324 347 -324 q 69 -285 107 -324 q 32 -167 32 -246 l 32 -42 l 128 -42 l 128 -167 q 188 -233 128 -233 q 249 -167 249 -233 l 249 64 l 243 64 q 203 14 228 28 q 142 0 178 0 q 54 36 79 0 q 29 139 29 72 l 29 671 l 131 671 l 131 160 z "},"z":{"ha":319,"x_min":19,"x_max":300,"o":"m 19 0 l 19 94 l 194 581 l 22 581 l 22 671 l 296 671 l 296 581 l 122 92 l 300 92 l 300 0 l 19 0 z "},"{":{"ha":239,"x_min":31,"x_max":221,"o":"m 171 -182 q 82 -51 82 -182 l 82 308 q 31 369 82 369 l 31 451 q 82 511 82 451 l 82 869 q 171 1000 82 1000 l 221 1000 l 221 921 l 201 921 q 161 869 161 921 l 161 511 q 108 413 161 433 l 108 407 q 161 308 161 386 l 161 -51 q 201 -103 161 -103 l 221 -103 l 221 -182 l 171 -182 z "},"|":{"ha":201,"x_min":61,"x_max":139,"o":"m 61 -174 l 61 1022 l 139 1022 l 139 -174 l 61 -174 z "},"}":{"ha":239,"x_min":18,"x_max":208,"o":"m 18 -182 l 18 -103 l 36 -103 q 76 -51 76 -103 l 76 308 q 129 407 76 388 l 129 413 q 76 511 76 433 l 76 869 q 36 921 76 921 l 18 921 l 18 1000 l 67 1000 q 156 869 156 1000 l 156 511 q 208 451 156 451 l 208 369 q 156 308 156 369 l 156 -51 q 67 -182 156 -182 l 18 -182 z "},"~":{"ha":357,"x_min":26,"x_max":331,"o":"m 246 411 q 208 415 225 411 q 174 425 190 419 q 141 435 157 431 q 108 439 125 439 q 26 401 64 439 l 26 485 q 60 508 40 499 q 110 518 79 518 q 148 513 131 518 q 182 503 165 508 q 215 494 199 499 q 249 489 232 489 q 331 526 294 489 l 331 443 q 246 411 296 411 z "}," ":{"ha":124,"x_min":0,"x_max":0,"o":""},"¡":{"ha":182,"x_min":36,"x_max":146,"o":"m 143 683 l 143 540 l 40 540 l 40 683 l 143 683 m 126 436 q 140 295 135 367 q 146 147 146 224 l 146 -239 l 36 -239 l 36 113 q 40 279 36 199 q 56 436 44 360 l 126 436 z "},"¢":{"ha":365,"x_min":26,"x_max":338,"o":"m 144 -6 l 144 122 q 26 276 26 139 l 26 663 q 144 817 26 799 l 144 931 l 224 931 l 224 817 q 310 769 283 807 q 338 663 338 731 l 338 567 l 243 567 l 243 669 q 183 736 243 736 q 124 669 124 736 l 124 269 q 183 203 124 203 q 243 269 243 203 l 243 375 l 338 375 l 338 276 q 310 170 338 208 q 224 122 283 132 l 224 -6 l 144 -6 z "},"£":{"ha":376,"x_min":26,"x_max":350,"o":"m 350 347 l 131 347 l 131 96 l 350 96 l 350 0 l 26 0 l 26 751 q 68 883 26 838 q 192 928 110 928 q 350 754 350 928 l 350 563 l 253 563 l 253 760 q 192 832 253 832 q 131 760 131 832 l 131 442 l 350 442 l 350 347 z "},"¤":{"ha":444,"x_min":29,"x_max":417,"o":"m 314 318 q 271 298 294 306 q 224 290 247 290 q 175 298 199 290 q 132 318 151 306 l 79 261 l 29 313 l 86 365 q 57 458 57 406 q 65 506 57 482 q 85 550 72 531 l 31 603 l 81 651 l 131 597 q 174 618 150 610 q 222 626 197 626 q 272 618 247 626 q 315 597 296 610 l 367 651 l 417 603 l 363 551 q 382 506 374 531 q 390 457 390 482 q 382 408 390 431 q 363 365 374 385 l 417 313 l 368 261 l 314 318 m 329 458 q 298 534 329 503 q 222 565 267 565 q 148 533 178 565 q 118 457 118 501 q 149 382 118 413 q 224 351 179 351 q 299 382 268 351 q 329 458 329 413 z "},"¥":{"ha":383,"x_min":8,"x_max":375,"o":"m 144 0 l 144 150 l 46 150 l 46 214 l 144 214 l 144 336 l 46 336 l 46 400 l 144 400 l 144 406 l 8 922 l 110 922 l 192 567 l 197 567 l 276 922 l 375 922 l 243 404 l 243 400 l 350 400 l 350 336 l 243 336 l 243 214 l 350 214 l 350 150 l 243 150 l 243 0 l 144 0 z "},"¦":{"ha":201,"x_min":61,"x_max":139,"o":"m 61 -174 l 61 360 l 139 360 l 139 -174 l 61 -174 m 61 494 l 61 1022 l 139 1022 l 139 494 l 61 494 z "},"§":{"ha":319,"x_min":26,"x_max":293,"o":"m 293 -58 q 262 -161 293 -128 q 163 -194 231 -194 q 58 -158 89 -194 q 26 -51 26 -122 l 26 21 l 106 21 l 106 -67 q 117 -108 106 -94 q 157 -121 129 -121 q 196 -108 185 -121 q 207 -69 207 -96 l 207 56 q 179 108 207 89 q 118 148 151 126 q 57 202 85 169 q 29 293 29 235 l 29 489 q 43 550 29 524 q 85 590 57 576 q 29 708 29 632 l 29 808 q 61 895 29 863 q 156 928 93 928 q 253 891 222 928 q 283 792 283 854 l 283 721 l 206 721 l 206 801 q 195 840 206 826 q 158 854 185 854 q 122 841 133 854 q 110 808 110 828 l 110 704 q 115 677 110 688 q 138 653 121 667 q 192 617 164 632 q 242 585 219 603 q 278 543 264 568 q 293 475 293 518 l 293 265 q 257 158 293 192 q 284 117 275 140 q 293 60 293 94 l 293 -58 m 207 471 q 192 508 207 494 q 146 542 178 522 q 118 525 126 538 q 110 496 110 513 l 110 289 q 135 241 110 260 q 193 207 160 222 q 207 246 207 217 l 207 471 z "},"¨":{"ha":306,"x_min":26,"x_max":278,"o":"m 26 743 l 26 872 l 119 872 l 119 743 l 26 743 m 185 743 l 185 872 l 278 872 l 278 743 l 185 743 z "},"©":{"ha":385,"x_min":26,"x_max":358,"o":"m 358 168 q 315 37 358 79 q 193 -6 272 -6 q 69 40 111 -6 q 26 171 26 85 l 26 749 q 69 881 26 835 q 192 928 113 928 q 315 881 271 928 q 358 747 358 833 l 358 168 m 315 747 q 283 850 315 814 q 192 886 250 886 q 101 851 133 886 q 69 749 69 815 l 69 171 q 193 36 69 36 q 283 69 251 36 q 315 168 315 101 l 315 747 m 226 519 l 226 596 q 194 633 226 633 q 167 615 172 633 q 163 569 163 596 l 163 349 q 167 303 163 322 q 196 283 172 283 q 226 321 226 283 l 226 421 l 268 421 l 268 324 q 194 243 268 243 q 119 325 119 243 l 119 592 q 138 653 119 632 q 193 675 157 675 q 249 653 229 675 q 268 590 268 631 l 268 519 l 226 519 z "},"ª":{"ha":247,"x_min":24,"x_max":218,"o":"m 154 733 q 140 726 147 729 q 119 718 133 722 q 93 702 99 711 q 88 676 88 693 l 88 600 q 117 569 88 569 q 140 578 132 569 q 154 601 149 586 l 154 733 m 158 518 l 157 551 l 153 551 q 132 526 146 539 q 89 514 118 514 q 38 533 53 514 q 24 585 24 551 l 24 665 q 41 726 24 707 q 104 758 58 744 q 142 772 129 765 q 154 793 154 779 l 154 847 q 122 874 154 874 q 90 844 90 874 l 90 794 l 29 794 l 29 851 q 55 910 29 892 q 126 929 81 929 q 218 856 218 929 l 218 518 l 158 518 z "},"«":{"ha":303,"x_min":11,"x_max":290,"o":"m 11 278 m 11 442 l 128 606 l 168 565 l 79 442 l 168 318 l 128 278 l 11 442 m 133 442 l 250 606 l 290 565 l 201 442 l 290 318 l 250 278 l 133 442 z "},"¬":{"ha":357,"x_min":26,"x_max":331,"o":"m 253 75 l 253 549 l 26 549 l 26 626 l 331 626 l 331 75 l 253 75 z "},"®":{"ha":301,"x_min":26,"x_max":274,"o":"m 274 526 q 151 396 274 396 q 58 429 90 396 q 26 528 26 463 l 26 794 q 59 893 26 858 q 150 928 92 928 q 242 892 210 928 q 274 793 274 857 l 274 526 m 240 793 q 217 868 240 842 q 150 894 193 894 q 83 869 107 894 q 60 794 60 843 l 60 528 q 151 429 60 429 q 240 526 240 429 l 240 793 m 174 533 l 174 629 q 153 650 174 650 l 128 650 l 128 533 l 93 533 l 93 813 l 161 813 q 198 800 188 813 q 208 764 208 788 l 208 704 q 185 668 208 672 l 185 664 q 208 626 208 657 l 208 533 l 174 533 m 174 760 q 153 782 174 782 l 128 782 l 128 681 l 153 681 q 174 700 174 681 l 174 760 z "},"¯":{"ha":300,"x_min":26,"x_max":274,"o":"m 26 760 l 26 824 l 274 824 l 274 760 l 26 760 z "},"°":{"ha":182,"x_min":14,"x_max":167,"o":"m 90 756 q 32 781 50 756 q 14 846 14 806 q 32 910 14 886 q 90 933 50 933 q 149 910 131 933 q 167 846 167 886 q 149 781 167 806 q 90 756 131 756 m 90 796 q 126 846 126 796 q 90 894 126 894 q 56 846 56 894 q 90 796 56 796 z "},"±":{"ha":357,"x_min":26,"x_max":331,"o":"m 26 113 m 139 311 l 139 425 l 26 425 l 26 504 l 139 504 l 139 615 l 218 615 l 218 504 l 331 504 l 331 425 l 218 425 l 218 311 l 139 311 m 26 113 l 26 192 l 331 192 l 331 113 l 26 113 z "},"²":{"ha":211,"x_min":26,"x_max":188,"o":"m 26 486 m 26 486 l 26 581 q 32 626 26 607 q 53 664 38 644 q 88 699 68 682 q 119 731 108 717 q 131 751 128 742 q 133 779 133 761 l 133 842 q 108 872 133 872 q 88 865 93 872 q 82 839 82 857 l 82 774 l 28 774 l 28 835 q 31 874 28 857 q 42 902 33 890 q 66 919 50 914 q 108 925 82 925 q 172 905 157 925 q 188 843 188 885 l 188 779 q 163 704 188 729 q 133 674 151 692 q 100 640 114 656 q 85 617 89 628 q 82 592 82 607 l 82 536 l 188 536 l 188 486 l 26 486 z "},"³":{"ha":211,"x_min":26,"x_max":188,"o":"m 26 482 m 188 568 q 107 482 188 482 q 26 574 26 482 l 26 626 l 79 626 l 79 571 q 107 535 79 535 q 133 565 133 535 l 133 654 q 103 689 133 689 l 81 689 l 81 736 l 104 736 q 126 744 121 736 q 131 769 131 751 l 131 840 q 126 865 131 857 q 106 872 121 872 q 79 839 79 872 l 79 790 l 26 790 l 26 833 q 47 901 26 878 q 106 925 67 925 q 165 901 146 925 q 183 846 183 878 l 183 774 q 149 717 183 725 l 149 713 q 176 695 165 708 q 188 651 188 682 l 188 568 z "},"´":{"ha":265,"x_min":29,"x_max":236,"o":"m 68 701 l 29 742 l 183 926 l 236 865 l 68 701 z "},"¶":{"ha":383,"x_min":18,"x_max":375,"o":"m 261 -139 l 261 839 l 175 839 l 175 -139 l 92 -139 l 92 636 q 18 717 18 647 l 18 844 q 122 922 18 922 l 375 922 l 344 839 l 344 -139 l 261 -139 z "},"·":{"ha":156,"x_min":26,"x_max":129,"o":"m 26 392 l 26 535 l 129 535 l 129 392 l 26 392 z "},"¸":{"ha":144,"x_min":26,"x_max":117,"o":"m 28 -254 q 61 -236 50 -249 q 72 -194 72 -224 l 72 -154 l 26 -154 l 26 -25 l 117 -25 l 117 -169 q 96 -265 117 -235 q 28 -303 75 -296 l 28 -254 z "},"¹":{"ha":144,"x_min":22,"x_max":117,"o":"m 22 486 m 63 486 l 63 838 l 22 838 l 22 883 q 58 892 49 883 q 69 922 67 901 l 117 922 l 117 486 l 63 486 z "},"º":{"ha":244,"x_min":25,"x_max":215,"o":"m 215 611 q 192 538 215 561 q 119 515 168 515 q 48 538 71 515 q 25 611 25 561 l 25 833 q 48 906 25 883 q 119 929 71 929 q 192 906 168 929 q 215 833 215 883 l 215 611 m 153 833 q 119 872 153 872 q 88 833 88 872 l 88 611 q 119 572 88 572 q 153 611 153 572 l 153 833 z "},"»":{"ha":303,"x_min":11,"x_max":290,"o":"m 11 279 m 11 318 l 100 443 l 11 565 l 53 606 l 168 443 l 53 279 l 11 318 m 133 318 l 222 443 l 133 565 l 175 606 l 290 443 l 175 279 l 133 318 z "},"¼":{"ha":415,"x_min":29,"x_max":385,"o":"m 29 0 m 42 -21 l 292 946 l 349 946 l 97 -21 l 42 -21 m 69 486 l 69 838 l 29 838 l 29 883 q 65 892 56 883 q 76 922 74 901 l 124 922 l 124 486 l 69 486 m 306 325 l 301 325 l 254 140 l 306 140 l 306 325 m 306 0 l 306 92 l 214 92 l 214 139 l 290 436 l 360 436 l 360 140 l 385 140 l 385 92 l 360 92 l 360 0 l 306 0 z "},"½":{"ha":415,"x_min":18,"x_max":396,"o":"m 18 0 m 32 -21 l 282 946 l 339 946 l 88 -21 l 32 -21 m 58 486 l 58 838 l 18 838 l 18 883 q 53 892 44 883 q 65 922 63 901 l 113 922 l 113 486 l 58 486 m 235 0 l 235 94 q 240 140 235 121 q 261 178 246 158 q 297 213 276 196 q 328 244 317 231 q 339 265 336 256 q 342 293 342 275 l 342 356 q 317 386 342 386 q 296 378 301 386 q 290 353 290 371 l 290 288 l 236 288 l 236 349 q 239 388 236 371 q 250 416 242 404 q 274 433 258 428 q 317 439 290 439 q 381 419 365 439 q 396 357 396 399 l 396 293 q 371 218 396 243 q 341 188 360 206 q 308 154 322 169 q 294 131 297 142 q 290 106 290 121 l 290 50 l 396 50 l 396 0 l 235 0 z "},"¾":{"ha":415,"x_min":18,"x_max":396,"o":"m 18 0 m 67 -21 l 317 946 l 374 946 l 122 -21 l 67 -21 m 317 325 l 313 325 l 265 140 l 317 140 l 317 325 m 317 0 l 317 92 l 225 92 l 225 139 l 301 436 l 371 436 l 371 140 l 396 140 l 396 92 l 371 92 l 371 0 l 317 0 m 179 568 q 99 482 179 482 q 18 574 18 482 l 18 626 l 71 626 l 71 571 q 99 535 71 535 q 125 565 125 535 l 125 654 q 94 689 125 689 l 72 689 l 72 736 l 96 736 q 117 744 113 736 q 122 769 122 751 l 122 840 q 117 865 122 857 q 97 872 113 872 q 71 839 71 872 l 71 790 l 18 790 l 18 833 q 38 901 18 878 q 97 925 58 925 q 156 901 138 925 q 175 846 175 878 l 175 774 q 140 717 175 725 l 140 713 q 168 695 157 708 q 179 651 179 682 l 179 568 z "},"¿":{"ha":361,"x_min":24,"x_max":342,"o":"m 232 683 l 232 544 l 129 544 l 129 683 l 232 683 m 228 442 l 228 350 q 222 279 228 304 q 208 236 217 254 q 191 206 201 221 q 169 175 181 190 q 149 144 158 160 q 133 115 139 129 q 125 88 128 104 q 122 39 122 71 l 122 -76 q 134 -131 122 -114 q 182 -149 146 -149 q 233 -128 222 -149 q 243 -69 243 -107 l 243 29 l 342 29 l 342 -51 q 338 -133 342 -97 q 317 -194 333 -169 q 267 -233 300 -219 q 179 -246 235 -246 q 99 -235 129 -246 q 51 -201 68 -224 q 29 -145 35 -179 q 24 -64 24 -111 l 24 46 q 28 106 24 85 q 39 144 32 128 q 79 209 54 176 q 117 272 104 242 q 128 312 125 292 q 132 367 132 332 l 132 442 l 228 442 z "},"À":{"ha":388,"x_min":10,"x_max":376,"o":"m 10 0 m 272 0 l 249 225 l 135 225 l 113 0 l 10 0 l 118 922 l 267 922 l 376 0 l 272 0 m 144 315 l 239 315 l 194 753 l 189 753 l 144 315 m 68 1110 l 121 1171 l 275 986 l 236 946 l 68 1110 z "},"Á":{"ha":388,"x_min":10,"x_max":376,"o":"m 10 0 m 272 0 l 249 225 l 135 225 l 113 0 l 10 0 l 118 922 l 267 922 l 376 0 l 272 0 m 144 315 l 239 315 l 194 753 l 189 753 l 144 315 m 149 946 l 110 986 l 264 1171 l 317 1110 l 149 946 z "},"Â":{"ha":388,"x_min":10,"x_max":376,"o":"m 10 0 m 272 0 l 249 225 l 135 225 l 113 0 l 10 0 l 118 922 l 267 922 l 376 0 l 272 0 m 144 315 l 239 315 l 194 753 l 189 753 l 144 315 m 286 947 l 190 1071 l 94 947 l 50 982 l 144 1131 l 235 1131 l 329 982 l 286 947 z "},"Ã":{"ha":388,"x_min":10,"x_max":376,"o":"m 10 0 m 272 0 l 249 225 l 135 225 l 113 0 l 10 0 l 118 922 l 267 922 l 376 0 l 272 0 m 144 315 l 239 315 l 194 753 l 189 753 l 144 315 m 335 1036 q 306 985 326 1001 q 258 968 286 968 q 225 974 240 968 q 195 987 210 979 q 166 1000 181 994 q 136 1006 151 1006 q 111 999 121 1006 q 94 974 101 993 l 50 1000 q 79 1051 58 1035 q 126 1067 100 1067 q 160 1061 144 1067 q 190 1048 175 1056 q 219 1035 204 1040 q 250 1029 233 1029 q 292 1061 281 1029 l 335 1036 z "},"Ä":{"ha":388,"x_min":10,"x_max":376,"o":"m 10 0 m 272 0 l 249 225 l 135 225 l 113 0 l 10 0 l 118 922 l 267 922 l 376 0 l 272 0 m 144 315 l 239 315 l 194 753 l 189 753 l 144 315 m 67 988 l 67 1117 l 160 1117 l 160 988 l 67 988 m 225 988 l 225 1117 l 318 1117 l 318 988 l 225 988 z "},"Å":{"ha":388,"x_min":10,"x_max":376,"o":"m 10 0 m 272 0 l 249 225 l 135 225 l 113 0 l 10 0 l 118 922 l 267 922 l 376 0 l 272 0 m 144 315 l 239 315 l 194 753 l 189 753 l 144 315 m 192 989 q 226 1006 215 989 q 238 1050 238 1022 q 226 1094 238 1078 q 192 1111 215 1111 q 157 1094 168 1111 q 146 1050 146 1078 q 157 1006 146 1022 q 192 989 168 989 m 192 946 q 124 974 146 946 q 101 1050 101 1003 q 124 1126 101 1097 q 192 1154 146 1154 q 260 1126 238 1154 q 282 1050 282 1097 q 260 974 282 1003 q 192 946 238 946 z "},"Æ":{"ha":517,"x_min":10,"x_max":501,"o":"m 242 0 l 242 203 l 133 203 l 113 0 l 10 0 l 118 922 l 493 922 l 493 828 l 344 828 l 344 531 l 479 531 l 479 436 l 344 436 l 344 94 l 501 94 l 501 0 l 242 0 m 143 293 l 242 293 l 242 828 l 196 828 l 143 293 z "},"Ç":{"ha":378,"x_min":26,"x_max":351,"o":"m 26 0 m 253 376 l 351 376 l 351 168 q 192 -6 351 -6 q 67 40 108 -6 q 26 171 26 85 l 26 753 q 189 928 26 928 q 310 886 268 928 q 351 753 351 844 l 351 592 l 253 592 l 253 757 q 192 831 253 831 q 131 757 131 831 l 131 164 q 190 90 131 90 q 253 163 253 90 l 253 376 m 142 -254 q 175 -236 164 -249 q 186 -194 186 -224 l 186 -154 l 140 -154 l 140 -25 l 231 -25 l 231 -169 q 210 -265 231 -235 q 142 -303 189 -296 l 142 -254 z "},"È":{"ha":303,"x_min":26,"x_max":288,"o":"m 26 0 m 26 0 l 26 922 l 279 922 l 279 828 l 129 828 l 129 531 l 265 531 l 265 436 l 129 436 l 129 94 l 288 94 l 288 0 l 26 0 m 32 1110 l 85 1171 l 239 986 l 200 946 l 32 1110 z "},"É":{"ha":303,"x_min":26,"x_max":288,"o":"m 26 0 m 26 0 l 26 922 l 279 922 l 279 828 l 129 828 l 129 531 l 265 531 l 265 436 l 129 436 l 129 94 l 288 94 l 288 0 l 26 0 m 113 946 l 74 986 l 228 1171 l 281 1110 l 113 946 z "},"Ê":{"ha":303,"x_min":15,"x_max":294,"o":"m 15 0 m 26 0 l 26 922 l 279 922 l 279 828 l 129 828 l 129 531 l 265 531 l 265 436 l 129 436 l 129 94 l 288 94 l 288 0 l 26 0 m 251 947 l 156 1071 l 60 947 l 15 982 l 110 1131 l 200 1131 l 294 982 l 251 947 z "},"Ë":{"ha":303,"x_min":26,"x_max":288,"o":"m 26 0 m 26 0 l 26 922 l 279 922 l 279 828 l 129 828 l 129 531 l 265 531 l 265 436 l 129 436 l 129 94 l 288 94 l 288 0 l 26 0 m 26 988 l 26 1117 l 119 1117 l 119 988 l 26 988 m 185 988 l 185 1117 l 278 1117 l 278 988 l 185 988 z "},"Ì":{"ha":176,"x_min":-36,"x_max":171,"o":"m 0 0 m 44 0 l 44 922 l 150 922 l 150 0 l 44 0 m -36 1110 l 17 1171 l 171 986 l 132 946 l -36 1110 z "},"Í":{"ha":182,"x_min":15,"x_max":222,"o":"m 15 0 m 26 0 l 26 922 l 132 922 l 132 0 l 26 0 m 54 946 l 15 986 l 169 1171 l 222 1110 l 54 946 z "},"Î":{"ha":224,"x_min":-28,"x_max":251,"o":"m 0 0 m 58 0 l 58 922 l 164 922 l 164 0 l 58 0 m 208 947 l 113 1071 l 17 947 l -28 982 l 67 1131 l 157 1131 l 251 982 l 208 947 z "},"Ï":{"ha":214,"x_min":-19,"x_max":232,"o":"m 0 0 m 53 0 l 53 922 l 158 922 l 158 0 l 53 0 m -19 978 l -19 1107 l 74 1107 l 74 978 l -19 978 m 139 978 l 139 1107 l 232 1107 l 232 978 l 139 978 z "},"Ð":{"ha":400,"x_min":6,"x_max":374,"o":"m 42 0 l 42 436 l 6 436 l 6 531 l 42 531 l 42 922 l 214 922 q 374 761 374 922 l 374 171 q 333 42 374 83 q 214 0 293 0 l 42 0 m 207 94 q 256 120 243 94 q 268 192 268 146 l 268 733 q 254 803 268 778 q 200 828 240 828 l 144 828 l 144 531 l 214 531 l 214 436 l 144 436 l 144 94 l 207 94 z "},"Ñ":{"ha":408,"x_min":26,"x_max":382,"o":"m 26 0 m 254 0 l 118 722 l 113 722 q 115 676 114 700 q 116 621 115 651 q 117 551 117 590 q 117 461 117 513 l 117 0 l 26 0 l 26 922 l 168 922 l 289 232 l 294 232 q 292 290 293 260 q 291 358 292 321 q 290 440 290 394 q 290 543 290 485 l 290 922 l 382 922 l 382 0 l 254 0 m 346 1036 q 317 985 338 1001 q 269 968 297 968 q 236 974 251 968 q 206 987 221 979 q 177 1000 192 994 q 147 1006 163 1006 q 122 999 132 1006 q 106 974 113 993 l 61 1000 q 90 1051 69 1035 q 138 1067 111 1067 q 171 1061 156 1067 q 201 1048 186 1056 q 230 1035 215 1040 q 261 1029 244 1029 q 303 1061 292 1029 l 346 1036 z "},"Ò":{"ha":376,"x_min":22,"x_max":354,"o":"m 22 0 m 354 168 q 311 38 354 81 q 189 -6 268 -6 q 65 40 107 -6 q 22 171 22 85 l 22 749 q 65 881 22 835 q 188 928 108 928 q 310 881 267 928 q 354 747 354 833 l 354 168 m 250 757 q 188 831 250 831 q 126 757 126 831 l 126 163 q 189 90 126 90 q 250 163 250 90 l 250 757 m 67 1110 l 119 1171 l 274 986 l 235 946 l 67 1110 z "},"Ó":{"ha":376,"x_min":22,"x_max":354,"o":"m 22 0 m 354 168 q 311 38 354 81 q 189 -6 268 -6 q 65 40 107 -6 q 22 171 22 85 l 22 749 q 65 881 22 835 q 188 928 108 928 q 310 881 267 928 q 354 747 354 833 l 354 168 m 250 757 q 188 831 250 831 q 126 757 126 831 l 126 163 q 189 90 126 90 q 250 163 250 90 l 250 757 m 146 946 l 107 986 l 261 1171 l 314 1110 l 146 946 z "},"Ô":{"ha":376,"x_min":22,"x_max":354,"o":"m 22 0 m 354 168 q 311 38 354 81 q 189 -6 268 -6 q 65 40 107 -6 q 22 171 22 85 l 22 749 q 65 881 22 835 q 188 928 108 928 q 310 881 267 928 q 354 747 354 833 l 354 168 m 250 757 q 188 831 250 831 q 126 757 126 831 l 126 163 q 189 90 126 90 q 250 163 250 90 l 250 757 m 286 947 l 190 1071 l 94 947 l 50 982 l 144 1131 l 235 1131 l 329 982 l 286 947 z "},"Õ":{"ha":376,"x_min":22,"x_max":354,"o":"m 22 0 m 354 168 q 311 38 354 81 q 189 -6 268 -6 q 65 40 107 -6 q 22 171 22 85 l 22 749 q 65 881 22 835 q 188 928 108 928 q 310 881 267 928 q 354 747 354 833 l 354 168 m 250 757 q 188 831 250 831 q 126 757 126 831 l 126 163 q 189 90 126 90 q 250 163 250 90 l 250 757 m 332 1036 q 303 985 324 1001 q 256 968 283 968 q 222 974 238 968 q 192 987 207 979 q 163 1000 178 994 q 133 1006 149 1006 q 108 999 118 1006 q 92 974 99 993 l 47 1000 q 76 1051 56 1035 q 124 1067 97 1067 q 157 1061 142 1067 q 187 1048 172 1056 q 216 1035 201 1040 q 247 1029 231 1029 q 289 1061 278 1029 l 332 1036 z "},"Ö":{"ha":376,"x_min":22,"x_max":354,"o":"m 22 0 m 354 168 q 311 38 354 81 q 189 -6 268 -6 q 65 40 107 -6 q 22 171 22 85 l 22 749 q 65 881 22 835 q 188 928 108 928 q 310 881 267 928 q 354 747 354 833 l 354 168 m 250 757 q 188 831 250 831 q 126 757 126 831 l 126 163 q 189 90 126 90 q 250 163 250 90 l 250 757 m 63 988 l 63 1117 l 156 1117 l 156 988 l 63 988 m 221 988 l 221 1117 l 314 1117 l 314 988 l 221 988 z "},"×":{"ha":357,"x_min":36,"x_max":322,"o":"m 235 463 l 322 375 l 267 321 l 179 407 l 92 319 l 36 375 l 124 463 l 38 549 l 93 604 l 179 518 l 265 604 l 321 549 l 235 463 z "},"Ø":{"ha":376,"x_min":22,"x_max":354,"o":"m 36 -21 l 54 53 q 22 171 22 97 l 22 749 q 65 881 22 835 q 188 928 108 928 q 268 911 235 928 l 278 946 l 342 946 l 321 865 q 345 813 336 843 q 354 747 354 783 l 354 168 q 311 38 354 81 q 189 -6 268 -6 q 107 10 144 -6 l 100 -21 l 36 -21 m 250 579 l 244 579 l 135 118 q 189 90 150 90 q 250 163 250 90 l 250 579 m 126 340 l 132 340 l 240 800 q 188 831 225 831 q 126 757 126 831 l 126 340 z "},"Ù":{"ha":383,"x_min":26,"x_max":356,"o":"m 26 0 m 253 922 l 356 922 l 356 171 q 315 40 356 85 q 192 -6 274 -6 q 69 38 113 -6 q 26 168 26 81 l 26 922 l 129 922 l 129 163 q 190 90 129 90 q 253 163 253 90 l 253 922 m 69 1110 l 122 1171 l 276 986 l 238 946 l 69 1110 z "},"Ú":{"ha":383,"x_min":26,"x_max":356,"o":"m 26 0 m 253 922 l 356 922 l 356 171 q 315 40 356 85 q 192 -6 274 -6 q 69 38 113 -6 q 26 168 26 81 l 26 922 l 129 922 l 129 163 q 190 90 129 90 q 253 163 253 90 l 253 922 m 147 946 l 108 986 l 263 1171 l 315 1110 l 147 946 z "},"Û":{"ha":383,"x_min":26,"x_max":356,"o":"m 26 0 m 253 922 l 356 922 l 356 171 q 315 40 356 85 q 192 -6 274 -6 q 69 38 113 -6 q 26 168 26 81 l 26 922 l 129 922 l 129 163 q 190 90 129 90 q 253 163 253 90 l 253 922 m 286 947 l 190 1071 l 94 947 l 50 982 l 144 1131 l 235 1131 l 329 982 l 286 947 z "},"Ü":{"ha":383,"x_min":26,"x_max":356,"o":"m 26 0 m 253 922 l 356 922 l 356 171 q 315 40 356 85 q 192 -6 274 -6 q 69 38 113 -6 q 26 168 26 81 l 26 922 l 129 922 l 129 163 q 190 90 129 90 q 253 163 253 90 l 253 922 m 65 988 l 65 1117 l 158 1117 l 158 988 l 65 988 m 224 988 l 224 1117 l 317 1117 l 317 988 l 224 988 z "},"Ý":{"ha":383,"x_min":8,"x_max":375,"o":"m 8 0 m 142 0 l 142 385 l 8 922 l 113 922 l 192 567 l 197 567 l 274 922 l 375 922 l 246 383 l 246 0 l 142 0 m 153 946 l 114 986 l 268 1171 l 321 1110 l 153 946 z "},"Þ":{"ha":378,"x_min":26,"x_max":353,"o":"m 26 922 l 132 922 l 132 785 l 221 785 q 324 748 294 785 q 353 644 353 711 l 353 326 q 324 223 353 260 q 221 186 294 186 l 132 186 l 132 0 l 26 0 l 26 922 m 132 694 l 132 276 l 200 276 q 245 306 236 276 q 254 378 254 336 l 254 629 q 242 678 254 661 q 200 694 229 694 l 132 694 z "},"ß":{"ha":396,"x_min":26,"x_max":371,"o":"m 274 376 q 260 441 274 419 q 201 463 246 463 l 169 463 l 169 547 l 192 547 q 247 604 247 547 l 247 788 q 186 849 247 849 q 137 826 150 849 q 124 761 124 803 l 124 0 l 26 0 l 26 782 q 65 901 26 864 q 192 939 104 939 q 310 908 268 939 q 351 801 351 878 l 351 619 q 279 508 351 521 l 279 503 q 349 460 326 496 q 371 363 371 425 l 371 154 q 337 33 371 72 q 221 -6 303 -6 q 160 3 186 -6 l 160 88 q 206 79 182 79 q 274 154 274 79 l 274 376 z "},"à":{"ha":369,"x_min":22,"x_max":342,"o":"m 22 0 m 243 358 q 216 344 228 347 q 179 332 204 340 q 131 306 143 321 q 119 260 119 290 l 119 132 q 174 82 119 82 q 217 94 201 82 q 243 132 232 107 l 243 358 m 250 0 l 247 58 l 242 58 q 202 14 226 33 q 129 -6 178 -6 q 47 25 71 -6 q 22 108 22 56 l 22 242 q 29 300 22 276 q 51 341 36 324 q 92 370 67 358 q 153 393 117 382 q 217 415 193 404 q 242 450 242 426 l 242 544 q 185 590 242 590 q 124 540 124 590 l 124 456 l 31 456 l 31 551 q 72 646 31 615 q 192 676 114 676 q 342 558 342 676 l 342 0 l 250 0 m 63 865 l 115 926 l 269 742 l 231 701 l 63 865 z "},"á":{"ha":369,"x_min":22,"x_max":342,"o":"m 22 0 m 243 358 q 216 344 228 347 q 179 332 204 340 q 131 306 143 321 q 119 260 119 290 l 119 132 q 174 82 119 82 q 217 94 201 82 q 243 132 232 107 l 243 358 m 250 0 l 247 58 l 242 58 q 202 14 226 33 q 129 -6 178 -6 q 47 25 71 -6 q 22 108 22 56 l 22 242 q 29 300 22 276 q 51 341 36 324 q 92 370 67 358 q 153 393 117 382 q 217 415 193 404 q 242 450 242 426 l 242 544 q 185 590 242 590 q 124 540 124 590 l 124 456 l 31 456 l 31 551 q 72 646 31 615 q 192 676 114 676 q 342 558 342 676 l 342 0 l 250 0 m 139 701 l 100 742 l 254 926 l 307 865 l 139 701 z "},"â":{"ha":369,"x_min":22,"x_max":342,"o":"m 22 0 m 243 358 q 216 344 228 347 q 179 332 204 340 q 131 306 143 321 q 119 260 119 290 l 119 132 q 174 82 119 82 q 217 94 201 82 q 243 132 232 107 l 243 358 m 250 0 l 247 58 l 242 58 q 202 14 226 33 q 129 -6 178 -6 q 47 25 71 -6 q 22 108 22 56 l 22 242 q 29 300 22 276 q 51 341 36 324 q 92 370 67 358 q 153 393 117 382 q 217 415 193 404 q 242 450 242 426 l 242 544 q 185 590 242 590 q 124 540 124 590 l 124 456 l 31 456 l 31 551 q 72 646 31 615 q 192 676 114 676 q 342 558 342 676 l 342 0 l 250 0 m 278 703 l 182 826 l 86 703 l 42 738 l 136 886 l 226 886 l 321 738 l 278 703 z "},"ã":{"ha":369,"x_min":22,"x_max":342,"o":"m 22 0 m 243 358 q 216 344 228 347 q 179 332 204 340 q 131 306 143 321 q 119 260 119 290 l 119 132 q 174 82 119 82 q 217 94 201 82 q 243 132 232 107 l 243 358 m 250 0 l 247 58 l 242 58 q 202 14 226 33 q 129 -6 178 -6 q 47 25 71 -6 q 22 108 22 56 l 22 242 q 29 300 22 276 q 51 341 36 324 q 92 370 67 358 q 153 393 117 382 q 217 415 193 404 q 242 450 242 426 l 242 544 q 185 590 242 590 q 124 540 124 590 l 124 456 l 31 456 l 31 551 q 72 646 31 615 q 192 676 114 676 q 342 558 342 676 l 342 0 l 250 0 m 325 792 q 297 740 317 757 q 249 724 276 724 q 215 729 231 724 q 185 742 200 735 q 156 756 171 750 q 126 761 142 761 q 101 755 111 761 q 85 729 92 749 l 40 756 q 69 806 49 790 q 117 822 90 822 q 150 817 135 822 q 180 803 165 811 q 209 790 194 796 q 240 785 224 785 q 282 817 271 785 l 325 792 z "},"ä":{"ha":369,"x_min":22,"x_max":342,"o":"m 22 0 m 243 358 q 216 344 228 347 q 179 332 204 340 q 131 306 143 321 q 119 260 119 290 l 119 132 q 174 82 119 82 q 217 94 201 82 q 243 132 232 107 l 243 358 m 250 0 l 247 58 l 242 58 q 202 14 226 33 q 129 -6 178 -6 q 47 25 71 -6 q 22 108 22 56 l 22 242 q 29 300 22 276 q 51 341 36 324 q 92 370 67 358 q 153 393 117 382 q 217 415 193 404 q 242 450 242 426 l 242 544 q 185 590 242 590 q 124 540 124 590 l 124 456 l 31 456 l 31 551 q 72 646 31 615 q 192 676 114 676 q 342 558 342 676 l 342 0 l 250 0 m 58 743 l 58 872 l 151 872 l 151 743 l 58 743 m 217 743 l 217 872 l 310 872 l 310 743 l 217 743 z "},"å":{"ha":369,"x_min":22,"x_max":342,"o":"m 22 0 m 243 358 q 216 344 228 347 q 179 332 204 340 q 131 306 143 321 q 119 260 119 290 l 119 132 q 174 82 119 82 q 217 94 201 82 q 243 132 232 107 l 243 358 m 250 0 l 247 58 l 242 58 q 202 14 226 33 q 129 -6 178 -6 q 47 25 71 -6 q 22 108 22 56 l 22 242 q 29 300 22 276 q 51 341 36 324 q 92 370 67 358 q 153 393 117 382 q 217 415 193 404 q 242 450 242 426 l 242 544 q 185 590 242 590 q 124 540 124 590 l 124 456 l 31 456 l 31 551 q 72 646 31 615 q 192 676 114 676 q 342 558 342 676 l 342 0 l 250 0 m 188 744 q 222 761 211 744 q 233 806 233 778 q 222 850 233 833 q 188 867 211 867 q 153 850 164 867 q 142 806 142 833 q 153 761 142 778 q 188 744 164 744 m 188 701 q 119 730 142 701 q 97 806 97 758 q 119 881 97 853 q 188 910 142 910 q 256 881 233 910 q 278 806 278 853 q 256 730 278 758 q 188 701 233 701 z "},"æ":{"ha":586,"x_min":22,"x_max":558,"o":"m 558 151 q 399 -6 558 -6 q 256 76 285 -6 l 250 76 q 206 15 233 36 q 129 -6 178 -6 q 47 25 71 -6 q 22 108 22 56 l 22 242 q 29 300 22 276 q 51 341 36 324 q 92 370 67 358 q 153 393 117 382 q 217 415 193 404 q 242 450 242 426 l 242 544 q 185 590 242 590 q 124 540 124 590 l 124 456 l 31 456 l 31 551 q 72 646 31 615 q 192 676 114 676 q 297 650 263 676 q 400 676 333 676 q 558 519 558 676 l 558 311 l 340 311 l 340 149 q 400 82 340 82 q 460 149 460 82 l 460 231 l 558 231 l 558 151 m 243 358 q 216 344 228 347 q 179 332 204 340 q 131 306 143 321 q 119 260 119 290 l 119 132 q 174 82 119 82 q 217 94 201 82 q 243 132 232 107 l 243 358 m 460 521 q 400 589 460 589 q 340 521 340 589 l 340 383 l 460 383 l 460 521 z "},"ç":{"ha":369,"x_min":29,"x_max":340,"o":"m 29 0 m 244 247 l 340 247 l 340 151 q 303 33 340 72 q 185 -6 267 -6 q 29 151 29 -6 l 29 519 q 186 676 29 676 q 303 638 267 676 q 340 519 340 599 l 340 426 l 244 426 l 244 519 q 186 586 244 586 q 126 519 126 586 l 126 151 q 186 85 126 85 q 244 151 244 85 l 244 247 m 140 -254 q 174 -236 163 -249 q 185 -194 185 -224 l 185 -154 l 139 -154 l 139 -25 l 229 -25 l 229 -169 q 208 -265 229 -235 q 140 -303 188 -296 l 140 -254 z "},"è":{"ha":374,"x_min":29,"x_max":344,"o":"m 29 0 m 344 151 q 185 -6 344 -6 q 29 151 29 -6 l 29 519 q 186 676 29 676 q 344 519 344 676 l 344 311 l 126 311 l 126 149 q 186 82 126 82 q 246 149 246 82 l 246 231 l 344 231 l 344 151 m 246 521 q 186 589 246 589 q 126 521 126 589 l 126 383 l 246 383 l 246 521 m 64 865 l 117 926 l 271 742 l 232 701 l 64 865 z "},"é":{"ha":374,"x_min":29,"x_max":344,"o":"m 29 0 m 344 151 q 185 -6 344 -6 q 29 151 29 -6 l 29 519 q 186 676 29 676 q 344 519 344 676 l 344 311 l 126 311 l 126 149 q 186 82 126 82 q 246 149 246 82 l 246 231 l 344 231 l 344 151 m 246 521 q 186 589 246 589 q 126 521 126 589 l 126 383 l 246 383 l 246 521 m 143 701 l 104 742 l 258 926 l 311 865 l 143 701 z "},"ê":{"ha":374,"x_min":29,"x_max":344,"o":"m 29 0 m 344 151 q 185 -6 344 -6 q 29 151 29 -6 l 29 519 q 186 676 29 676 q 344 519 344 676 l 344 311 l 126 311 l 126 149 q 186 82 126 82 q 246 149 246 82 l 246 231 l 344 231 l 344 151 m 246 521 q 186 589 246 589 q 126 521 126 589 l 126 383 l 246 383 l 246 521 m 282 703 l 186 826 l 90 703 l 46 738 l 140 886 l 231 886 l 325 738 l 282 703 z "},"ë":{"ha":374,"x_min":29,"x_max":344,"o":"m 29 0 m 344 151 q 185 -6 344 -6 q 29 151 29 -6 l 29 519 q 186 676 29 676 q 344 519 344 676 l 344 311 l 126 311 l 126 149 q 186 82 126 82 q 246 149 246 82 l 246 231 l 344 231 l 344 151 m 246 521 q 186 589 246 589 q 126 521 126 589 l 126 383 l 246 383 l 246 521 m 63 743 l 63 872 l 156 872 l 156 743 l 63 743 m 221 743 l 221 872 l 314 872 l 314 743 l 221 743 z "},"ì":{"ha":194,"x_min":-8,"x_max":199,"o":"m 0 0 m -8 865 l 44 926 l 199 742 l 160 701 l -8 865 m 65 0 l 65 671 l 165 671 l 165 0 l 65 0 z "},"í":{"ha":203,"x_min":6,"x_max":213,"o":"m 6 0 m 44 701 l 6 742 l 160 926 l 213 865 l 44 701 m 29 0 l 29 671 l 129 671 l 129 0 l 29 0 z "},"î":{"ha":256,"x_min":-12,"x_max":267,"o":"m 0 0 m 78 0 l 78 671 l 178 671 l 178 0 l 78 0 m 224 703 l 128 826 l 32 703 l -12 738 l 82 886 l 172 886 l 267 738 l 224 703 z "},"ï":{"ha":217,"x_min":-18,"x_max":233,"o":"m 0 0 m -18 743 l -18 872 l 75 872 l 75 743 l -18 743 m 140 743 l 140 872 l 233 872 l 233 743 l 140 743 m 57 0 l 57 671 l 157 671 l 157 0 l 57 0 z "},"ð":{"ha":378,"x_min":29,"x_max":349,"o":"m 349 864 l 292 833 q 334 731 319 788 q 349 613 349 675 l 349 196 q 342 105 349 143 q 318 42 336 67 q 269 6 300 18 q 188 -6 238 -6 q 105 6 136 -6 q 57 38 74 17 q 35 88 40 58 q 29 156 29 118 l 29 539 q 62 628 29 599 q 146 657 94 657 q 204 644 178 657 q 247 599 231 632 l 253 599 l 253 657 q 243 726 253 692 q 217 793 233 761 l 96 728 l 96 776 l 196 831 q 94 933 151 899 l 188 933 q 267 868 233 910 l 349 913 l 349 864 m 192 82 q 223 88 211 82 q 241 110 235 94 q 249 151 247 125 q 251 217 251 176 l 251 519 q 226 561 240 551 q 188 571 211 571 q 144 552 157 571 q 131 479 131 533 l 131 138 q 192 82 131 82 z "},"ñ":{"ha":379,"x_min":29,"x_max":351,"o":"m 29 0 m 250 0 l 250 526 q 194 590 250 590 q 153 575 167 590 q 129 526 139 560 l 129 0 l 29 0 l 29 671 l 122 671 l 125 603 l 131 603 q 236 676 163 676 q 320 644 289 676 q 351 546 351 611 l 351 0 l 250 0 m 332 792 q 303 740 324 757 q 256 724 283 724 q 222 729 238 724 q 192 742 207 735 q 163 756 178 750 q 133 761 149 761 q 108 755 118 761 q 92 729 99 749 l 47 756 q 76 806 56 790 q 124 822 97 822 q 157 817 142 822 q 187 803 172 811 q 216 790 201 796 q 247 785 231 785 q 289 817 278 785 l 332 792 z "},"ò":{"ha":372,"x_min":29,"x_max":343,"o":"m 29 0 m 343 151 q 305 32 343 69 q 186 -6 267 -6 q 67 32 106 -6 q 29 151 29 69 l 29 519 q 67 639 29 601 q 186 676 106 676 q 305 639 267 676 q 343 519 343 601 l 343 151 m 246 519 q 186 586 246 586 q 126 519 126 586 l 126 151 q 186 85 126 85 q 246 151 246 85 l 246 519 m 64 865 l 117 926 l 271 742 l 232 701 l 64 865 z "},"ó":{"ha":372,"x_min":29,"x_max":343,"o":"m 29 0 m 343 151 q 305 32 343 69 q 186 -6 267 -6 q 67 32 106 -6 q 29 151 29 69 l 29 519 q 67 639 29 601 q 186 676 106 676 q 305 639 267 676 q 343 519 343 601 l 343 151 m 246 519 q 186 586 246 586 q 126 519 126 586 l 126 151 q 186 85 126 85 q 246 151 246 85 l 246 519 m 143 701 l 104 742 l 258 926 l 311 865 l 143 701 z "},"ô":{"ha":372,"x_min":29,"x_max":343,"o":"m 29 0 m 343 151 q 305 32 343 69 q 186 -6 267 -6 q 67 32 106 -6 q 29 151 29 69 l 29 519 q 67 639 29 601 q 186 676 106 676 q 305 639 267 676 q 343 519 343 601 l 343 151 m 246 519 q 186 586 246 586 q 126 519 126 586 l 126 151 q 186 85 126 85 q 246 151 246 85 l 246 519 m 283 703 l 188 826 l 92 703 l 47 738 l 142 886 l 232 886 l 326 738 l 283 703 z "},"õ":{"ha":372,"x_min":29,"x_max":343,"o":"m 29 0 m 343 151 q 305 32 343 69 q 186 -6 267 -6 q 67 32 106 -6 q 29 151 29 69 l 29 519 q 67 639 29 601 q 186 676 106 676 q 305 639 267 676 q 343 519 343 601 l 343 151 m 246 519 q 186 586 246 586 q 126 519 126 586 l 126 151 q 186 85 126 85 q 246 151 246 85 l 246 519 m 328 792 q 299 740 319 757 q 251 724 279 724 q 218 729 233 724 q 188 742 203 735 q 159 756 174 750 q 129 761 144 761 q 104 755 114 761 q 88 729 94 749 l 43 756 q 72 806 51 790 q 119 822 93 822 q 153 817 138 822 q 183 803 168 811 q 212 790 197 796 q 243 785 226 785 q 285 817 274 785 l 328 792 z "},"ö":{"ha":372,"x_min":29,"x_max":343,"o":"m 29 0 m 343 151 q 305 32 343 69 q 186 -6 267 -6 q 67 32 106 -6 q 29 151 29 69 l 29 519 q 67 639 29 601 q 186 676 106 676 q 305 639 267 676 q 343 519 343 601 l 343 151 m 246 519 q 186 586 246 586 q 126 519 126 586 l 126 151 q 186 85 126 85 q 246 151 246 85 l 246 519 m 61 743 l 61 872 l 154 872 l 154 743 l 61 743 m 219 743 l 219 872 l 313 872 l 313 743 l 219 743 z "},"÷":{"ha":357,"x_min":26,"x_max":331,"o":"m 26 424 l 26 501 l 331 501 l 331 424 l 26 424 m 126 199 l 126 335 l 229 335 l 229 199 l 126 199 m 126 592 l 126 729 l 229 729 l 229 592 l 126 592 z "},"ø":{"ha":372,"x_min":29,"x_max":343,"o":"m 38 -18 l 57 43 q 29 151 29 79 l 29 519 q 67 639 29 601 q 186 676 106 676 q 264 664 232 676 l 274 690 l 336 690 l 314 626 q 343 519 343 589 l 343 151 q 305 32 343 69 q 186 -6 267 -6 q 107 7 138 -6 l 99 -18 l 38 -18 m 246 421 l 240 421 l 139 103 q 186 85 153 85 q 246 151 246 85 l 246 421 m 126 249 l 132 249 l 232 568 q 186 586 218 586 q 126 519 126 586 l 126 249 z "},"ù":{"ha":378,"x_min":29,"x_max":349,"o":"m 29 0 m 131 671 l 131 154 q 143 98 131 114 q 186 82 156 82 q 229 99 217 82 q 249 157 242 115 l 249 671 l 349 671 l 349 0 l 256 0 l 253 68 l 247 68 q 206 11 229 28 q 143 -6 182 -6 q 52 38 75 -6 q 29 154 29 81 l 29 671 l 131 671 m 68 865 l 121 926 l 275 742 l 236 701 l 68 865 z "},"ú":{"ha":378,"x_min":29,"x_max":349,"o":"m 29 0 m 131 671 l 131 154 q 143 98 131 114 q 186 82 156 82 q 229 99 217 82 q 249 157 242 115 l 249 671 l 349 671 l 349 0 l 256 0 l 253 68 l 247 68 q 206 11 229 28 q 143 -6 182 -6 q 52 38 75 -6 q 29 154 29 81 l 29 671 l 131 671 m 146 701 l 107 742 l 261 926 l 314 865 l 146 701 z "},"û":{"ha":378,"x_min":29,"x_max":349,"o":"m 29 0 m 131 671 l 131 154 q 143 98 131 114 q 186 82 156 82 q 229 99 217 82 q 249 157 242 115 l 249 671 l 349 671 l 349 0 l 256 0 l 253 68 l 247 68 q 206 11 229 28 q 143 -6 182 -6 q 52 38 75 -6 q 29 154 29 81 l 29 671 l 131 671 m 286 703 l 190 826 l 94 703 l 50 738 l 144 886 l 235 886 l 329 738 l 286 703 z "},"ü":{"ha":378,"x_min":29,"x_max":349,"o":"m 29 0 m 131 671 l 131 154 q 143 98 131 114 q 186 82 156 82 q 229 99 217 82 q 249 157 242 115 l 249 671 l 349 671 l 349 0 l 256 0 l 253 68 l 247 68 q 206 11 229 28 q 143 -6 182 -6 q 52 38 75 -6 q 29 154 29 81 l 29 671 l 131 671 m 64 743 l 64 872 l 157 872 l 157 743 l 64 743 m 222 743 l 222 872 l 315 872 l 315 743 l 222 743 z "},"ý":{"ha":376,"x_min":29,"x_max":347,"o":"m 29 0 m 131 160 q 145 108 131 124 q 188 92 160 92 q 229 108 215 92 q 251 164 243 125 l 251 671 l 347 671 l 347 -167 q 188 -324 347 -324 q 69 -285 107 -324 q 32 -167 32 -246 l 32 -42 l 128 -42 l 128 -167 q 188 -233 128 -233 q 249 -167 249 -233 l 249 64 l 243 64 q 203 14 228 28 q 142 0 178 0 q 54 36 79 0 q 29 139 29 72 l 29 671 l 131 671 l 131 160 m 146 701 l 107 742 l 261 926 l 314 865 l 146 701 z "},"þ":{"ha":376,"x_min":29,"x_max":347,"o":"m 29 -324 l 29 933 l 128 933 l 128 614 l 133 614 q 239 676 161 676 q 298 659 276 676 q 331 613 319 642 q 344 547 342 585 q 347 469 347 510 l 347 178 q 343 104 347 138 q 328 47 339 71 q 294 8 317 22 q 238 -6 272 -6 q 175 9 201 -6 q 133 57 149 24 l 128 57 l 128 -324 l 29 -324 m 247 522 q 190 590 247 590 q 149 570 163 590 q 126 507 135 550 l 126 157 q 149 100 133 118 q 192 82 164 82 q 247 149 247 82 l 247 522 z "},"ÿ":{"ha":376,"x_min":29,"x_max":347,"o":"m 29 0 m 131 160 q 145 108 131 124 q 188 92 160 92 q 229 108 215 92 q 251 164 243 125 l 251 671 l 347 671 l 347 -167 q 188 -324 347 -324 q 69 -285 107 -324 q 32 -167 32 -246 l 32 -42 l 128 -42 l 128 -167 q 188 -233 128 -233 q 249 -167 249 -233 l 249 64 l 243 64 q 203 14 228 28 q 142 0 178 0 q 54 36 79 0 q 29 139 29 72 l 29 671 l 131 671 l 131 160 m 67 743 l 67 872 l 160 872 l 160 743 l 67 743 m 225 743 l 225 872 l 318 872 l 318 743 l 225 743 z "},"Ā":{"ha":388,"x_min":10,"x_max":376,"o":"m 10 0 m 272 0 l 249 225 l 135 225 l 113 0 l 10 0 l 118 922 l 267 922 l 376 0 l 272 0 m 144 315 l 239 315 l 194 753 l 189 753 l 144 315 m 67 1004 l 67 1068 l 314 1068 l 314 1004 l 67 1004 z "},"ā":{"ha":369,"x_min":22,"x_max":342,"o":"m 22 0 m 243 358 q 216 344 228 347 q 179 332 204 340 q 131 306 143 321 q 119 260 119 290 l 119 132 q 174 82 119 82 q 217 94 201 82 q 243 132 232 107 l 243 358 m 250 0 l 247 58 l 242 58 q 202 14 226 33 q 129 -6 178 -6 q 47 25 71 -6 q 22 108 22 56 l 22 242 q 29 300 22 276 q 51 341 36 324 q 92 370 67 358 q 153 393 117 382 q 217 415 193 404 q 242 450 242 426 l 242 544 q 185 590 242 590 q 124 540 124 590 l 124 456 l 31 456 l 31 551 q 72 646 31 615 q 192 676 114 676 q 342 558 342 676 l 342 0 l 250 0 m 58 760 l 58 824 l 306 824 l 306 760 l 58 760 z "},"Ă":{"ha":388,"x_min":10,"x_max":376,"o":"m 10 0 m 272 0 l 249 225 l 135 225 l 113 0 l 10 0 l 118 922 l 267 922 l 376 0 l 272 0 m 144 315 l 239 315 l 194 753 l 189 753 l 144 315 m 190 946 q 88 993 128 946 q 49 1129 49 1040 l 121 1129 q 140 1039 124 1067 q 190 1011 157 1011 q 241 1039 224 1011 q 260 1129 258 1067 l 335 1129 q 294 993 335 1040 q 190 946 254 946 z "},"ă":{"ha":369,"x_min":22,"x_max":342,"o":"m 22 0 m 243 358 q 216 344 228 347 q 179 332 204 340 q 131 306 143 321 q 119 260 119 290 l 119 132 q 174 82 119 82 q 217 94 201 82 q 243 132 232 107 l 243 358 m 250 0 l 247 58 l 242 58 q 202 14 226 33 q 129 -6 178 -6 q 47 25 71 -6 q 22 108 22 56 l 22 242 q 29 300 22 276 q 51 341 36 324 q 92 370 67 358 q 153 393 117 382 q 217 415 193 404 q 242 450 242 426 l 242 544 q 185 590 242 590 q 124 540 124 590 l 124 456 l 31 456 l 31 551 q 72 646 31 615 q 192 676 114 676 q 342 558 342 676 l 342 0 l 250 0 m 179 701 q 77 749 117 701 q 38 885 38 796 l 110 885 q 129 794 113 822 q 179 767 146 767 q 230 794 213 767 q 249 885 247 822 l 324 885 q 283 749 324 796 q 179 701 243 701 z "},"Ą":{"ha":388,"x_min":10,"x_max":376,"o":"m 374 -289 q 343 -299 361 -296 q 306 -303 325 -303 q 231 -281 256 -303 q 207 -201 207 -258 l 207 -161 q 236 -65 207 -103 q 318 -7 265 -28 l 318 0 l 272 0 l 249 225 l 135 225 l 113 0 l 10 0 l 118 922 l 267 922 l 376 0 q 276 -133 276 -50 l 276 -171 q 288 -205 276 -196 q 326 -214 300 -214 q 351 -212 338 -214 q 374 -207 364 -211 l 374 -289 m 144 315 l 239 315 l 194 753 l 189 753 l 144 315 z "},"ą":{"ha":369,"x_min":22,"x_max":342,"o":"m 340 -289 q 272 -303 314 -303 q 197 -281 222 -303 q 172 -201 172 -258 l 172 -161 q 204 -64 172 -103 q 292 -6 236 -25 l 292 0 l 250 0 l 247 58 l 242 58 q 202 14 226 33 q 129 -6 178 -6 q 47 25 71 -6 q 22 108 22 56 l 22 242 q 29 300 22 276 q 51 341 36 324 q 92 370 67 358 q 153 393 117 382 q 217 415 193 404 q 242 450 242 426 l 242 544 q 185 590 242 590 q 124 540 124 590 l 124 456 l 31 456 l 31 551 q 72 646 31 615 q 192 676 114 676 q 342 558 342 676 l 342 0 q 243 -133 243 -50 l 243 -171 q 254 -205 243 -196 q 292 -214 265 -214 q 317 -212 304 -214 q 340 -207 331 -211 l 340 -289 m 243 358 q 216 344 228 347 q 179 332 204 340 q 131 306 143 321 q 119 260 119 290 l 119 132 q 174 82 119 82 q 217 94 201 82 q 243 132 232 107 l 243 358 z "},"Ć":{"ha":378,"x_min":26,"x_max":351,"o":"m 26 0 m 253 376 l 351 376 l 351 168 q 192 -6 351 -6 q 67 40 108 -6 q 26 171 26 85 l 26 753 q 189 928 26 928 q 310 886 268 928 q 351 753 351 844 l 351 592 l 253 592 l 253 757 q 192 831 253 831 q 131 757 131 831 l 131 164 q 190 90 131 90 q 253 163 253 90 l 253 376 m 147 946 l 108 986 l 263 1171 l 315 1110 l 147 946 z "},"ć":{"ha":369,"x_min":29,"x_max":340,"o":"m 29 0 m 244 247 l 340 247 l 340 151 q 303 33 340 72 q 185 -6 267 -6 q 29 151 29 -6 l 29 519 q 186 676 29 676 q 303 638 267 676 q 340 519 340 599 l 340 426 l 244 426 l 244 519 q 186 586 244 586 q 126 519 126 586 l 126 151 q 186 85 126 85 q 244 151 244 85 l 244 247 m 142 701 l 103 742 l 257 926 l 310 865 l 142 701 z "},"Ċ":{"ha":378,"x_min":26,"x_max":351,"o":"m 26 0 m 253 376 l 351 376 l 351 168 q 192 -6 351 -6 q 67 40 108 -6 q 26 171 26 85 l 26 753 q 189 928 26 928 q 310 886 268 928 q 351 753 351 844 l 351 592 l 253 592 l 253 757 q 192 831 253 831 q 131 757 131 831 l 131 164 q 190 90 131 90 q 253 163 253 90 l 253 376 m 139 988 l 139 1117 l 239 1117 l 239 988 l 139 988 z "},"ċ":{"ha":369,"x_min":29,"x_max":340,"o":"m 29 0 m 244 247 l 340 247 l 340 151 q 303 33 340 72 q 185 -6 267 -6 q 29 151 29 -6 l 29 519 q 186 676 29 676 q 303 638 267 676 q 340 519 340 599 l 340 426 l 244 426 l 244 519 q 186 586 244 586 q 126 519 126 586 l 126 151 q 186 85 126 85 q 244 151 244 85 l 244 247 m 135 743 l 135 872 l 235 872 l 235 743 l 135 743 z "},"Č":{"ha":378,"x_min":26,"x_max":351,"o":"m 26 0 m 253 376 l 351 376 l 351 168 q 192 -6 351 -6 q 67 40 108 -6 q 26 171 26 85 l 26 753 q 189 928 26 928 q 310 886 268 928 q 351 753 351 844 l 351 592 l 253 592 l 253 757 q 192 831 253 831 q 131 757 131 831 l 131 164 q 190 90 131 90 q 253 163 253 90 l 253 376 m 144 965 l 50 1103 l 94 1138 l 190 1025 l 286 1138 l 329 1103 l 236 965 l 144 965 z "},"č":{"ha":369,"x_min":29,"x_max":340,"o":"m 29 0 m 244 247 l 340 247 l 340 151 q 303 33 340 72 q 185 -6 267 -6 q 29 151 29 -6 l 29 519 q 186 676 29 676 q 303 638 267 676 q 340 519 340 599 l 340 426 l 244 426 l 244 519 q 186 586 244 586 q 126 519 126 586 l 126 151 q 186 85 126 85 q 244 151 244 85 l 244 247 m 140 721 l 46 858 l 90 893 l 186 781 l 282 893 l 325 858 l 232 721 l 140 721 z "},"Ď":{"ha":385,"x_min":26,"x_max":358,"o":"m 26 0 m 26 0 l 26 922 l 199 922 q 358 761 358 922 l 358 171 q 318 42 358 83 q 199 0 278 0 l 26 0 m 192 94 q 240 120 228 94 q 253 192 253 146 l 253 733 q 239 803 253 778 q 185 828 225 828 l 129 828 l 129 94 l 192 94 m 144 965 l 50 1103 l 94 1138 l 190 1025 l 286 1138 l 329 1103 l 236 965 l 144 965 z "},"ď":{"ha":492,"x_min":29,"x_max":479,"o":"m 29 0 m 131 149 q 145 97 131 113 q 188 82 160 82 q 229 99 215 82 q 251 157 243 117 l 251 514 q 231 573 244 556 q 189 590 218 590 q 146 574 161 590 q 131 522 131 558 l 131 149 m 258 0 l 256 68 l 250 68 q 146 -6 219 -6 q 60 28 90 -6 q 29 125 29 63 l 29 547 q 60 643 29 610 q 146 676 92 676 q 204 662 181 676 q 243 614 228 647 l 249 614 l 249 933 l 347 933 l 347 0 l 258 0 m 376 644 q 410 679 400 658 q 421 735 421 700 l 421 790 l 376 790 l 376 933 l 479 933 l 479 747 q 453 637 479 676 q 376 585 426 597 l 376 644 z "},"đ":{"ha":376,"x_min":29,"x_max":376,"o":"m 258 0 l 256 68 l 250 68 q 146 -6 219 -6 q 60 28 90 -6 q 29 125 29 63 l 29 547 q 60 643 29 610 q 146 676 92 676 q 204 662 181 676 q 243 614 228 647 l 249 614 l 249 769 l 131 769 l 131 833 l 249 833 l 249 933 l 347 933 l 347 833 l 376 833 l 376 769 l 347 769 l 347 0 l 258 0 m 131 149 q 145 97 131 113 q 188 82 160 82 q 229 99 215 82 q 251 157 243 117 l 251 514 q 231 573 244 556 q 189 590 218 590 q 146 574 161 590 q 131 522 131 558 l 131 149 z "},"Ē":{"ha":303,"x_min":26,"x_max":288,"o":"m 26 0 m 26 0 l 26 922 l 279 922 l 279 828 l 129 828 l 129 531 l 265 531 l 265 436 l 129 436 l 129 94 l 288 94 l 288 0 l 26 0 m 32 1004 l 32 1068 l 279 1068 l 279 1004 l 32 1004 z "},"ē":{"ha":374,"x_min":29,"x_max":344,"o":"m 29 0 m 344 151 q 185 -6 344 -6 q 29 151 29 -6 l 29 519 q 186 676 29 676 q 344 519 344 676 l 344 311 l 126 311 l 126 149 q 186 82 126 82 q 246 149 246 82 l 246 231 l 344 231 l 344 151 m 246 521 q 186 589 246 589 q 126 521 126 589 l 126 383 l 246 383 l 246 521 m 64 760 l 64 824 l 311 824 l 311 760 l 64 760 z "},"Ĕ":{"ha":303,"x_min":19,"x_max":306,"o":"m 19 0 m 26 0 l 26 922 l 279 922 l 279 828 l 129 828 l 129 531 l 265 531 l 265 436 l 129 436 l 129 94 l 288 94 l 288 0 l 26 0 m 161 946 q 59 993 99 946 q 19 1129 19 1040 l 92 1129 q 111 1039 94 1067 q 161 1011 128 1011 q 212 1039 194 1011 q 231 1129 229 1067 l 306 1129 q 265 993 306 1040 q 161 946 225 946 z "},"ĕ":{"ha":374,"x_min":29,"x_max":344,"o":"m 29 0 m 344 151 q 185 -6 344 -6 q 29 151 29 -6 l 29 519 q 186 676 29 676 q 344 519 344 676 l 344 311 l 126 311 l 126 149 q 186 82 126 82 q 246 149 246 82 l 246 231 l 344 231 l 344 151 m 246 521 q 186 589 246 589 q 126 521 126 589 l 126 383 l 246 383 l 246 521 m 186 701 q 84 749 124 701 q 44 885 44 796 l 117 885 q 136 794 119 822 q 186 767 153 767 q 237 794 219 767 q 256 885 254 822 l 331 885 q 290 749 331 796 q 186 701 250 701 z "},"Ė":{"ha":303,"x_min":26,"x_max":288,"o":"m 26 0 m 26 0 l 26 922 l 279 922 l 279 828 l 129 828 l 129 531 l 265 531 l 265 436 l 129 436 l 129 94 l 288 94 l 288 0 l 26 0 m 108 988 l 108 1117 l 208 1117 l 208 988 l 108 988 z "},"ė":{"ha":374,"x_min":29,"x_max":344,"o":"m 29 0 m 344 151 q 185 -6 344 -6 q 29 151 29 -6 l 29 519 q 186 676 29 676 q 344 519 344 676 l 344 311 l 126 311 l 126 149 q 186 82 126 82 q 246 149 246 82 l 246 231 l 344 231 l 344 151 m 246 521 q 186 589 246 589 q 126 521 126 589 l 126 383 l 246 383 l 246 521 m 135 743 l 135 872 l 235 872 l 235 743 l 135 743 z "},"Ę":{"ha":303,"x_min":26,"x_max":288,"o":"m 285 -289 q 254 -299 272 -296 q 217 -303 236 -303 q 142 -281 167 -303 q 118 -201 118 -258 l 118 -161 q 148 -65 118 -103 q 231 -7 178 -28 l 231 0 l 26 0 l 26 922 l 279 922 l 279 828 l 129 828 l 129 531 l 265 531 l 265 436 l 129 436 l 129 94 l 288 94 l 288 0 q 188 -133 188 -50 l 188 -171 q 199 -205 188 -196 q 238 -214 211 -214 q 262 -212 249 -214 q 285 -207 275 -211 l 285 -289 z "},"ę":{"ha":374,"x_min":29,"x_max":344,"o":"m 251 -289 q 221 -299 239 -296 q 183 -303 203 -303 q 109 -281 133 -303 q 85 -201 85 -258 l 85 -161 q 109 -73 85 -110 q 175 -12 133 -36 l 175 -6 q 29 151 29 -1 l 29 519 q 186 676 29 676 q 344 519 344 676 l 344 311 l 126 311 l 126 149 q 186 82 126 82 q 246 149 246 82 l 246 231 l 344 231 l 344 151 q 337 88 344 113 q 315 47 329 63 q 284 20 301 31 q 249 1 267 10 q 218 -15 235 -6 q 188 -40 201 -25 q 164 -78 174 -56 q 154 -133 154 -101 l 154 -171 q 166 -205 154 -196 q 206 -214 178 -214 q 229 -212 217 -214 q 251 -207 242 -211 l 251 -289 m 246 521 q 186 589 246 589 q 126 521 126 589 l 126 383 l 246 383 l 246 521 z "},"Ě":{"ha":303,"x_min":15,"x_max":294,"o":"m 15 0 m 26 0 l 26 922 l 279 922 l 279 828 l 129 828 l 129 531 l 265 531 l 265 436 l 129 436 l 129 94 l 288 94 l 288 0 l 26 0 m 110 965 l 15 1103 l 60 1138 l 156 1025 l 251 1138 l 294 1103 l 201 965 l 110 965 z "},"ě":{"ha":374,"x_min":29,"x_max":344,"o":"m 29 0 m 344 151 q 185 -6 344 -6 q 29 151 29 -6 l 29 519 q 186 676 29 676 q 344 519 344 676 l 344 311 l 126 311 l 126 149 q 186 82 126 82 q 246 149 246 82 l 246 231 l 344 231 l 344 151 m 246 521 q 186 589 246 589 q 126 521 126 589 l 126 383 l 246 383 l 246 521 m 142 721 l 47 858 l 92 893 l 188 781 l 283 893 l 326 858 l 233 721 l 142 721 z "},"Ğ":{"ha":378,"x_min":26,"x_max":351,"o":"m 26 0 m 283 0 l 278 49 l 274 49 q 239 10 261 25 q 174 -6 217 -6 q 65 40 103 -6 q 26 171 26 85 l 26 749 q 67 881 26 835 q 188 928 108 928 q 310 881 268 928 q 351 747 351 833 l 351 638 l 253 638 l 253 757 q 190 831 253 831 q 131 757 131 831 l 131 163 q 190 90 131 90 q 253 154 243 90 l 253 386 l 183 386 l 183 479 l 351 479 l 351 0 l 283 0 m 192 946 q 90 993 129 946 q 50 1129 50 1040 l 122 1129 q 142 1039 125 1067 q 192 1011 158 1011 q 242 1039 225 1011 q 261 1129 260 1067 l 336 1129 q 296 993 336 1040 q 192 946 256 946 z "},"ğ":{"ha":376,"x_min":29,"x_max":347,"o":"m 29 0 m 347 -167 q 188 -324 347 -324 q 69 -285 107 -324 q 32 -167 32 -246 l 32 -42 l 128 -42 l 128 -167 q 188 -233 128 -233 q 249 -167 249 -233 l 249 64 l 243 64 q 142 0 214 0 q 56 38 82 0 q 29 151 29 75 l 29 544 q 58 640 29 604 q 146 676 88 676 q 209 658 185 676 q 250 603 233 639 l 256 603 l 258 671 l 347 671 l 347 -167 m 131 174 q 143 111 131 131 q 186 92 156 92 q 233 119 221 92 q 251 186 244 146 l 251 493 q 233 562 244 533 q 188 590 222 590 q 131 522 131 590 l 131 174 m 192 701 q 90 749 129 701 q 50 885 50 796 l 122 885 q 142 794 125 822 q 192 767 158 767 q 242 794 225 767 q 261 885 260 822 l 336 885 q 296 749 336 796 q 192 701 256 701 z "},"Ġ":{"ha":378,"x_min":26,"x_max":351,"o":"m 26 0 m 283 0 l 278 49 l 274 49 q 239 10 261 25 q 174 -6 217 -6 q 65 40 103 -6 q 26 171 26 85 l 26 749 q 67 881 26 835 q 188 928 108 928 q 310 881 268 928 q 351 747 351 833 l 351 638 l 253 638 l 253 757 q 190 831 253 831 q 131 757 131 831 l 131 163 q 190 90 131 90 q 253 154 243 90 l 253 386 l 183 386 l 183 479 l 351 479 l 351 0 l 283 0 m 140 988 l 140 1117 l 240 1117 l 240 988 l 140 988 z "},"ġ":{"ha":376,"x_min":29,"x_max":347,"o":"m 29 0 m 347 -167 q 188 -324 347 -324 q 69 -285 107 -324 q 32 -167 32 -246 l 32 -42 l 128 -42 l 128 -167 q 188 -233 128 -233 q 249 -167 249 -233 l 249 64 l 243 64 q 142 0 214 0 q 56 38 82 0 q 29 151 29 75 l 29 544 q 58 640 29 604 q 146 676 88 676 q 209 658 185 676 q 250 603 233 639 l 256 603 l 258 671 l 347 671 l 347 -167 m 131 174 q 143 111 131 131 q 186 92 156 92 q 233 119 221 92 q 251 186 244 146 l 251 493 q 233 562 244 533 q 188 590 222 590 q 131 522 131 590 l 131 174 m 138 743 l 138 872 l 238 872 l 238 743 l 138 743 z "},"Ģ":{"ha":378,"x_min":26,"x_max":351,"o":"m 26 0 m 283 0 l 278 49 l 274 49 q 239 10 261 25 q 174 -6 217 -6 q 65 40 103 -6 q 26 171 26 85 l 26 749 q 67 881 26 835 q 188 928 108 928 q 310 881 268 928 q 351 747 351 833 l 351 638 l 253 638 l 253 757 q 190 831 253 831 q 131 757 131 831 l 131 163 q 190 90 131 90 q 253 154 243 90 l 253 386 l 183 386 l 183 479 l 351 479 l 351 0 l 283 0 m 147 -254 q 181 -236 169 -249 q 192 -194 192 -224 l 192 -154 l 146 -154 l 146 -25 l 236 -25 l 236 -169 q 215 -265 236 -235 q 147 -303 194 -296 l 147 -254 z "},"ģ":{"ha":376,"x_min":29,"x_max":347,"o":"m 29 0 m 347 -167 q 188 -324 347 -324 q 69 -285 107 -324 q 32 -167 32 -246 l 32 -42 l 128 -42 l 128 -167 q 188 -233 128 -233 q 249 -167 249 -233 l 249 64 l 243 64 q 142 0 214 0 q 56 38 82 0 q 29 151 29 75 l 29 544 q 58 640 29 604 q 146 676 88 676 q 209 658 185 676 q 250 603 233 639 l 256 603 l 258 671 l 347 671 l 347 -167 m 131 174 q 143 111 131 131 q 186 92 156 92 q 233 119 221 92 q 251 186 244 146 l 251 493 q 233 562 244 533 q 188 590 222 590 q 131 522 131 590 l 131 174 m 233 972 q 200 954 211 967 q 189 912 189 942 l 189 872 l 235 872 l 235 743 l 144 743 l 144 887 q 165 983 144 953 q 233 1021 186 1014 l 233 972 z "},"Ħ":{"ha":389,"x_min":-1,"x_max":389,"o":"m 257 0 l 257 443 l 132 443 l 132 0 l 26 0 l 26 692 l -1 692 l -1 756 l 26 756 l 26 922 l 132 922 l 132 756 l 257 756 l 257 922 l 363 922 l 363 756 l 389 756 l 389 692 l 363 692 l 363 0 l 257 0 m 257 538 l 257 692 l 132 692 l 132 538 l 257 538 z "},"ħ":{"ha":379,"x_min":0,"x_max":351,"o":"m 129 769 l 129 610 l 135 610 q 239 676 163 676 q 326 638 301 676 q 351 540 351 599 l 351 0 l 250 0 l 250 526 q 194 589 250 589 q 149 570 165 589 q 129 507 132 551 l 129 0 l 29 0 l 29 769 l 0 769 l 0 833 l 29 833 l 29 933 l 129 933 l 129 833 l 246 833 l 246 769 l 129 769 z "},"Ĩ":{"ha":211,"x_min":-37,"x_max":247,"o":"m 0 0 m 53 0 l 53 922 l 158 922 l 158 0 l 53 0 m 247 1026 q 219 975 239 992 q 171 958 199 958 q 138 964 153 958 q 108 977 122 969 q 78 990 93 985 q 49 996 64 996 q 24 990 33 996 q 7 964 14 983 l -37 990 q -8 1041 -29 1025 q 39 1057 13 1057 q 72 1051 57 1057 q 102 1038 88 1046 q 131 1025 117 1031 q 163 1019 146 1019 q 204 1051 193 1019 l 247 1026 z "},"ĩ":{"ha":253,"x_min":-17,"x_max":268,"o":"m 0 0 m 268 792 q 240 740 260 757 q 192 724 219 724 q 158 729 174 724 q 128 742 143 735 q 99 756 114 750 q 69 761 85 761 q 44 755 54 761 q 28 729 35 749 l -17 756 q 13 806 -8 790 q 60 822 33 822 q 93 817 78 822 q 123 803 108 811 q 152 790 138 796 q 183 785 167 785 q 225 817 214 785 l 268 792 m 75 0 l 75 671 l 175 671 l 175 0 l 75 0 z "},"Ī":{"ha":215,"x_min":-15,"x_max":232,"o":"m 0 0 m 54 0 l 54 922 l 160 922 l 160 0 l 54 0 m -15 994 l -15 1058 l 232 1058 l 232 994 l -15 994 z "},"ī":{"ha":208,"x_min":-19,"x_max":228,"o":"m 0 0 m -19 760 l -19 824 l 228 824 l 228 760 l -19 760 m 53 0 l 53 671 l 153 671 l 153 0 l 53 0 z "},"Ĭ":{"ha":218,"x_min":-33,"x_max":253,"o":"m 0 0 m 56 0 l 56 922 l 161 922 l 161 0 l 56 0 m 108 946 q 6 993 46 946 q -33 1129 -33 1040 l 39 1129 q 58 1039 42 1067 q 108 1011 75 1011 q 159 1039 142 1011 q 178 1129 176 1067 l 253 1129 q 213 993 253 1040 q 108 946 172 946 z "},"ĭ":{"ha":246,"x_min":-21,"x_max":265,"o":"m 0 0 m 121 701 q 19 749 58 701 q -21 885 -21 796 l 51 885 q 71 794 54 822 q 121 767 88 767 q 172 794 154 767 q 190 885 189 822 l 265 885 q 225 749 265 796 q 121 701 185 701 m 72 0 l 72 671 l 172 671 l 172 0 l 72 0 z "},"Į":{"ha":168,"x_min":-28,"x_max":142,"o":"m 139 -289 q 108 -299 126 -296 q 71 -303 90 -303 q -3 -281 21 -303 q -28 -201 -28 -258 l -28 -161 q 3 -65 -28 -103 q 86 -7 33 -26 l 86 0 l 36 0 l 36 922 l 142 922 l 142 0 q 42 -133 42 -50 l 42 -171 q 53 -205 42 -196 q 92 -214 65 -214 q 116 -212 103 -214 q 139 -207 129 -211 l 139 -289 z "},"į":{"ha":168,"x_min":-29,"x_max":139,"o":"m 138 -289 q 69 -303 111 -303 q -5 -281 19 -303 q -29 -201 -29 -258 l -29 -161 q 0 -65 -29 -103 q 82 -7 29 -28 l 82 0 l 39 0 l 39 671 l 139 671 l 139 0 q 40 -133 40 -50 l 40 -171 q 52 -205 40 -196 q 89 -214 64 -214 q 115 -212 101 -214 q 138 -207 128 -211 l 138 -289 m 39 743 l 39 872 l 139 872 l 139 743 l 39 743 z "},"İ":{"ha":158,"x_min":26,"x_max":132,"o":"m 26 0 m 26 0 l 26 922 l 132 922 l 132 0 l 26 0 m 29 978 l 29 1107 l 129 1107 l 129 978 l 29 978 z "},"ı":{"ha":158,"x_min":29,"x_max":129,"o":"m 29 0 l 29 671 l 129 671 l 129 0 l 29 0 z "},"Ĳ":{"ha":518,"x_min":26,"x_max":492,"o":"m 26 0 m 26 0 l 26 922 l 132 922 l 132 0 l 26 0 m 389 922 l 492 922 l 492 171 q 451 40 492 85 q 328 -6 410 -6 q 167 168 167 -6 l 167 338 l 265 338 l 265 163 q 326 90 265 90 q 389 163 389 90 l 389 922 z "},"ĳ":{"ha":356,"x_min":29,"x_max":326,"o":"m 29 0 l 29 671 l 129 671 l 129 0 l 29 0 m 29 743 l 29 872 l 129 872 l 129 743 l 29 743 m 31 -72 l 131 -72 l 131 -172 q 178 -233 131 -233 q 225 -172 225 -233 l 225 671 l 326 671 l 326 -172 q 290 -285 326 -247 q 176 -324 254 -324 q 65 -285 100 -324 q 31 -172 31 -247 l 31 -72 m 225 743 l 225 872 l 326 872 l 326 743 l 225 743 z "},"Ķ":{"ha":383,"x_min":26,"x_max":374,"o":"m 26 0 m 267 0 l 181 394 l 176 394 l 133 276 l 133 0 l 26 0 l 26 922 l 133 922 l 133 536 l 139 536 q 153 584 144 557 q 176 654 161 611 q 213 762 190 697 q 268 922 235 826 l 374 922 l 253 561 l 372 0 l 267 0 m 140 -254 q 174 -236 163 -249 q 185 -194 185 -224 l 185 -154 l 139 -154 l 139 -25 l 229 -25 l 229 -169 q 208 -265 229 -235 q 140 -303 188 -296 l 140 -254 z "},"ķ":{"ha":375,"x_min":29,"x_max":367,"o":"m 29 0 m 260 0 l 176 278 l 171 278 l 129 189 l 129 0 l 29 0 l 29 933 l 129 933 l 129 388 l 135 388 q 144 412 139 397 q 163 456 150 426 q 198 537 175 486 q 258 671 221 588 l 367 671 l 249 394 l 365 0 l 260 0 m 139 -254 q 172 -236 161 -249 q 183 -194 183 -224 l 183 -154 l 138 -154 l 138 -25 l 228 -25 l 228 -169 q 207 -265 228 -235 q 139 -303 186 -296 l 139 -254 z "},"Ĺ":{"ha":311,"x_min":19,"x_max":293,"o":"m 19 0 m 26 0 l 26 922 l 132 922 l 132 96 l 293 96 l 293 0 l 26 0 m 58 946 l 19 986 l 174 1171 l 226 1110 l 58 946 z "},"ĺ":{"ha":171,"x_min":8,"x_max":215,"o":"m 8 0 m 29 0 l 29 933 l 129 933 l 129 0 l 29 0 m 47 946 l 8 986 l 163 1171 l 215 1110 l 47 946 z "},"Ļ":{"ha":311,"x_min":26,"x_max":293,"o":"m 26 0 m 26 0 l 26 922 l 132 922 l 132 96 l 293 96 l 293 0 l 26 0 m 111 -254 q 144 -236 133 -249 q 156 -194 156 -224 l 156 -154 l 110 -154 l 110 -25 l 200 -25 l 200 -169 q 179 -265 200 -235 q 111 -303 158 -296 l 111 -254 z "},"ļ":{"ha":158,"x_min":29,"x_max":129,"o":"m 29 0 m 29 0 l 29 933 l 129 933 l 129 0 l 29 0 m 35 -254 q 68 -236 57 -249 q 79 -194 79 -224 l 79 -154 l 33 -154 l 33 -25 l 124 -25 l 124 -169 q 103 -265 124 -235 q 35 -303 82 -296 l 35 -254 z "},"Ľ":{"ha":322,"x_min":26,"x_max":293,"o":"m 26 0 m 26 0 l 26 922 l 132 922 l 132 96 l 293 96 l 293 0 l 26 0 m 182 644 q 216 679 206 658 q 226 735 226 700 l 226 790 l 182 790 l 182 933 l 285 933 l 285 747 q 258 637 285 676 q 182 585 232 597 l 182 644 z "},"ľ":{"ha":274,"x_min":29,"x_max":261,"o":"m 29 0 m 29 0 l 29 933 l 129 933 l 129 0 l 29 0 m 158 644 q 192 679 182 658 q 203 735 203 700 l 203 790 l 158 790 l 158 933 l 261 933 l 261 747 q 235 637 261 676 q 158 585 208 597 l 158 644 z "},"Ł":{"ha":311,"x_min":26,"x_max":293,"o":"m 26 0 l 26 922 l 132 922 l 132 669 l 257 732 l 257 642 l 132 579 l 132 96 l 293 96 l 293 0 l 26 0 z "},"ł":{"ha":217,"x_min":6,"x_max":211,"o":"m 58 0 l 58 406 l 6 383 l 6 461 l 58 483 l 58 933 l 158 933 l 158 526 l 211 549 l 211 471 l 158 449 l 158 0 l 58 0 z "},"Ń":{"ha":408,"x_min":26,"x_max":382,"o":"m 26 0 m 254 0 l 118 722 l 113 722 q 115 676 114 700 q 116 621 115 651 q 117 551 117 590 q 117 461 117 513 l 117 0 l 26 0 l 26 922 l 168 922 l 289 232 l 294 232 q 292 290 293 260 q 291 358 292 321 q 290 440 290 394 q 290 543 290 485 l 290 922 l 382 922 l 382 0 l 254 0 m 163 946 l 124 986 l 278 1171 l 331 1110 l 163 946 z "},"ń":{"ha":379,"x_min":29,"x_max":351,"o":"m 29 0 m 250 0 l 250 526 q 194 590 250 590 q 153 575 167 590 q 129 526 139 560 l 129 0 l 29 0 l 29 671 l 122 671 l 125 603 l 131 603 q 236 676 163 676 q 320 644 289 676 q 351 546 351 611 l 351 0 l 250 0 m 146 701 l 107 742 l 261 926 l 314 865 l 146 701 z "},"Ņ":{"ha":408,"x_min":26,"x_max":382,"o":"m 26 0 m 254 0 l 118 722 l 113 722 q 115 676 114 700 q 116 621 115 651 q 117 551 117 590 q 117 461 117 513 l 117 0 l 26 0 l 26 922 l 168 922 l 289 232 l 294 232 q 292 290 293 260 q 291 358 292 321 q 290 440 290 394 q 290 543 290 485 l 290 922 l 382 922 l 382 0 l 254 0 m 154 -254 q 188 -236 176 -249 q 199 -194 199 -224 l 199 -154 l 153 -154 l 153 -25 l 243 -25 l 243 -169 q 222 -265 243 -235 q 154 -303 201 -296 l 154 -254 z "},"ņ":{"ha":379,"x_min":29,"x_max":351,"o":"m 29 0 m 250 0 l 250 526 q 194 590 250 590 q 153 575 167 590 q 129 526 139 560 l 129 0 l 29 0 l 29 671 l 122 671 l 125 603 l 131 603 q 236 676 163 676 q 320 644 289 676 q 351 546 351 611 l 351 0 l 250 0 m 144 -254 q 178 -236 167 -249 q 189 -194 189 -224 l 189 -154 l 143 -154 l 143 -25 l 233 -25 l 233 -169 q 213 -265 233 -235 q 144 -303 192 -296 l 144 -254 z "},"Ň":{"ha":408,"x_min":26,"x_max":382,"o":"m 26 0 m 254 0 l 118 722 l 113 722 q 115 676 114 700 q 116 621 115 651 q 117 551 117 590 q 117 461 117 513 l 117 0 l 26 0 l 26 922 l 168 922 l 289 232 l 294 232 q 292 290 293 260 q 291 358 292 321 q 290 440 290 394 q 290 543 290 485 l 290 922 l 382 922 l 382 0 l 254 0 m 160 965 l 65 1103 l 110 1138 l 206 1025 l 301 1138 l 344 1103 l 251 965 l 160 965 z "},"ň":{"ha":379,"x_min":29,"x_max":351,"o":"m 29 0 m 250 0 l 250 526 q 194 590 250 590 q 153 575 167 590 q 129 526 139 560 l 129 0 l 29 0 l 29 671 l 122 671 l 125 603 l 131 603 q 236 676 163 676 q 320 644 289 676 q 351 546 351 611 l 351 0 l 250 0 m 144 721 l 50 858 l 94 893 l 190 781 l 286 893 l 329 858 l 236 721 l 144 721 z "},"Ŋ":{"ha":408,"x_min":26,"x_max":382,"o":"m 382 -165 q 339 -285 382 -246 q 221 -324 296 -324 q 195 -323 204 -324 q 179 -319 186 -322 l 179 -229 q 192 -233 185 -232 q 207 -233 200 -233 q 265 -165 265 -233 l 265 -60 l 118 722 l 113 722 q 115 676 114 700 q 116 621 115 651 q 117 551 117 590 q 117 461 117 513 l 117 0 l 26 0 l 26 922 l 168 922 l 289 232 l 294 232 q 292 290 293 260 q 291 358 292 321 q 290 440 290 394 q 290 543 290 485 l 290 922 l 382 922 l 382 -165 l 382 -165 z "},"ŋ":{"ha":379,"x_min":29,"x_max":351,"o":"m 168 -231 q 181 -233 175 -233 q 194 -233 188 -233 q 250 -167 250 -233 l 250 526 q 194 590 250 590 q 153 575 167 590 q 129 526 139 560 l 129 0 l 29 0 l 29 671 l 122 671 l 125 603 l 131 603 q 236 676 163 676 q 320 644 289 676 q 351 546 351 611 l 351 -167 q 313 -285 351 -246 q 207 -324 274 -324 q 168 -319 181 -324 l 168 -231 z "},"Ō":{"ha":376,"x_min":22,"x_max":354,"o":"m 22 0 m 354 168 q 311 38 354 81 q 189 -6 268 -6 q 65 40 107 -6 q 22 171 22 85 l 22 749 q 65 881 22 835 q 188 928 108 928 q 310 881 267 928 q 354 747 354 833 l 354 168 m 250 757 q 188 831 250 831 q 126 757 126 831 l 126 163 q 189 90 126 90 q 250 163 250 90 l 250 757 m 65 1004 l 65 1068 l 313 1068 l 313 1004 l 65 1004 z "},"ō":{"ha":372,"x_min":29,"x_max":343,"o":"m 29 0 m 343 151 q 305 32 343 69 q 186 -6 267 -6 q 67 32 106 -6 q 29 151 29 69 l 29 519 q 67 639 29 601 q 186 676 106 676 q 305 639 267 676 q 343 519 343 601 l 343 151 m 246 519 q 186 586 246 586 q 126 519 126 586 l 126 151 q 186 85 126 85 q 246 151 246 85 l 246 519 m 64 760 l 64 824 l 311 824 l 311 760 l 64 760 z "},"Ŏ":{"ha":376,"x_min":22,"x_max":354,"o":"m 22 0 m 354 168 q 311 38 354 81 q 189 -6 268 -6 q 65 40 107 -6 q 22 171 22 85 l 22 749 q 65 881 22 835 q 188 928 108 928 q 310 881 267 928 q 354 747 354 833 l 354 168 m 250 757 q 188 831 250 831 q 126 757 126 831 l 126 163 q 189 90 126 90 q 250 163 250 90 l 250 757 m 188 946 q 85 993 125 946 q 46 1129 46 1040 l 118 1129 q 138 1039 121 1067 q 188 1011 154 1011 q 238 1039 221 1011 q 257 1129 256 1067 l 332 1129 q 292 993 332 1040 q 188 946 251 946 z "},"ŏ":{"ha":372,"x_min":29,"x_max":343,"o":"m 29 0 m 343 151 q 305 32 343 69 q 186 -6 267 -6 q 67 32 106 -6 q 29 151 29 69 l 29 519 q 67 639 29 601 q 186 676 106 676 q 305 639 267 676 q 343 519 343 601 l 343 151 m 246 519 q 186 586 246 586 q 126 519 126 586 l 126 151 q 186 85 126 85 q 246 151 246 85 l 246 519 m 186 701 q 84 749 124 701 q 44 885 44 796 l 117 885 q 136 794 119 822 q 186 767 153 767 q 237 794 219 767 q 256 885 254 822 l 331 885 q 290 749 331 796 q 186 701 250 701 z "},"Ő":{"ha":376,"x_min":22,"x_max":354,"o":"m 22 0 m 354 168 q 311 38 354 81 q 189 -6 268 -6 q 65 40 107 -6 q 22 171 22 85 l 22 749 q 65 881 22 835 q 188 928 108 928 q 310 881 267 928 q 354 747 354 833 l 354 168 m 250 757 q 188 831 250 831 q 126 757 126 831 l 126 163 q 189 90 126 90 q 250 163 250 90 l 250 757 m 69 969 l 161 1171 l 225 1133 l 115 946 l 69 969 m 193 969 l 286 1171 l 350 1133 l 239 946 l 193 969 z "},"ő":{"ha":372,"x_min":29,"x_max":347,"o":"m 29 0 m 343 151 q 305 32 343 69 q 186 -6 267 -6 q 67 32 106 -6 q 29 151 29 69 l 29 519 q 67 639 29 601 q 186 676 106 676 q 305 639 267 676 q 343 519 343 601 l 343 151 m 246 519 q 186 586 246 586 q 126 519 126 586 l 126 151 q 186 85 126 85 q 246 151 246 85 l 246 519 m 67 725 l 158 926 l 222 889 l 113 701 l 67 725 m 190 725 l 283 926 l 347 889 l 236 701 l 190 725 z "},"Œ":{"ha":507,"x_min":22,"x_max":490,"o":"m 243 0 q 189 -6 221 -6 q 65 40 107 -6 q 22 171 22 85 l 22 749 q 65 881 22 835 q 188 928 108 928 q 214 926 201 928 q 238 922 226 925 l 483 922 l 483 828 l 332 828 q 354 746 354 794 l 354 531 l 468 531 l 468 436 l 354 436 l 354 168 q 333 94 354 121 l 490 94 l 490 0 l 243 0 m 250 757 q 188 831 250 831 q 126 757 126 831 l 126 163 q 189 90 126 90 q 250 163 250 90 l 250 757 z "},"œ":{"ha":582,"x_min":29,"x_max":556,"o":"m 556 151 q 396 -6 556 -6 q 292 24 326 -6 q 186 -6 256 -6 q 67 32 106 -6 q 29 151 29 69 l 29 519 q 67 639 29 601 q 186 676 106 676 q 292 646 257 676 q 396 676 326 676 q 556 519 556 676 l 556 311 l 336 311 l 336 149 q 396 82 336 82 q 456 149 456 82 l 456 231 l 556 231 l 556 151 m 246 519 q 186 586 246 586 q 126 519 126 586 l 126 151 q 186 85 126 85 q 246 151 246 85 l 246 519 m 457 521 q 396 589 457 589 q 336 521 336 589 l 336 383 l 457 383 l 457 521 z "},"Ŕ":{"ha":378,"x_min":26,"x_max":356,"o":"m 26 0 m 26 0 l 26 922 l 221 922 q 324 885 294 922 q 353 782 353 849 l 353 571 q 283 460 353 476 l 283 454 q 337 422 318 447 q 356 343 356 396 l 356 0 l 253 0 l 253 351 q 242 396 253 382 q 200 410 231 410 l 129 410 l 129 0 l 26 0 m 253 769 q 197 828 253 828 l 129 828 l 129 496 l 199 496 q 238 510 224 496 q 253 561 253 525 l 253 769 m 136 946 l 97 986 l 251 1171 l 304 1110 l 136 946 z "},"ŕ":{"ha":288,"x_min":29,"x_max":274,"o":"m 29 0 m 29 0 l 29 671 l 122 671 l 125 593 l 131 593 q 170 655 146 633 q 232 676 194 676 q 271 668 254 676 l 271 576 q 228 586 254 586 q 162 563 185 586 q 129 476 139 539 l 129 0 l 29 0 m 106 701 l 67 742 l 221 926 l 274 865 l 106 701 z "},"Ŗ":{"ha":378,"x_min":26,"x_max":356,"o":"m 26 0 m 26 0 l 26 922 l 221 922 q 324 885 294 922 q 353 782 353 849 l 353 571 q 283 460 353 476 l 283 454 q 337 422 318 447 q 356 343 356 396 l 356 0 l 253 0 l 253 351 q 242 396 253 382 q 200 410 231 410 l 129 410 l 129 0 l 26 0 m 253 769 q 197 828 253 828 l 129 828 l 129 496 l 199 496 q 238 510 224 496 q 253 561 253 525 l 253 769 m 143 -254 q 176 -236 165 -249 q 188 -194 188 -224 l 188 -154 l 142 -154 l 142 -25 l 232 -25 l 232 -169 q 211 -265 232 -235 q 143 -303 190 -296 l 143 -254 z "},"ŗ":{"ha":288,"x_min":29,"x_max":271,"o":"m 29 0 m 29 0 l 29 671 l 122 671 l 125 593 l 131 593 q 170 655 146 633 q 232 676 194 676 q 271 668 254 676 l 271 576 q 228 586 254 586 q 162 563 185 586 q 129 476 139 539 l 129 0 l 29 0 m 33 -254 q 67 -236 56 -249 q 78 -194 78 -224 l 78 -154 l 32 -154 l 32 -25 l 122 -25 l 122 -169 q 101 -265 122 -235 q 33 -303 81 -296 l 33 -254 z "},"Ř":{"ha":378,"x_min":26,"x_max":356,"o":"m 26 0 m 26 0 l 26 922 l 221 922 q 324 885 294 922 q 353 782 353 849 l 353 571 q 283 460 353 476 l 283 454 q 337 422 318 447 q 356 343 356 396 l 356 0 l 253 0 l 253 351 q 242 396 253 382 q 200 410 231 410 l 129 410 l 129 0 l 26 0 m 253 769 q 197 828 253 828 l 129 828 l 129 496 l 199 496 q 238 510 224 496 q 253 561 253 525 l 253 769 m 138 965 l 43 1103 l 88 1138 l 183 1025 l 279 1138 l 322 1103 l 229 965 l 138 965 z "},"ř":{"ha":288,"x_min":8,"x_max":288,"o":"m 8 0 m 29 0 l 29 671 l 122 671 l 125 593 l 131 593 q 170 655 146 633 q 232 676 194 676 q 271 668 254 676 l 271 576 q 228 586 254 586 q 162 563 185 586 q 129 476 139 539 l 129 0 l 29 0 m 103 721 l 8 858 l 53 893 l 149 781 l 244 893 l 288 858 l 194 721 l 103 721 z "},"Ś":{"ha":392,"x_min":22,"x_max":368,"o":"m 22 0 m 258 640 l 258 758 q 242 811 258 792 q 193 831 226 831 q 145 813 161 831 q 129 768 129 796 l 129 669 q 137 610 129 629 q 167 571 144 592 q 206 536 185 553 q 248 504 226 519 q 289 473 269 489 q 322 442 308 457 q 357 385 346 417 q 368 301 368 354 l 368 167 q 328 38 368 82 q 196 -6 288 -6 q 63 40 104 -6 q 22 174 22 85 l 22 276 l 121 276 l 121 165 q 192 90 121 90 q 258 158 258 90 l 258 275 q 249 346 258 324 q 215 392 240 368 q 140 456 178 428 q 72 522 101 485 q 26 675 26 582 l 26 769 q 66 884 26 840 q 192 928 106 928 q 269 915 238 928 q 320 877 301 901 q 347 819 339 853 q 356 747 356 786 l 356 640 l 258 640 m 149 946 l 110 986 l 264 1171 l 317 1110 l 149 946 z "},"ś":{"ha":368,"x_min":25,"x_max":343,"o":"m 25 0 m 243 465 l 243 543 q 185 594 243 594 q 125 549 125 594 l 125 474 q 131 438 125 450 q 161 411 138 426 q 226 374 193 389 q 290 336 260 358 q 330 290 317 317 q 343 215 343 264 l 343 128 q 306 27 343 60 q 188 -6 268 -6 q 63 30 101 -6 q 25 133 25 65 l 25 215 l 119 215 l 119 131 q 134 90 119 103 q 183 76 149 76 q 243 126 243 76 l 243 213 q 235 249 243 235 q 200 282 228 263 q 174 297 190 288 q 140 318 158 307 q 103 341 121 329 q 72 364 85 353 q 40 410 49 385 q 31 474 31 436 l 31 557 q 69 644 31 613 q 182 676 107 676 q 299 640 260 676 q 338 539 338 604 l 338 465 l 243 465 m 139 701 l 100 742 l 254 926 l 307 865 l 139 701 z "},"Ş":{"ha":392,"x_min":22,"x_max":368,"o":"m 22 0 m 258 640 l 258 758 q 242 811 258 792 q 193 831 226 831 q 145 813 161 831 q 129 768 129 796 l 129 669 q 137 610 129 629 q 167 571 144 592 q 206 536 185 553 q 248 504 226 519 q 289 473 269 489 q 322 442 308 457 q 357 385 346 417 q 368 301 368 354 l 368 167 q 328 38 368 82 q 196 -6 288 -6 q 63 40 104 -6 q 22 174 22 85 l 22 276 l 121 276 l 121 165 q 192 90 121 90 q 258 158 258 90 l 258 275 q 249 346 258 324 q 215 392 240 368 q 140 456 178 428 q 72 522 101 485 q 26 675 26 582 l 26 769 q 66 884 26 840 q 192 928 106 928 q 269 915 238 928 q 320 877 301 901 q 347 819 339 853 q 356 747 356 786 l 356 640 l 258 640 m 149 -254 q 182 -236 171 -249 q 193 -194 193 -224 l 193 -154 l 147 -154 l 147 -25 l 238 -25 l 238 -169 q 217 -265 238 -235 q 149 -303 196 -296 l 149 -254 z "},"ş":{"ha":368,"x_min":25,"x_max":343,"o":"m 25 0 m 243 465 l 243 543 q 185 594 243 594 q 125 549 125 594 l 125 474 q 131 438 125 450 q 161 411 138 426 q 226 374 193 389 q 290 336 260 358 q 330 290 317 317 q 343 215 343 264 l 343 128 q 306 27 343 60 q 188 -6 268 -6 q 63 30 101 -6 q 25 133 25 65 l 25 215 l 119 215 l 119 131 q 134 90 119 103 q 183 76 149 76 q 243 126 243 76 l 243 213 q 235 249 243 235 q 200 282 228 263 q 174 297 190 288 q 140 318 158 307 q 103 341 121 329 q 72 364 85 353 q 40 410 49 385 q 31 474 31 436 l 31 557 q 69 644 31 613 q 182 676 107 676 q 299 640 260 676 q 338 539 338 604 l 338 465 l 243 465 m 140 -254 q 174 -236 163 -249 q 185 -194 185 -224 l 185 -154 l 139 -154 l 139 -25 l 229 -25 l 229 -169 q 208 -265 229 -235 q 140 -303 188 -296 l 140 -254 z "},"Š":{"ha":392,"x_min":22,"x_max":368,"o":"m 22 0 m 258 640 l 258 758 q 242 811 258 792 q 193 831 226 831 q 145 813 161 831 q 129 768 129 796 l 129 669 q 137 610 129 629 q 167 571 144 592 q 206 536 185 553 q 248 504 226 519 q 289 473 269 489 q 322 442 308 457 q 357 385 346 417 q 368 301 368 354 l 368 167 q 328 38 368 82 q 196 -6 288 -6 q 63 40 104 -6 q 22 174 22 85 l 22 276 l 121 276 l 121 165 q 192 90 121 90 q 258 158 258 90 l 258 275 q 249 346 258 324 q 215 392 240 368 q 140 456 178 428 q 72 522 101 485 q 26 675 26 582 l 26 769 q 66 884 26 840 q 192 928 106 928 q 269 915 238 928 q 320 877 301 901 q 347 819 339 853 q 356 747 356 786 l 356 640 l 258 640 m 150 965 l 56 1103 l 100 1138 l 196 1025 l 292 1138 l 335 1103 l 242 965 l 150 965 z "},"š":{"ha":368,"x_min":25,"x_max":343,"o":"m 25 0 m 243 465 l 243 543 q 185 594 243 594 q 125 549 125 594 l 125 474 q 131 438 125 450 q 161 411 138 426 q 226 374 193 389 q 290 336 260 358 q 330 290 317 317 q 343 215 343 264 l 343 128 q 306 27 343 60 q 188 -6 268 -6 q 63 30 101 -6 q 25 133 25 65 l 25 215 l 119 215 l 119 131 q 134 90 119 103 q 183 76 149 76 q 243 126 243 76 l 243 213 q 235 249 243 235 q 200 282 228 263 q 174 297 190 288 q 140 318 158 307 q 103 341 121 329 q 72 364 85 353 q 40 410 49 385 q 31 474 31 436 l 31 557 q 69 644 31 613 q 182 676 107 676 q 299 640 260 676 q 338 539 338 604 l 338 465 l 243 465 m 136 721 l 42 858 l 86 893 l 182 781 l 278 893 l 321 858 l 228 721 l 136 721 z "},"Ţ":{"ha":365,"x_min":18,"x_max":347,"o":"m 18 0 m 129 0 l 129 828 l 18 828 l 18 922 l 347 922 l 347 828 l 233 828 l 233 0 l 129 0 m 138 -254 q 171 -236 160 -249 q 182 -194 182 -224 l 182 -154 l 136 -154 l 136 -25 l 226 -25 l 226 -169 q 206 -265 226 -235 q 138 -303 185 -296 l 138 -254 z "},"ţ":{"ha":357,"x_min":29,"x_max":328,"o":"m 29 0 m 242 381 l 328 381 l 328 151 q 297 33 328 71 q 186 -6 267 -6 q 67 33 104 -6 q 29 151 29 71 l 29 856 l 128 856 l 128 671 l 328 671 l 328 581 l 128 581 l 128 151 q 188 85 128 85 q 229 101 217 85 q 242 151 242 117 l 242 381 m 136 -254 q 169 -236 158 -249 q 181 -194 181 -224 l 181 -154 l 135 -154 l 135 -25 l 225 -25 l 225 -169 q 204 -265 225 -235 q 136 -303 183 -296 l 136 -254 z "},"Ť":{"ha":365,"x_min":18,"x_max":347,"o":"m 18 0 m 129 0 l 129 828 l 18 828 l 18 922 l 347 922 l 347 828 l 233 828 l 233 0 l 129 0 m 136 958 l 42 1096 l 86 1131 l 182 1018 l 278 1131 l 321 1096 l 228 958 l 136 958 z "},"ť":{"ha":458,"x_min":29,"x_max":446,"o":"m 29 0 m 242 381 l 328 381 l 328 151 q 297 33 328 71 q 186 -6 267 -6 q 67 33 104 -6 q 29 151 29 71 l 29 856 l 128 856 l 128 671 l 328 671 l 328 581 l 128 581 l 128 151 q 188 85 128 85 q 229 101 217 85 q 242 151 242 117 l 242 381 m 343 644 q 377 679 367 658 q 388 735 388 700 l 388 790 l 343 790 l 343 933 l 446 933 l 446 747 q 419 637 446 676 q 343 585 393 597 l 343 644 z "},"Ŧ":{"ha":365,"x_min":18,"x_max":347,"o":"m 129 0 l 129 457 l 60 457 l 60 521 l 129 521 l 129 828 l 18 828 l 18 922 l 347 922 l 347 828 l 233 828 l 233 521 l 306 521 l 306 457 l 233 457 l 233 0 l 129 0 z "},"ŧ":{"ha":357,"x_min":29,"x_max":328,"o":"m 128 439 l 128 151 q 188 85 128 85 q 229 101 217 85 q 242 151 242 117 l 242 364 l 328 364 l 328 151 q 297 33 328 71 q 186 -6 267 -6 q 67 33 104 -6 q 29 151 29 71 l 29 856 l 128 856 l 128 671 l 328 671 l 328 581 l 128 581 l 128 497 l 317 497 l 317 439 l 128 439 z "},"Ũ":{"ha":383,"x_min":26,"x_max":356,"o":"m 26 0 m 253 922 l 356 922 l 356 171 q 315 40 356 85 q 192 -6 274 -6 q 69 38 113 -6 q 26 168 26 81 l 26 922 l 129 922 l 129 163 q 190 90 129 90 q 253 163 253 90 l 253 922 m 333 1036 q 305 985 325 1001 q 257 968 285 968 q 224 974 239 968 q 194 987 208 979 q 165 1000 179 994 q 135 1006 150 1006 q 110 999 119 1006 q 93 974 100 993 l 49 1000 q 78 1051 57 1035 q 125 1067 99 1067 q 158 1061 143 1067 q 188 1048 174 1056 q 217 1035 203 1040 q 249 1029 232 1029 q 290 1061 279 1029 l 333 1036 z "},"ũ":{"ha":378,"x_min":29,"x_max":349,"o":"m 29 0 m 131 671 l 131 154 q 143 98 131 114 q 186 82 156 82 q 229 99 217 82 q 249 157 242 115 l 249 671 l 349 671 l 349 0 l 256 0 l 253 68 l 247 68 q 206 11 229 28 q 143 -6 182 -6 q 52 38 75 -6 q 29 154 29 81 l 29 671 l 131 671 m 332 792 q 303 740 324 757 q 256 724 283 724 q 222 729 238 724 q 192 742 207 735 q 163 756 178 750 q 133 761 149 761 q 108 755 118 761 q 92 729 99 749 l 47 756 q 76 806 56 790 q 124 822 97 822 q 157 817 142 822 q 187 803 172 811 q 216 790 201 796 q 247 785 231 785 q 289 817 278 785 l 332 792 z "},"Ū":{"ha":383,"x_min":26,"x_max":356,"o":"m 26 0 m 253 922 l 356 922 l 356 171 q 315 40 356 85 q 192 -6 274 -6 q 69 38 113 -6 q 26 168 26 81 l 26 922 l 129 922 l 129 163 q 190 90 129 90 q 253 163 253 90 l 253 922 m 69 1004 l 69 1068 l 317 1068 l 317 1004 l 69 1004 z "},"ū":{"ha":378,"x_min":29,"x_max":349,"o":"m 29 0 m 131 671 l 131 154 q 143 98 131 114 q 186 82 156 82 q 229 99 217 82 q 249 157 242 115 l 249 671 l 349 671 l 349 0 l 256 0 l 253 68 l 247 68 q 206 11 229 28 q 143 -6 182 -6 q 52 38 75 -6 q 29 154 29 81 l 29 671 l 131 671 m 67 760 l 67 824 l 314 824 l 314 760 l 67 760 z "},"Ŭ":{"ha":383,"x_min":26,"x_max":356,"o":"m 26 0 m 253 922 l 356 922 l 356 171 q 315 40 356 85 q 192 -6 274 -6 q 69 38 113 -6 q 26 168 26 81 l 26 922 l 129 922 l 129 163 q 190 90 129 90 q 253 163 253 90 l 253 922 m 189 946 q 87 993 126 946 q 47 1129 47 1040 l 119 1129 q 139 1039 122 1067 q 189 1011 156 1011 q 240 1039 222 1011 q 258 1129 257 1067 l 333 1129 q 293 993 333 1040 q 189 946 253 946 z "},"ŭ":{"ha":378,"x_min":29,"x_max":349,"o":"m 29 0 m 131 671 l 131 154 q 143 98 131 114 q 186 82 156 82 q 229 99 217 82 q 249 157 242 115 l 249 671 l 349 671 l 349 0 l 256 0 l 253 68 l 247 68 q 206 11 229 28 q 143 -6 182 -6 q 52 38 75 -6 q 29 154 29 81 l 29 671 l 131 671 m 188 701 q 85 749 125 701 q 46 885 46 796 l 118 885 q 138 794 121 822 q 188 767 154 767 q 238 794 221 767 q 257 885 256 822 l 332 885 q 292 749 332 796 q 188 701 251 701 z "},"Ů":{"ha":383,"x_min":26,"x_max":356,"o":"m 26 0 m 253 922 l 356 922 l 356 171 q 315 40 356 85 q 192 -6 274 -6 q 69 38 113 -6 q 26 168 26 81 l 26 922 l 129 922 l 129 163 q 190 90 129 90 q 253 163 253 90 l 253 922 m 192 989 q 226 1006 215 989 q 238 1050 238 1022 q 226 1094 238 1078 q 192 1111 215 1111 q 157 1094 168 1111 q 146 1050 146 1078 q 157 1006 146 1022 q 192 989 168 989 m 192 946 q 124 974 146 946 q 101 1050 101 1003 q 124 1126 101 1097 q 192 1154 146 1154 q 260 1126 238 1154 q 282 1050 282 1097 q 260 974 282 1003 q 192 946 238 946 z "},"ů":{"ha":378,"x_min":29,"x_max":349,"o":"m 29 0 m 131 671 l 131 154 q 143 98 131 114 q 186 82 156 82 q 229 99 217 82 q 249 157 242 115 l 249 671 l 349 671 l 349 0 l 256 0 l 253 68 l 247 68 q 206 11 229 28 q 143 -6 182 -6 q 52 38 75 -6 q 29 154 29 81 l 29 671 l 131 671 m 190 744 q 225 761 214 744 q 236 806 236 778 q 225 850 236 833 q 190 867 214 867 q 156 850 167 867 q 144 806 144 833 q 156 761 144 778 q 190 744 167 744 m 190 701 q 122 730 144 701 q 100 806 100 758 q 122 881 100 853 q 190 910 144 910 q 258 881 236 910 q 281 806 281 853 q 258 730 281 758 q 190 701 236 701 z "},"Ű":{"ha":383,"x_min":26,"x_max":356,"o":"m 26 0 m 253 922 l 356 922 l 356 171 q 315 40 356 85 q 192 -6 274 -6 q 69 38 113 -6 q 26 168 26 81 l 26 922 l 129 922 l 129 163 q 190 90 129 90 q 253 163 253 90 l 253 922 m 72 969 l 164 1171 l 228 1133 l 118 946 l 72 969 m 196 969 l 289 1171 l 353 1133 l 242 946 l 196 969 z "},"ű":{"ha":378,"x_min":29,"x_max":351,"o":"m 29 0 m 131 671 l 131 154 q 143 98 131 114 q 186 82 156 82 q 229 99 217 82 q 249 157 242 115 l 249 671 l 349 671 l 349 0 l 256 0 l 253 68 l 247 68 q 206 11 229 28 q 143 -6 182 -6 q 52 38 75 -6 q 29 154 29 81 l 29 671 l 131 671 m 71 725 l 163 926 l 226 889 l 117 701 l 71 725 m 194 725 l 288 926 l 351 889 l 240 701 l 194 725 z "},"Ų":{"ha":383,"x_min":26,"x_max":356,"o":"m 239 -289 q 171 -303 213 -303 q 97 -281 121 -303 q 72 -201 72 -258 l 72 -161 q 99 -70 72 -107 q 169 -12 125 -33 l 169 -4 q 26 168 26 7 l 26 922 l 129 922 l 129 163 q 190 90 129 90 q 253 163 253 90 l 253 922 l 356 922 l 356 171 q 326 56 356 97 q 238 -4 296 14 q 163 -55 185 -19 q 142 -133 142 -90 l 142 -171 q 153 -205 142 -196 q 190 -214 165 -214 q 216 -212 203 -214 q 239 -207 229 -211 l 239 -289 z "},"ų":{"ha":378,"x_min":29,"x_max":349,"o":"m 347 -289 q 279 -303 321 -303 q 205 -281 229 -303 q 181 -201 181 -258 l 181 -161 q 210 -65 181 -103 q 293 -7 240 -26 l 293 0 l 256 0 l 253 68 l 247 68 q 206 11 229 28 q 143 -6 182 -6 q 52 38 75 -6 q 29 154 29 81 l 29 671 l 131 671 l 131 154 q 143 98 131 114 q 186 82 156 82 q 229 99 217 82 q 249 157 242 115 l 249 671 l 349 671 l 349 0 q 250 -133 250 -50 l 250 -171 q 262 -205 250 -196 q 299 -214 274 -214 q 324 -212 311 -214 q 347 -207 338 -211 l 347 -289 z "},"Ŵ":{"ha":569,"x_min":10,"x_max":558,"o":"m 10 0 m 86 0 l 10 922 l 111 922 l 160 197 l 165 197 l 225 922 l 344 922 l 407 197 l 413 197 l 460 922 l 558 922 l 482 0 l 344 0 l 288 725 l 282 725 l 225 0 l 86 0 m 379 947 l 283 1071 l 188 947 l 143 982 l 238 1131 l 328 1131 l 422 982 l 379 947 z "},"ŵ":{"ha":521,"x_min":8,"x_max":511,"o":"m 8 0 m 76 0 l 8 671 l 103 671 l 147 165 l 153 165 l 204 671 l 315 671 l 369 165 l 375 165 l 418 671 l 511 671 l 443 0 l 315 0 l 263 514 l 257 514 l 204 0 l 76 0 m 356 703 l 260 826 l 164 703 l 119 738 l 214 886 l 304 886 l 399 738 l 356 703 z "},"Ŷ":{"ha":383,"x_min":8,"x_max":375,"o":"m 8 0 m 142 0 l 142 385 l 8 922 l 113 922 l 192 567 l 197 567 l 274 922 l 375 922 l 246 383 l 246 0 l 142 0 m 292 947 l 196 1071 l 100 947 l 56 982 l 150 1131 l 240 1131 l 335 982 l 292 947 z "},"ŷ":{"ha":376,"x_min":29,"x_max":347,"o":"m 29 0 m 131 160 q 145 108 131 124 q 188 92 160 92 q 229 108 215 92 q 251 164 243 125 l 251 671 l 347 671 l 347 -167 q 188 -324 347 -324 q 69 -285 107 -324 q 32 -167 32 -246 l 32 -42 l 128 -42 l 128 -167 q 188 -233 128 -233 q 249 -167 249 -233 l 249 64 l 243 64 q 203 14 228 28 q 142 0 178 0 q 54 36 79 0 q 29 139 29 72 l 29 671 l 131 671 l 131 160 m 290 703 l 194 826 l 99 703 l 54 738 l 149 886 l 239 886 l 333 738 l 290 703 z "},"Ÿ":{"ha":383,"x_min":8,"x_max":375,"o":"m 8 0 m 142 0 l 142 385 l 8 922 l 113 922 l 192 567 l 197 567 l 274 922 l 375 922 l 246 383 l 246 0 l 142 0 m 68 978 l 68 1107 l 161 1107 l 161 978 l 68 978 m 226 978 l 226 1107 l 319 1107 l 319 978 l 226 978 z "},"Ź":{"ha":350,"x_min":18,"x_max":333,"o":"m 18 0 m 18 0 l 18 96 l 224 828 l 19 828 l 19 922 l 328 922 l 328 828 l 125 94 l 333 94 l 333 0 l 18 0 m 133 946 l 94 986 l 249 1171 l 301 1110 l 133 946 z "},"ź":{"ha":319,"x_min":19,"x_max":300,"o":"m 19 0 m 19 0 l 19 94 l 194 581 l 22 581 l 22 671 l 296 671 l 296 581 l 122 92 l 300 92 l 300 0 l 19 0 m 117 701 l 78 742 l 232 926 l 285 865 l 117 701 z "},"Ż":{"ha":350,"x_min":18,"x_max":333,"o":"m 18 0 m 18 0 l 18 96 l 224 828 l 19 828 l 19 922 l 328 922 l 328 828 l 125 94 l 333 94 l 333 0 l 18 0 m 121 988 l 121 1117 l 221 1117 l 221 988 l 121 988 z "},"ż":{"ha":319,"x_min":19,"x_max":300,"o":"m 19 0 m 19 0 l 19 94 l 194 581 l 22 581 l 22 671 l 296 671 l 296 581 l 122 92 l 300 92 l 300 0 l 19 0 m 104 743 l 104 872 l 204 872 l 204 743 l 104 743 z "},"Ž":{"ha":350,"x_min":18,"x_max":333,"o":"m 18 0 m 18 0 l 18 96 l 224 828 l 19 828 l 19 922 l 328 922 l 328 828 l 125 94 l 333 94 l 333 0 l 18 0 m 131 960 l 36 1097 l 81 1132 l 176 1019 l 272 1132 l 315 1097 l 222 960 l 131 960 z "},"ž":{"ha":319,"x_min":19,"x_max":300,"o":"m 19 0 m 19 0 l 19 94 l 194 581 l 22 581 l 22 671 l 296 671 l 296 581 l 122 92 l 300 92 l 300 0 l 19 0 m 114 721 l 19 858 l 64 893 l 160 781 l 256 893 l 299 858 l 206 721 l 114 721 z "},"Ǝ":{"ha":303,"x_min":15,"x_max":275,"o":"m 275 922 l 275 0 l 24 0 l 24 94 l 172 94 l 172 392 l 38 392 l 38 486 l 172 486 l 172 828 l 15 828 l 15 922 l 275 922 z "},"Ə":{"ha":374,"x_min":29,"x_max":344,"o":"m 29 519 q 188 676 29 676 q 344 519 344 676 l 344 151 q 188 -6 344 -6 q 29 151 29 -6 l 29 361 l 247 361 l 247 522 q 188 589 247 589 q 128 522 128 589 l 128 440 l 29 440 l 29 519 m 128 150 q 188 82 128 82 q 247 150 247 82 l 247 288 l 128 288 l 128 150 z "},"ƒ":{"ha":325,"x_min":6,"x_max":310,"o":"m 224 556 l 161 -131 q 128 -217 156 -193 q 42 -240 100 -240 l 6 -240 l 6 -147 l 24 -147 q 64 -114 60 -147 l 124 556 l 60 556 l 60 621 l 131 621 l 149 824 q 183 910 154 886 q 269 933 211 933 l 310 933 l 310 840 l 288 840 q 247 807 249 840 l 231 621 l 310 621 l 310 556 l 224 556 z "},"Ɣ":{"ha":429,"x_min":22,"x_max":406,"o":"m 215 -324 q 119 -286 146 -324 q 93 -189 93 -249 q 96 -150 93 -172 q 106 -83 99 -128 q 128 35 114 -39 q 167 232 143 110 l 22 922 l 128 922 l 208 482 l 218 482 l 300 922 l 406 922 l 261 232 q 299 42 285 115 q 322 -74 314 -31 q 332 -142 329 -118 q 335 -185 335 -167 q 310 -285 335 -247 q 215 -324 285 -324 m 210 -1 q 195 -73 201 -43 q 185 -125 189 -103 q 178 -163 181 -147 q 176 -193 176 -179 q 214 -250 176 -250 q 243 -236 235 -250 q 251 -192 251 -222 q 249 -162 251 -178 q 242 -124 247 -146 q 231 -73 238 -103 q 217 -1 225 -43 l 210 -1 z "},"Ɲ":{"ha":408,"x_min":-47,"x_max":382,"o":"m 254 0 l 118 722 l 113 722 q 115 676 114 700 q 116 621 115 651 q 117 551 117 590 q 117 461 117 513 l 117 -167 q 82 -285 117 -246 q -12 -324 47 -324 q -47 -319 -37 -324 l -47 -231 q -35 -233 -42 -233 q -24 -233 -29 -233 q 26 -167 26 -233 l 26 922 l 168 922 l 289 232 l 294 232 q 292 290 293 260 q 291 358 292 321 q 290 440 290 394 q 290 543 290 485 l 290 922 l 382 922 l 382 0 l 254 0 z "},"Ơ":{"ha":438,"x_min":22,"x_max":432,"o":"m 354 168 q 311 38 354 81 q 189 -6 268 -6 q 65 40 107 -6 q 22 171 22 85 l 22 749 q 65 882 22 836 q 186 928 108 928 q 253 923 218 928 q 318 918 288 918 q 361 928 350 918 q 372 967 372 939 q 371 994 372 978 q 367 1019 369 1010 l 422 1019 q 430 994 428 1011 q 432 958 432 978 q 416 881 432 906 q 363 857 400 857 q 321 861 346 857 q 354 747 354 819 l 354 168 m 250 757 q 188 831 250 831 q 126 757 126 831 l 126 163 q 189 90 126 90 q 250 163 250 90 l 250 757 z "},"ơ":{"ha":421,"x_min":29,"x_max":415,"o":"m 343 151 q 306 32 343 69 q 186 -6 268 -6 q 67 32 106 -6 q 29 151 29 69 l 29 519 q 181 676 29 676 q 247 671 217 676 q 304 665 276 665 q 344 676 333 665 q 356 715 356 688 q 354 742 356 726 q 350 768 353 758 l 406 768 q 413 743 411 760 q 415 707 415 726 q 400 630 415 654 q 349 606 385 606 q 336 606 342 606 q 324 607 331 606 q 343 519 343 571 l 343 151 m 246 519 q 186 586 246 586 q 126 519 126 586 l 126 151 q 186 85 126 85 q 246 151 246 85 l 246 519 z "},"Ư":{"ha":475,"x_min":26,"x_max":469,"o":"m 253 922 l 367 922 q 400 933 390 922 q 410 969 410 943 q 408 994 410 979 q 404 1019 407 1008 l 460 1019 q 467 994 465 1011 q 469 958 469 978 q 453 882 469 906 q 401 858 438 858 q 356 865 383 858 l 356 171 q 192 -6 356 -6 q 69 38 113 -6 q 26 168 26 81 l 26 922 l 129 922 l 129 163 q 190 90 129 90 q 253 163 253 90 l 253 922 z "},"ư":{"ha":464,"x_min":29,"x_max":458,"o":"m 131 671 l 131 143 q 185 82 131 82 q 225 97 211 82 q 249 144 239 111 l 249 671 l 358 671 q 390 681 381 671 q 399 718 399 692 q 397 742 399 728 q 393 768 396 757 l 449 768 q 456 743 454 760 q 458 707 458 726 q 443 631 458 654 q 390 607 428 607 q 370 608 381 607 q 349 613 360 610 l 349 0 l 256 0 l 253 68 l 249 68 q 209 13 233 33 q 144 -7 185 -7 q 88 6 110 -7 q 52 42 65 19 q 34 98 39 65 q 29 168 29 131 l 29 671 l 131 671 z "},"ǝ":{"ha":374,"x_min":29,"x_max":344,"o":"m 29 519 q 188 676 29 676 q 344 519 344 676 l 344 151 q 188 -6 344 -6 q 29 151 29 -6 l 29 361 l 247 361 l 247 522 q 188 589 247 589 q 128 522 128 589 l 128 440 l 29 440 l 29 519 m 128 150 q 188 82 128 82 q 247 150 247 82 l 247 288 l 128 288 l 128 150 z "},"Ǧ":{"ha":378,"x_min":26,"x_max":351,"o":"m 26 0 m 283 0 l 278 49 l 274 49 q 239 10 261 25 q 174 -6 217 -6 q 65 40 103 -6 q 26 171 26 85 l 26 749 q 67 881 26 835 q 188 928 108 928 q 310 881 268 928 q 351 747 351 833 l 351 638 l 253 638 l 253 757 q 190 831 253 831 q 131 757 131 831 l 131 163 q 190 90 131 90 q 253 154 243 90 l 253 386 l 183 386 l 183 479 l 351 479 l 351 0 l 283 0 m 149 965 l 54 1103 l 99 1138 l 194 1025 l 290 1138 l 333 1103 l 240 965 l 149 965 z "},"ǧ":{"ha":376,"x_min":29,"x_max":347,"o":"m 29 0 m 347 -167 q 188 -324 347 -324 q 69 -285 107 -324 q 32 -167 32 -246 l 32 -42 l 128 -42 l 128 -167 q 188 -233 128 -233 q 249 -167 249 -233 l 249 64 l 243 64 q 142 0 214 0 q 56 38 82 0 q 29 151 29 75 l 29 544 q 58 640 29 604 q 146 676 88 676 q 209 658 185 676 q 250 603 233 639 l 256 603 l 258 671 l 347 671 l 347 -167 m 131 174 q 143 111 131 131 q 186 92 156 92 q 233 119 221 92 q 251 186 244 146 l 251 493 q 233 562 244 533 q 188 590 222 590 q 131 522 131 590 l 131 174 m 144 721 l 50 858 l 94 893 l 190 781 l 286 893 l 329 858 l 236 721 l 144 721 z "},"Ǵ":{"ha":378,"x_min":26,"x_max":351,"o":"m 26 0 m 283 0 l 278 49 l 274 49 q 239 10 261 25 q 174 -6 217 -6 q 65 40 103 -6 q 26 171 26 85 l 26 749 q 67 881 26 835 q 188 928 108 928 q 310 881 268 928 q 351 747 351 833 l 351 638 l 253 638 l 253 757 q 190 831 253 831 q 131 757 131 831 l 131 163 q 190 90 131 90 q 253 154 243 90 l 253 386 l 183 386 l 183 479 l 351 479 l 351 0 l 283 0 m 149 946 l 110 986 l 264 1171 l 317 1110 l 149 946 z "},"ǵ":{"ha":376,"x_min":29,"x_max":347,"o":"m 29 0 m 347 -167 q 188 -324 347 -324 q 69 -285 107 -324 q 32 -167 32 -246 l 32 -42 l 128 -42 l 128 -167 q 188 -233 128 -233 q 249 -167 249 -233 l 249 64 l 243 64 q 142 0 214 0 q 56 38 82 0 q 29 151 29 75 l 29 544 q 58 640 29 604 q 146 676 88 676 q 209 658 185 676 q 250 603 233 639 l 256 603 l 258 671 l 347 671 l 347 -167 m 131 174 q 143 111 131 131 q 186 92 156 92 q 233 119 221 92 q 251 186 244 146 l 251 493 q 233 562 244 533 q 188 590 222 590 q 131 522 131 590 l 131 174 m 149 701 l 110 742 l 264 926 l 317 865 l 149 701 z "},"Ǹ":{"ha":408,"x_min":26,"x_max":382,"o":"m 26 0 m 254 0 l 118 722 l 113 722 q 115 676 114 700 q 116 621 115 651 q 117 551 117 590 q 117 461 117 513 l 117 0 l 26 0 l 26 922 l 168 922 l 289 232 l 294 232 q 292 290 293 260 q 291 358 292 321 q 290 440 290 394 q 290 543 290 485 l 290 922 l 382 922 l 382 0 l 254 0 m 85 1110 l 138 1171 l 292 986 l 253 946 l 85 1110 z "},"ǹ":{"ha":379,"x_min":29,"x_max":351,"o":"m 29 0 m 250 0 l 250 526 q 194 590 250 590 q 153 575 167 590 q 129 526 139 560 l 129 0 l 29 0 l 29 671 l 122 671 l 125 603 l 131 603 q 236 676 163 676 q 320 644 289 676 q 351 546 351 611 l 351 0 l 250 0 m 68 865 l 121 926 l 275 742 l 236 701 l 68 865 z "},"ȷ":{"ha":176,"x_min":-169,"x_max":147,"o":"m -169 -37 l -74 -37 l -74 -167 q -14 -233 -74 -233 q 47 -167 47 -233 l 47 671 l 147 671 l 147 -167 q -12 -324 147 -324 q -132 -285 -94 -324 q -169 -167 -169 -246 l -169 -37 z "},"Ɂ":{"ha":357,"x_min":17,"x_max":335,"o":"m 122 0 l 122 303 q 128 381 122 351 q 144 433 133 410 q 184 501 160 468 q 222 564 208 535 q 233 600 229 581 q 236 651 236 619 l 236 763 q 224 815 236 799 q 178 831 213 831 q 126 810 138 831 q 115 747 115 790 l 115 654 l 17 654 l 17 744 q 22 824 17 790 q 45 881 28 858 q 94 916 63 904 q 178 928 126 928 q 257 917 226 928 q 305 886 288 907 q 328 834 322 865 q 335 760 335 803 l 335 660 q 333 619 335 636 q 330 589 332 601 q 324 565 328 576 q 315 543 321 554 q 278 481 300 508 q 242 419 257 454 q 231 378 233 400 q 228 307 228 357 l 228 0 l 122 0 z "},"ɂ":{"ha":372,"x_min":31,"x_max":343,"o":"m 135 0 l 135 140 q 140 182 135 163 q 151 217 144 201 q 191 279 167 251 q 231 335 215 307 q 246 392 246 361 l 246 525 q 233 577 246 561 q 188 593 221 593 q 139 575 151 593 q 126 519 126 557 l 126 419 l 31 419 l 31 506 q 65 642 31 600 q 186 683 99 683 q 307 645 271 683 q 343 524 343 607 l 343 390 q 329 324 343 351 q 287 259 313 286 q 246 196 261 232 q 235 140 235 169 l 235 0 l 135 0 z "},"Ɍ":{"ha":415,"x_min":4,"x_max":393,"o":"m 64 0 l 64 410 l 4 410 l 4 496 l 64 496 l 64 922 l 258 922 q 361 885 332 922 q 390 782 390 849 l 390 571 q 372 496 390 524 q 319 460 353 468 l 319 454 q 374 422 356 447 q 393 343 393 396 l 393 0 l 290 0 l 290 351 q 279 396 290 382 q 238 410 268 410 l 167 410 l 167 0 l 64 0 m 289 769 q 276 813 289 799 q 235 828 264 828 l 167 828 l 167 496 l 235 496 q 274 510 260 496 q 289 561 289 525 l 289 769 z "},"ɍ":{"ha":308,"x_min":6,"x_max":292,"o":"m 50 0 l 50 276 l 6 276 l 6 340 l 50 340 l 50 671 l 143 671 l 146 593 l 151 593 q 191 655 167 633 q 253 676 215 676 q 292 668 275 676 l 292 576 q 249 586 275 586 q 183 563 206 586 q 150 476 160 539 l 150 340 l 251 340 l 251 276 l 150 276 l 150 0 l 50 0 z "},"ɣ":{"ha":369,"x_min":8,"x_max":360,"o":"m 228 132 l 274 -78 q 286 -142 281 -112 q 292 -199 292 -172 q 183 -324 292 -324 q 78 -200 78 -324 q 83 -142 78 -172 q 96 -78 89 -112 l 140 128 l 8 671 l 111 671 l 179 335 l 188 335 l 258 671 l 360 671 l 228 132 m 179 -56 q 158 -156 164 -122 q 151 -208 151 -190 q 158 -244 151 -233 q 183 -254 165 -254 q 217 -210 217 -254 q 210 -158 217 -194 q 188 -56 204 -122 l 179 -56 z "},"ɲ":{"ha":379,"x_min":-53,"x_max":351,"o":"m 250 0 l 250 526 q 194 590 250 590 q 153 575 167 590 q 129 526 139 560 l 129 -167 q 91 -285 129 -246 q -14 -324 53 -324 q -53 -319 -40 -324 l -53 -231 q -40 -233 -46 -233 q -26 -233 -33 -233 q 29 -167 29 -233 l 29 671 l 122 671 l 125 603 l 131 603 q 236 676 163 676 q 320 644 289 676 q 351 546 351 611 l 351 0 l 250 0 z "},"ˆ":{"ha":339,"x_min":29,"x_max":308,"o":"m 265 703 l 169 826 l 74 703 l 29 738 l 124 886 l 214 886 l 308 738 l 265 703 z "},"ˇ":{"ha":336,"x_min":29,"x_max":308,"o":"m 124 721 l 29 858 l 74 893 l 169 781 l 265 893 l 308 858 l 215 721 l 124 721 z "},"ˉ":{"ha":0,"x_min":-314,"x_max":-67,"o":"m -67 760 m -314 760 l -314 824 l -67 824 l -67 760 l -314 760 z "},"˘":{"ha":344,"x_min":29,"x_max":315,"o":"m 171 701 q 69 749 108 701 q 29 885 29 796 l 101 885 q 121 794 104 822 q 171 767 138 767 q 222 794 204 767 q 240 885 239 822 l 315 885 q 275 749 315 796 q 171 701 235 701 z "},"˙":{"ha":154,"x_min":26,"x_max":126,"o":"m 26 743 l 26 872 l 126 872 l 126 743 l 26 743 z "},"˚":{"ha":235,"x_min":26,"x_max":207,"o":"m 117 744 q 151 761 140 744 q 163 806 163 778 q 151 850 163 833 q 117 867 140 867 q 82 850 93 867 q 71 806 71 833 q 82 761 71 778 q 117 744 93 744 m 117 701 q 49 730 71 701 q 26 806 26 758 q 49 881 26 853 q 117 910 71 910 q 185 881 163 910 q 207 806 207 853 q 185 730 207 758 q 117 701 163 701 z "},"˛":{"ha":214,"x_min":18,"x_max":188,"o":"m 185 -289 q 154 -299 172 -296 q 117 -303 136 -303 q 43 -281 68 -303 q 18 -201 18 -258 l 18 -161 q 54 -59 18 -99 q 151 0 90 -19 l 188 0 q 88 -133 88 -50 l 88 -171 q 99 -205 88 -196 q 138 -214 111 -214 q 163 -212 149 -214 q 185 -207 176 -211 l 185 -289 z "},"˜":{"ha":339,"x_min":26,"x_max":311,"o":"m 311 792 q 283 740 303 757 q 235 724 263 724 q 201 729 217 724 q 172 742 186 735 q 142 756 157 750 q 113 761 128 761 q 88 755 97 761 q 71 729 78 749 l 26 756 q 56 806 35 790 q 103 822 76 822 q 136 817 121 822 q 166 803 151 811 q 195 790 181 796 q 226 785 210 785 q 268 817 257 785 l 311 792 z "},"˝":{"ha":335,"x_min":28,"x_max":308,"o":"m 28 725 l 119 926 l 183 889 l 74 701 l 28 725 m 151 725 l 244 926 l 308 889 l 197 701 l 151 725 z "},"̀":{"ha":0,"x_min":-314,"x_max":-107,"o":"m -107 701 m -314 865 l -261 926 l -107 742 l -146 701 l -314 865 z "},"́":{"ha":0,"x_min":-287,"x_max":-81,"o":"m -81 701 m -249 701 l -287 742 l -133 926 l -81 865 l -249 701 z "},"̂":{"ha":0,"x_min":-331,"x_max":-51,"o":"m -51 703 m -94 703 l -190 826 l -286 703 l -331 738 l -236 886 l -146 886 l -51 738 l -94 703 z "},"̃":{"ha":0,"x_min":-333,"x_max":-49,"o":"m -49 724 m -49 792 q -77 740 -57 757 q -125 724 -97 724 q -158 729 -143 724 q -188 742 -174 735 q -217 756 -203 750 q -247 761 -232 761 q -272 755 -262 761 q -289 729 -282 749 l -333 756 q -304 806 -325 790 q -257 822 -283 822 q -224 817 -239 822 q -194 803 -208 811 q -165 790 -179 796 q -133 785 -150 785 q -92 817 -103 785 l -49 792 z "},"̄":{"ha":0,"x_min":-314,"x_max":-67,"o":"m -67 760 m -314 760 l -314 824 l -67 824 l -67 760 l -314 760 z "},"̆":{"ha":0,"x_min":-333,"x_max":-47,"o":"m -47 701 m -192 701 q -294 749 -254 701 q -333 885 -333 796 l -261 885 q -242 794 -258 822 q -192 767 -225 767 q -141 794 -158 767 q -122 885 -124 822 l -47 885 q -87 749 -47 796 q -192 701 -128 701 z "},"̇":{"ha":0,"x_min":-240,"x_max":-140,"o":"m -140 743 m -240 743 l -240 872 l -140 872 l -140 743 l -240 743 z "},"̈":{"ha":0,"x_min":-317,"x_max":-65,"o":"m -65 743 m -317 743 l -317 872 l -224 872 l -224 743 l -317 743 m -158 743 l -158 872 l -65 872 l -65 743 l -158 743 z "},"̉":{"ha":0,"x_min":-269,"x_max":-110,"o":"m -228 715 q -218 750 -228 738 q -197 771 -208 763 q -176 788 -186 779 q -167 811 -167 796 q -197 836 -167 836 q -253 815 -228 836 l -269 869 q -231 892 -254 885 q -187 899 -207 899 q -132 877 -154 899 q -110 821 -110 856 q -120 782 -110 796 q -144 758 -131 768 q -167 738 -157 747 q -178 715 -178 729 l -228 715 z "},"̊":{"ha":0,"x_min":-281,"x_max":-100,"o":"m -100 701 m -190 744 q -156 761 -167 744 q -144 806 -144 778 q -156 850 -144 833 q -190 867 -167 867 q -225 850 -214 867 q -236 806 -236 833 q -225 761 -236 778 q -190 744 -214 744 m -190 701 q -258 730 -236 701 q -281 806 -281 758 q -258 881 -281 853 q -190 910 -236 910 q -122 881 -144 910 q -100 806 -100 853 q -122 730 -100 758 q -190 701 -144 701 z "},"̋":{"ha":0,"x_min":-324,"x_max":-43,"o":"m -43 701 m -324 725 l -232 926 l -168 889 l -278 701 l -324 725 m -200 725 l -107 926 l -43 889 l -154 701 l -200 725 z "},"̌":{"ha":0,"x_min":-331,"x_max":-51,"o":"m -51 721 m -236 721 l -331 858 l -286 893 l -190 781 l -94 893 l -51 858 l -144 721 l -236 721 z "},"̓":{"ha":0,"x_min":-235,"x_max":-144,"o":"m -144 714 m -146 944 q -179 926 -168 939 q -190 885 -190 914 l -190 844 l -144 844 l -144 715 l -235 715 l -235 860 q -214 956 -235 925 q -146 993 -193 986 l -146 944 z "},"̛":{"ha":74,"x_min":-111,"x_max":68,"o":"m -111 671 q -37 667 -72 667 q 0 676 -8 667 q 8 713 8 686 q 7 744 8 729 q 3 769 6 758 l 58 769 q 68 706 68 747 q 51 629 68 653 q -1 606 35 606 q -55 615 -25 606 q -111 635 -85 624 l -111 671 z "},"̣":{"ha":0,"x_min":-239,"x_max":-139,"o":"m -239 -196 l -239 -68 l -139 -68 l -139 -196 l -239 -196 z "},"̦":{"ha":0,"x_min":-236,"x_max":-146,"o":"m -146 -25 m -235 -254 q -201 -236 -212 -249 q -190 -194 -190 -224 l -190 -154 l -236 -154 l -236 -25 l -146 -25 l -146 -169 q -167 -265 -146 -235 q -235 -303 -187 -296 l -235 -254 z "},"̨":{"ha":0,"x_min":-275,"x_max":-106,"o":"m -106 0 m -108 -289 q -139 -299 -121 -296 q -176 -303 -157 -303 q -250 -281 -225 -303 q -275 -201 -275 -258 l -275 -161 q -239 -59 -275 -99 q -142 0 -203 -19 l -106 0 q -206 -133 -206 -50 l -206 -171 q -194 -205 -206 -196 q -156 -214 -182 -214 q -131 -212 -144 -214 q -108 -207 -117 -211 l -108 -289 z "},"̭":{"ha":0,"x_min":-331,"x_max":-51,"o":"m -51 -79 m -94 -262 l -190 -139 l -286 -262 l -331 -228 l -236 -79 l -146 -79 l -51 -228 l -94 -262 z "},"΄":{"ha":104,"x_min":17,"x_max":99,"o":"m 17 729 l 17 981 l 99 981 l 79 729 l 17 729 z "},"΅":{"ha":0,"x_min":-351,"x_max":-21,"o":"m -21 729 m -219 729 l -219 981 l -137 981 l -157 729 l -219 729 m -351 743 l -351 872 l -251 872 l -251 743 l -351 743 m -121 743 l -121 872 l -21 872 l -21 743 l -121 743 z "},"Ά":{"ha":421,"x_min":17,"x_max":410,"o":"m 17 0 m 306 0 l 282 225 l 168 225 l 146 0 l 43 0 l 151 922 l 300 922 l 410 0 l 306 0 m 178 315 l 272 315 l 228 753 l 222 753 l 178 315 m 17 729 l 17 981 l 99 981 l 79 729 l 17 729 z "},"·":{"ha":156,"x_min":26,"x_max":129,"o":"m 26 453 m 26 453 l 26 596 l 129 596 l 129 453 l 26 453 z "},"Έ":{"ha":392,"x_min":17,"x_max":375,"o":"m 17 0 m 114 0 l 114 922 l 367 922 l 367 828 l 217 828 l 217 531 l 353 531 l 353 436 l 217 436 l 217 94 l 375 94 l 375 0 l 114 0 m 17 729 l 17 981 l 99 981 l 79 729 l 17 729 z "},"Ή":{"ha":475,"x_min":17,"x_max":449,"o":"m 17 0 m 343 0 l 343 443 l 218 443 l 218 0 l 113 0 l 113 922 l 218 922 l 218 538 l 343 538 l 343 922 l 449 922 l 449 0 l 343 0 m 17 729 l 17 981 l 99 981 l 79 729 l 17 729 z "},"Ί":{"ha":244,"x_min":17,"x_max":218,"o":"m 17 0 m 113 0 l 113 922 l 218 922 l 218 0 l 113 0 m 17 729 l 17 981 l 99 981 l 79 729 l 17 729 z "},"Ό":{"ha":458,"x_min":17,"x_max":436,"o":"m 17 0 m 436 168 q 393 38 436 81 q 271 -6 350 -6 q 147 40 189 -6 q 104 171 104 85 l 104 749 q 147 881 104 835 q 269 928 190 928 q 392 881 349 928 q 436 747 436 833 l 436 168 m 332 757 q 269 831 332 831 q 208 757 208 831 l 208 163 q 271 90 208 90 q 332 163 332 90 l 332 757 m 17 729 l 17 981 l 99 981 l 79 729 l 17 729 z "},"Ύ":{"ha":485,"x_min":17,"x_max":476,"o":"m 17 0 m 243 0 l 243 385 l 110 922 l 214 922 l 293 567 l 299 567 l 375 922 l 476 922 l 347 383 l 347 0 l 243 0 m 17 729 l 17 981 l 99 981 l 79 729 l 17 729 z "},"Ώ":{"ha":486,"x_min":17,"x_max":471,"o":"m 17 0 m 307 0 l 307 85 q 342 138 331 96 q 353 264 353 179 l 353 763 q 285 831 353 831 q 217 763 217 831 l 217 264 q 228 138 217 179 q 263 85 239 96 l 263 0 l 99 0 l 99 90 l 172 90 l 172 96 q 126 160 142 121 q 110 265 110 199 l 110 774 q 156 889 110 850 q 285 928 201 928 q 414 889 368 928 q 460 774 460 850 l 460 265 q 444 160 460 199 q 397 96 428 121 l 397 90 l 471 90 l 471 0 l 307 0 m 17 729 l 17 981 l 99 981 l 79 729 l 17 729 z "},"ΐ":{"ha":311,"x_min":-11,"x_max":319,"o":"m 0 0 m 225 0 q 101 126 101 0 l 101 671 l 201 671 l 201 126 q 226 89 201 89 l 243 89 l 243 0 l 225 0 m 121 729 l 121 981 l 203 981 l 183 729 l 121 729 m -11 743 l -11 872 l 89 872 l 89 743 l -11 743 m 219 743 l 219 872 l 319 872 l 319 743 l 219 743 z "},"Γ":{"ha":311,"x_min":26,"x_max":293,"o":"m 26 0 l 26 922 l 293 922 l 293 826 l 132 826 l 132 0 l 26 0 z "},"Δ":{"ha":388,"x_min":10,"x_max":376,"o":"m 10 0 l 118 922 l 267 922 l 376 0 l 10 0 m 194 753 l 189 753 l 122 96 l 263 96 l 194 753 z "},"Θ":{"ha":376,"x_min":22,"x_max":354,"o":"m 354 168 q 311 37 354 79 q 189 -6 268 -6 q 65 40 107 -6 q 22 171 22 85 l 22 749 q 65 881 22 835 q 188 928 108 928 q 310 881 267 928 q 354 747 354 833 l 354 168 m 139 436 l 139 531 l 238 531 l 238 436 l 139 436 m 257 757 q 188 831 257 831 q 118 757 118 831 l 118 163 q 189 90 118 90 q 257 163 257 90 l 257 757 z "},"Λ":{"ha":388,"x_min":11,"x_max":376,"o":"m 268 922 l 376 0 l 272 0 l 194 736 l 189 736 l 113 0 l 11 0 l 119 922 l 268 922 z "},"Ξ":{"ha":303,"x_min":15,"x_max":288,"o":"m 15 0 l 15 94 l 288 94 l 288 0 l 15 0 m 38 436 l 38 531 l 265 531 l 265 436 l 38 436 m 24 828 l 24 922 l 279 922 l 279 828 l 24 828 z "},"Π":{"ha":389,"x_min":26,"x_max":363,"o":"m 257 0 l 257 828 l 132 828 l 132 0 l 26 0 l 26 922 l 363 922 l 363 0 l 257 0 z "},"Σ":{"ha":303,"x_min":17,"x_max":286,"o":"m 18 0 l 18 94 l 125 465 l 17 832 l 17 922 l 279 922 l 279 828 l 118 828 l 222 467 l 117 94 l 286 94 l 286 0 l 18 0 z "},"Φ":{"ha":533,"x_min":19,"x_max":514,"o":"m 217 0 l 217 186 l 151 186 q 49 223 79 186 q 19 326 19 260 l 19 644 q 49 748 19 711 q 151 785 79 785 l 217 785 l 217 922 l 318 922 l 318 785 l 382 785 q 484 748 454 785 q 514 644 514 711 l 514 326 q 484 223 514 260 q 382 186 454 186 l 318 186 l 318 0 l 217 0 m 421 629 q 365 694 421 694 l 318 694 l 318 276 l 365 276 q 421 342 421 276 l 421 629 m 217 694 l 167 694 q 113 629 113 694 l 113 342 q 167 276 113 276 l 217 276 l 217 694 z "},"Ψ":{"ha":542,"x_min":24,"x_max":518,"o":"m 219 0 l 219 201 l 156 201 q 53 238 83 201 q 24 342 24 275 l 24 922 l 115 922 l 115 357 q 171 292 115 292 l 219 292 l 219 922 l 321 922 l 321 292 l 369 292 q 425 357 425 292 l 425 922 l 518 922 l 518 342 q 488 238 518 275 q 385 201 458 201 l 321 201 l 321 0 l 219 0 z "},"Ω":{"ha":403,"x_min":15,"x_max":388,"o":"m 224 0 l 224 85 q 258 138 247 96 q 269 264 269 179 l 269 763 q 201 831 269 831 q 133 763 133 831 l 133 264 q 144 138 133 179 q 179 85 156 96 l 179 0 l 15 0 l 15 90 l 89 90 l 89 96 q 42 160 58 121 q 26 265 26 199 l 26 774 q 72 889 26 850 q 201 928 118 928 q 331 889 285 928 q 376 774 376 850 l 376 265 q 360 160 376 199 q 314 96 344 121 l 314 90 l 388 90 l 388 0 l 224 0 z "},"ά":{"ha":403,"x_min":29,"x_max":388,"o":"m 29 0 m 371 0 q 297 16 322 0 q 263 68 271 32 l 257 68 q 143 -6 225 -6 q 53 40 76 -6 q 29 163 29 85 l 29 547 q 60 643 29 610 q 146 676 90 676 q 209 659 185 676 q 250 603 233 642 l 256 603 l 258 671 l 347 671 l 347 128 q 371 89 347 89 l 388 89 l 388 0 l 371 0 m 131 149 q 145 97 131 113 q 188 82 160 82 q 230 99 217 82 q 251 154 243 115 l 251 518 q 228 574 242 558 q 188 590 215 590 q 131 522 131 590 l 131 149 m 153 729 l 153 981 l 235 981 l 215 729 l 153 729 z "},"έ":{"ha":367,"x_min":26,"x_max":339,"o":"m 26 0 m 150 729 l 150 981 l 232 981 l 213 729 l 150 729 m 339 129 q 185 -6 339 -6 q 64 28 101 -6 q 26 124 26 63 l 26 251 q 50 326 26 304 q 106 353 74 347 l 106 358 q 36 444 36 371 l 36 551 q 183 676 36 676 q 300 642 261 676 q 339 543 339 608 l 339 447 l 243 447 l 243 535 q 185 590 243 590 q 128 533 128 590 l 128 436 q 142 400 128 413 q 189 388 156 388 l 231 388 l 231 321 l 190 321 q 124 263 124 321 l 124 136 q 183 81 124 81 q 243 146 243 81 l 243 240 l 339 240 l 339 129 z "},"ή":{"ha":379,"x_min":29,"x_max":351,"o":"m 29 0 m 250 -324 l 250 526 q 194 590 250 590 q 153 575 167 590 q 129 526 139 560 l 129 0 l 29 0 l 29 671 l 122 671 l 125 603 l 131 603 q 236 676 163 676 q 320 644 289 676 q 351 546 351 611 l 351 -324 l 250 -324 m 156 729 l 156 981 l 238 981 l 218 729 l 156 729 z "},"ί":{"ha":186,"x_min":29,"x_max":171,"o":"m 29 0 m 153 0 q 29 126 29 0 l 29 671 l 129 671 l 129 126 q 154 89 129 89 l 171 89 l 171 0 l 153 0 m 50 729 l 50 981 l 132 981 l 113 729 l 50 729 z "},"ΰ":{"ha":369,"x_min":17,"x_max":347,"o":"m 17 0 m 149 729 l 149 981 l 231 981 l 211 729 l 149 729 m 244 671 l 340 671 l 340 151 q 303 32 340 69 q 183 -6 265 -6 q 67 32 104 -6 q 29 151 29 69 l 29 671 l 126 671 l 126 151 q 186 85 126 85 q 244 151 244 85 l 244 671 m 17 743 l 17 872 l 117 872 l 117 743 l 17 743 m 247 743 l 247 872 l 347 872 l 347 743 l 247 743 z "},"α":{"ha":403,"x_min":29,"x_max":388,"o":"m 371 0 q 297 16 322 0 q 263 68 271 32 l 257 68 q 143 -6 225 -6 q 53 40 76 -6 q 29 163 29 85 l 29 547 q 60 643 29 610 q 146 676 90 676 q 209 659 185 676 q 250 603 233 642 l 256 603 l 258 671 l 347 671 l 347 128 q 371 89 347 89 l 388 89 l 388 0 l 371 0 m 131 149 q 145 97 131 113 q 188 82 160 82 q 230 99 217 82 q 251 154 243 115 l 251 518 q 228 574 242 558 q 188 590 215 590 q 131 522 131 590 l 131 149 z "},"β":{"ha":378,"x_min":29,"x_max":349,"o":"m 29 -324 l 29 811 q 65 909 29 879 q 189 939 101 939 q 306 911 269 939 q 343 813 343 883 l 343 607 q 272 511 343 531 l 272 506 q 328 466 308 494 q 349 385 349 438 l 349 151 q 338 75 349 106 q 308 27 326 44 q 264 2 289 10 q 211 -6 239 -6 q 167 1 186 -6 q 135 19 149 8 l 128 19 l 128 -324 l 29 -324 m 249 367 q 247 404 249 386 q 240 435 246 422 q 221 456 233 449 q 188 464 208 464 l 171 464 l 171 543 l 188 543 q 238 563 229 543 q 247 610 247 582 l 247 783 q 235 833 247 817 q 188 849 224 849 q 140 833 151 849 q 128 783 128 817 l 128 117 q 155 92 139 103 q 190 82 171 82 q 233 96 217 82 q 249 147 249 110 l 249 367 z "},"δ":{"ha":372,"x_min":29,"x_max":343,"o":"m 29 471 q 45 541 29 511 q 88 589 61 571 l 88 599 q 59 634 68 614 q 50 688 50 654 l 50 800 q 92 906 50 872 q 218 939 135 939 q 260 938 236 939 q 304 933 285 936 l 304 843 q 265 851 286 849 q 225 853 243 853 q 164 840 182 853 q 146 800 146 826 l 146 692 q 156 657 146 669 q 189 632 165 644 q 241 606 208 622 q 294 572 274 589 q 331 524 318 554 q 343 438 343 493 l 343 151 q 306 32 343 69 q 186 -6 268 -6 q 67 32 104 -6 q 29 151 29 69 l 29 471 m 246 442 q 236 495 246 478 q 207 526 226 513 q 185 539 197 533 q 163 551 174 544 q 136 518 146 539 q 126 469 126 497 l 126 151 q 186 85 126 85 q 246 151 246 85 l 246 442 z "},"ε":{"ha":367,"x_min":26,"x_max":339,"o":"m 339 129 q 185 -6 339 -6 q 64 28 101 -6 q 26 124 26 63 l 26 251 q 50 326 26 304 q 106 353 74 347 l 106 358 q 36 444 36 371 l 36 551 q 183 676 36 676 q 300 642 261 676 q 339 543 339 608 l 339 447 l 243 447 l 243 535 q 185 590 243 590 q 128 533 128 590 l 128 436 q 142 400 128 413 q 189 388 156 388 l 231 388 l 231 321 l 190 321 q 124 263 124 321 l 124 136 q 183 81 124 81 q 243 146 243 81 l 243 240 l 339 240 l 339 129 z "},"ζ":{"ha":338,"x_min":29,"x_max":319,"o":"m 208 -253 l 208 -19 q 190 0 208 0 l 125 0 q 29 101 29 0 l 29 357 q 37 440 29 407 q 63 510 44 472 l 221 843 l 40 843 l 40 933 l 319 933 l 319 843 l 149 472 q 133 427 138 450 q 129 369 129 404 l 129 126 q 163 89 129 89 l 240 89 q 308 11 308 89 l 308 -253 l 208 -253 z "},"η":{"ha":379,"x_min":29,"x_max":351,"o":"m 250 -324 l 250 526 q 194 590 250 590 q 153 575 167 590 q 129 526 139 560 l 129 0 l 29 0 l 29 671 l 122 671 l 125 603 l 131 603 q 236 676 163 676 q 320 644 289 676 q 351 546 351 611 l 351 -324 l 250 -324 z "},"θ":{"ha":372,"x_min":29,"x_max":343,"o":"m 29 778 q 67 897 29 860 q 186 935 106 935 q 305 897 267 935 q 343 778 343 860 l 343 151 q 305 32 343 69 q 186 -6 267 -6 q 67 32 106 -6 q 29 151 29 69 l 29 778 m 246 444 l 126 444 l 126 151 q 186 85 126 85 q 246 151 246 85 l 246 444 m 246 778 q 186 846 246 846 q 126 778 126 846 l 126 521 l 246 521 l 246 778 z "},"ι":{"ha":186,"x_min":29,"x_max":171,"o":"m 153 0 q 29 126 29 0 l 29 671 l 129 671 l 129 126 q 154 89 129 89 l 171 89 l 171 0 l 153 0 z "},"κ":{"ha":375,"x_min":29,"x_max":367,"o":"m 260 0 l 176 278 l 171 278 l 129 189 l 129 0 l 29 0 l 29 671 l 129 671 l 129 385 l 135 385 q 142 406 138 393 q 158 449 146 419 q 193 531 169 478 q 258 671 217 583 l 367 671 l 249 394 l 365 0 l 260 0 z "},"λ":{"ha":376,"x_min":8,"x_max":361,"o":"m 361 0 l 325 0 q 263 18 281 0 q 239 69 244 36 l 186 432 l 179 432 l 108 0 l 8 0 l 139 693 l 122 815 q 90 844 118 844 l 67 844 l 67 933 l 118 933 q 189 916 167 933 q 218 846 211 899 l 324 113 q 350 89 328 89 l 361 89 l 361 0 z "},"μ":{"ha":378,"x_min":29,"x_max":349,"o":"m 29 -324 l 29 671 l 131 671 l 131 143 q 185 82 131 82 q 226 99 213 82 q 249 147 240 115 l 249 671 l 349 671 l 349 0 l 256 0 l 253 68 l 247 68 q 212 16 232 35 q 163 -3 192 -3 q 140 -1 151 -3 q 122 8 129 1 l 117 8 l 131 -324 l 29 -324 z "},"ξ":{"ha":358,"x_min":29,"x_max":340,"o":"m 224 -253 l 224 -19 q 207 0 224 0 l 125 0 q 29 101 29 0 l 29 429 q 52 503 29 482 q 107 532 75 525 l 107 538 q 39 622 39 551 l 39 814 q 186 939 39 939 q 302 905 264 939 q 340 806 340 871 l 340 707 l 244 707 l 244 797 q 188 853 244 853 q 131 796 131 853 l 131 614 q 144 578 131 590 q 190 565 158 565 l 231 565 l 231 499 l 194 499 q 129 440 129 499 l 129 126 q 163 89 129 89 l 256 89 q 324 11 324 89 l 324 -253 l 224 -253 z "},"π":{"ha":464,"x_min":15,"x_max":447,"o":"m 407 0 q 283 126 283 0 l 283 581 l 178 581 l 178 0 l 78 0 l 78 581 l 15 581 l 15 671 l 447 671 l 447 581 l 382 581 l 382 126 q 408 89 382 89 l 424 89 l 424 0 l 407 0 z "},"ρ":{"ha":372,"x_min":29,"x_max":343,"o":"m 246 519 q 186 586 246 586 q 126 519 126 586 l 126 144 q 148 97 135 111 q 189 82 161 82 q 231 97 217 82 q 246 149 246 113 l 246 519 m 29 -324 l 29 519 q 67 639 29 601 q 186 676 106 676 q 305 639 267 676 q 343 519 343 601 l 343 125 q 314 28 343 63 q 232 -6 285 -6 q 133 57 161 -6 l 128 57 l 128 -324 l 29 -324 z "},"ς":{"ha":369,"x_min":29,"x_max":340,"o":"m 239 -253 l 239 -19 q 222 0 239 0 l 125 0 q 29 101 29 0 l 29 519 q 186 676 29 676 q 303 638 267 676 q 340 519 340 599 l 340 426 l 244 426 l 244 519 q 186 586 244 586 q 126 519 126 586 l 126 126 q 160 89 126 89 l 272 89 q 340 11 340 89 l 340 -253 l 239 -253 z "},"σ":{"ha":394,"x_min":29,"x_max":378,"o":"m 378 581 l 329 581 q 339 515 339 556 l 339 151 q 303 33 339 71 q 186 -6 268 -6 q 67 33 104 -6 q 29 151 29 71 l 29 514 q 67 633 29 594 q 186 671 104 671 l 378 671 l 378 581 m 244 515 q 232 581 244 556 q 189 579 208 581 q 156 572 169 578 q 134 551 142 565 q 126 514 126 538 l 126 151 q 140 101 126 118 q 186 85 154 85 q 231 101 218 85 q 244 151 244 118 l 244 515 z "},"τ":{"ha":297,"x_min":15,"x_max":282,"o":"m 224 0 q 99 126 99 0 l 99 581 l 15 581 l 15 671 l 282 671 l 282 581 l 199 581 l 199 126 q 225 89 199 89 l 240 89 l 240 0 l 224 0 z "},"υ":{"ha":369,"x_min":29,"x_max":340,"o":"m 244 671 l 340 671 l 340 151 q 303 32 340 69 q 183 -6 265 -6 q 67 32 104 -6 q 29 151 29 69 l 29 671 l 126 671 l 126 151 q 186 85 126 85 q 244 151 244 85 l 244 671 z "},"φ":{"ha":529,"x_min":29,"x_max":500,"o":"m 217 -324 l 217 0 l 133 0 q 58 32 86 0 q 29 119 29 64 l 29 551 q 58 639 29 607 q 133 671 86 671 l 217 671 l 217 933 l 313 933 l 313 671 l 396 671 q 472 639 443 671 q 500 551 500 607 l 500 119 q 472 32 500 64 q 396 0 443 0 l 313 0 l 313 -324 l 217 -324 m 217 588 l 167 588 q 122 532 122 588 l 122 139 q 167 83 122 83 l 217 83 l 217 588 m 313 83 l 363 83 q 407 139 407 83 l 407 532 q 363 588 407 588 l 313 588 l 313 83 z "},"χ":{"ha":371,"x_min":8,"x_max":364,"o":"m 258 -324 l 188 47 l 182 47 l 113 -324 l 8 -324 l 121 181 l 13 671 l 115 671 l 186 319 l 192 319 l 258 671 l 360 671 l 251 194 l 364 -324 l 258 -324 z "},"ω":{"ha":544,"x_min":29,"x_max":515,"o":"m 418 550 q 393 671 418 625 l 489 671 q 515 550 515 635 l 515 156 q 485 32 515 69 q 393 -6 456 -6 q 328 8 357 -6 q 275 53 299 21 l 269 53 q 217 8 246 21 q 151 -6 188 -6 q 59 32 89 -6 q 29 156 29 69 l 29 550 q 56 671 29 635 l 151 671 q 126 550 126 625 l 126 153 q 176 85 126 85 q 229 153 229 85 l 229 472 l 315 472 l 315 153 q 368 85 315 85 q 418 153 418 85 l 418 550 z "},"ϊ":{"ha":246,"x_min":-7,"x_max":244,"o":"m 0 0 m 192 0 q 68 126 68 0 l 68 671 l 168 671 l 168 126 q 193 89 168 89 l 210 89 l 210 0 l 192 0 m -7 743 l -7 872 l 86 872 l 86 743 l -7 743 m 151 743 l 151 872 l 244 872 l 244 743 l 151 743 z "},"ϋ":{"ha":369,"x_min":29,"x_max":340,"o":"m 29 0 m 244 671 l 340 671 l 340 151 q 303 32 340 69 q 183 -6 265 -6 q 67 32 104 -6 q 29 151 29 69 l 29 671 l 126 671 l 126 151 q 186 85 126 85 q 244 151 244 85 l 244 671 m 60 743 l 60 872 l 153 872 l 153 743 l 60 743 m 218 743 l 218 872 l 311 872 l 311 743 l 218 743 z "},"ό":{"ha":372,"x_min":29,"x_max":343,"o":"m 29 0 m 343 151 q 305 32 343 69 q 186 -6 267 -6 q 67 32 106 -6 q 29 151 29 69 l 29 519 q 67 639 29 601 q 186 676 106 676 q 305 639 267 676 q 343 519 343 601 l 343 151 m 246 519 q 186 586 246 586 q 126 519 126 586 l 126 151 q 186 85 126 85 q 246 151 246 85 l 246 519 m 151 729 l 151 981 l 233 981 l 214 729 l 151 729 z "},"ύ":{"ha":369,"x_min":29,"x_max":340,"o":"m 29 0 m 147 729 l 147 981 l 229 981 l 210 729 l 147 729 m 244 671 l 340 671 l 340 151 q 303 32 340 69 q 183 -6 265 -6 q 67 32 104 -6 q 29 151 29 69 l 29 671 l 126 671 l 126 151 q 186 85 126 85 q 244 151 244 85 l 244 671 z "},"ώ":{"ha":544,"x_min":29,"x_max":515,"o":"m 29 0 m 418 550 q 393 671 418 625 l 489 671 q 515 550 515 635 l 515 156 q 485 32 515 69 q 393 -6 456 -6 q 328 8 357 -6 q 275 53 299 21 l 269 53 q 217 8 246 21 q 151 -6 188 -6 q 59 32 89 -6 q 29 156 29 69 l 29 550 q 56 671 29 635 l 151 671 q 126 550 126 625 l 126 153 q 176 85 126 85 q 229 153 229 85 l 229 472 l 315 472 l 315 153 q 368 85 315 85 q 418 153 418 85 l 418 550 m 232 729 l 232 981 l 314 981 l 294 729 l 232 729 z "},"Ђ":{"ha":453,"x_min":18,"x_max":425,"o":"m 106 828 l 18 828 l 18 922 l 304 922 l 304 828 l 210 828 l 210 568 l 215 568 q 260 613 238 599 q 321 628 283 628 q 425 504 425 628 l 425 -167 q 265 -324 425 -324 q 106 -167 106 -324 l 106 -56 l 210 -56 l 210 -167 q 264 -233 210 -233 q 319 -167 319 -233 l 319 475 q 306 520 319 507 q 269 533 293 533 q 230 517 242 533 q 210 463 218 501 l 210 0 l 106 0 l 106 828 z "},"Ѓ":{"ha":311,"x_min":26,"x_max":293,"o":"m 26 0 m 115 946 l 76 986 l 231 1171 l 283 1110 l 115 946 m 26 0 l 26 922 l 293 922 l 293 826 l 132 826 l 132 0 l 26 0 z "},"Є":{"ha":378,"x_min":26,"x_max":351,"o":"m 351 168 q 190 -6 351 -6 q 67 40 108 -6 q 26 171 26 85 l 26 749 q 68 881 26 835 q 188 928 110 928 q 310 881 268 928 q 351 747 351 833 l 351 661 l 253 661 l 253 757 q 192 831 253 831 q 131 757 131 831 l 131 528 l 243 528 l 243 442 l 131 442 l 131 163 q 192 90 131 90 q 253 163 253 90 l 253 268 l 351 268 l 351 168 z "},"Љ":{"ha":646,"x_min":18,"x_max":626,"o":"m 404 538 l 493 538 q 597 504 568 538 q 626 403 626 471 l 626 140 q 597 38 626 76 q 493 0 568 0 l 300 0 l 300 828 l 196 828 l 186 564 q 178 373 182 456 q 168 230 174 290 q 155 130 163 169 q 139 67 147 90 q 97 13 124 26 q 33 0 71 0 l 18 0 l 18 96 l 26 96 q 51 102 42 96 q 68 131 61 108 q 77 181 72 149 q 86 266 82 214 q 94 392 90 318 q 100 565 97 465 l 111 922 l 404 922 l 404 538 m 472 93 q 517 111 506 93 q 528 164 528 129 l 528 379 q 517 432 528 418 q 474 446 506 446 l 404 446 l 404 93 l 472 93 z "},"Њ":{"ha":604,"x_min":26,"x_max":583,"o":"m 363 538 l 451 538 q 555 504 526 538 q 583 403 583 471 l 583 140 q 554 38 583 76 q 451 0 525 0 l 257 0 l 257 446 l 132 446 l 132 0 l 26 0 l 26 922 l 132 922 l 132 538 l 257 538 l 257 922 l 363 922 l 363 538 m 431 93 q 474 111 463 93 q 485 164 485 129 l 485 379 q 474 432 485 418 q 431 446 463 446 l 363 446 l 363 93 l 431 93 z "},"Ћ":{"ha":453,"x_min":18,"x_max":425,"o":"m 106 828 l 18 828 l 18 922 l 304 922 l 304 828 l 210 828 l 210 568 l 215 568 q 260 613 238 599 q 321 628 283 628 q 425 504 425 628 l 425 0 l 319 0 l 319 475 q 306 520 319 507 q 269 533 293 533 q 233 519 246 533 q 210 472 221 506 l 210 0 l 106 0 l 106 828 z "},"Ќ":{"ha":383,"x_min":26,"x_max":374,"o":"m 26 0 m 267 0 l 181 394 l 176 394 l 133 276 l 133 0 l 26 0 l 26 922 l 133 922 l 133 536 l 139 536 q 153 584 144 557 q 176 654 161 611 q 213 762 190 697 q 268 922 235 826 l 374 922 l 253 561 l 372 0 l 267 0 m 139 946 l 100 986 l 254 1171 l 307 1110 l 139 946 z "},"Ѝ":{"ha":408,"x_min":26,"x_max":382,"o":"m 26 0 m 85 1110 l 138 1171 l 292 986 l 253 946 l 85 1110 m 281 0 l 281 649 l 276 649 l 136 0 l 26 0 l 26 922 l 128 922 l 128 314 l 133 314 l 267 922 l 382 922 l 382 0 l 281 0 z "},"Ў":{"ha":383,"x_min":26,"x_max":356,"o":"m 26 0 m 190 946 q 88 993 128 946 q 49 1129 49 1040 l 121 1129 q 140 1039 124 1067 q 190 1011 157 1011 q 241 1039 224 1011 q 260 1129 258 1067 l 335 1129 q 294 993 335 1040 q 190 946 254 946 m 253 407 l 247 407 q 205 365 233 379 q 142 350 176 350 q 26 525 26 350 l 26 922 l 129 922 l 129 518 q 142 464 129 482 q 185 446 154 446 q 253 507 238 446 l 253 922 l 356 922 l 356 171 q 315 40 356 85 q 192 -6 274 -6 q 69 37 113 -6 q 26 168 26 79 l 26 307 l 129 307 l 129 163 q 190 90 129 90 q 253 163 253 90 l 253 407 z "},"Џ":{"ha":389,"x_min":26,"x_max":363,"o":"m 154 -214 l 154 0 l 26 0 l 26 922 l 132 922 l 132 96 l 257 96 l 257 922 l 363 922 l 363 0 l 233 0 l 233 -214 l 154 -214 z "},"Б":{"ha":372,"x_min":26,"x_max":353,"o":"m 132 826 l 132 538 l 221 538 q 321 503 289 538 q 353 394 353 469 l 353 140 q 324 38 353 76 q 221 0 294 0 l 26 0 l 26 922 l 293 922 l 293 826 l 132 826 m 200 93 q 243 111 232 93 q 254 164 254 129 l 254 379 q 243 432 254 418 q 200 446 232 446 l 132 446 l 132 93 l 200 93 z "},"Д":{"ha":465,"x_min":15,"x_max":449,"o":"m 371 -214 l 371 0 l 94 0 l 94 -214 l 15 -214 l 15 96 l 28 96 q 54 107 44 96 q 71 140 64 117 q 83 215 78 164 q 94 349 89 265 q 103 565 99 433 l 114 922 l 406 922 l 406 96 l 449 96 l 449 -214 l 371 -214 m 301 828 l 197 828 l 189 564 q 181 378 185 457 q 173 242 178 299 q 162 150 168 186 q 147 96 156 114 l 301 96 l 301 828 z "},"Ж":{"ha":606,"x_min":8,"x_max":597,"o":"m 8 0 l 168 469 l 14 922 l 122 922 l 246 556 l 251 556 l 251 922 l 354 922 l 354 556 l 360 556 l 485 922 l 592 922 l 438 469 l 597 0 l 488 0 l 360 401 l 354 401 l 354 0 l 251 0 l 251 401 l 246 401 l 118 0 l 8 0 z "},"И":{"ha":408,"x_min":26,"x_max":382,"o":"m 281 0 l 281 649 l 276 649 l 136 0 l 26 0 l 26 922 l 128 922 l 128 314 l 133 314 l 267 922 l 382 922 l 382 0 l 281 0 z "},"Й":{"ha":408,"x_min":26,"x_max":382,"o":"m 26 0 m 206 946 q 103 993 143 946 q 64 1129 64 1040 l 136 1129 q 156 1039 139 1067 q 206 1011 172 1011 q 256 1039 239 1011 q 275 1129 274 1067 l 350 1129 q 310 993 350 1040 q 206 946 269 946 m 281 0 l 281 649 l 276 649 l 136 0 l 26 0 l 26 922 l 128 922 l 128 314 l 133 314 l 267 922 l 382 922 l 382 0 l 281 0 z "},"Л":{"ha":432,"x_min":18,"x_max":404,"o":"m 300 0 l 300 828 l 196 828 l 186 564 q 178 373 182 456 q 168 230 174 290 q 155 130 163 169 q 139 67 147 90 q 97 13 124 26 q 33 0 71 0 l 18 0 l 18 96 l 26 96 q 51 102 42 96 q 68 131 61 108 q 77 181 72 149 q 86 266 82 214 q 94 392 90 318 q 100 565 97 465 l 111 922 l 404 922 l 404 0 l 300 0 z "},"У":{"ha":383,"x_min":26,"x_max":356,"o":"m 253 407 l 247 407 q 205 365 233 379 q 142 350 176 350 q 26 525 26 350 l 26 922 l 129 922 l 129 518 q 142 464 129 482 q 185 446 154 446 q 253 507 238 446 l 253 922 l 356 922 l 356 171 q 315 40 356 85 q 192 -6 274 -6 q 69 37 113 -6 q 26 168 26 79 l 26 307 l 129 307 l 129 163 q 190 90 129 90 q 253 163 253 90 l 253 407 z "},"Ц":{"ha":419,"x_min":26,"x_max":404,"o":"m 325 -214 l 325 0 l 26 0 l 26 922 l 132 922 l 132 96 l 257 96 l 257 922 l 363 922 l 363 96 l 404 96 l 404 -214 l 325 -214 z "},"Ч":{"ha":383,"x_min":26,"x_max":356,"o":"m 253 0 l 253 406 l 247 406 q 203 388 228 394 q 149 382 178 382 q 54 417 82 382 q 26 539 26 453 l 26 922 l 129 922 l 129 544 q 141 493 129 508 q 185 478 153 478 q 223 483 204 478 q 253 501 242 489 l 253 922 l 356 922 l 356 0 l 253 0 z "},"Ш":{"ha":576,"x_min":26,"x_max":550,"o":"m 26 0 l 26 922 l 132 922 l 132 96 l 239 96 l 239 922 l 338 922 l 338 96 l 444 96 l 444 922 l 550 922 l 550 0 l 26 0 z "},"Щ":{"ha":608,"x_min":26,"x_max":592,"o":"m 514 -214 l 514 0 l 26 0 l 26 922 l 132 922 l 132 96 l 239 96 l 239 922 l 338 922 l 338 96 l 444 96 l 444 922 l 550 922 l 550 96 l 592 96 l 592 -214 l 514 -214 z "},"Ъ":{"ha":493,"x_min":18,"x_max":474,"o":"m 146 826 l 18 826 l 18 922 l 251 922 l 251 538 l 340 538 q 447 497 419 538 q 474 378 474 457 l 474 140 q 444 38 474 76 q 340 0 415 0 l 146 0 l 146 826 m 319 93 q 363 109 351 93 q 375 160 375 125 l 375 383 q 363 432 375 418 q 315 446 350 446 l 251 446 l 251 93 l 319 93 z "},"Ы":{"ha":526,"x_min":26,"x_max":500,"o":"m 26 0 m 394 0 l 394 922 l 500 922 l 500 0 l 394 0 m 132 538 l 221 538 q 324 504 296 538 q 353 403 353 471 l 353 140 q 324 38 353 76 q 221 0 294 0 l 26 0 l 26 922 l 132 922 l 132 538 m 200 93 q 243 111 232 93 q 254 164 254 129 l 254 379 q 243 432 254 418 q 200 446 232 446 l 132 446 l 132 93 l 200 93 z "},"Ь":{"ha":372,"x_min":26,"x_max":353,"o":"m 132 538 l 221 538 q 324 504 296 538 q 353 403 353 471 l 353 140 q 324 38 353 76 q 221 0 294 0 l 26 0 l 26 922 l 132 922 l 132 538 m 200 93 q 243 111 232 93 q 254 164 254 129 l 254 379 q 243 432 254 418 q 200 446 232 446 l 132 446 l 132 93 l 200 93 z "},"Э":{"ha":378,"x_min":26,"x_max":351,"o":"m 26 268 l 125 268 l 125 163 q 186 90 125 90 q 247 163 247 90 l 247 442 l 135 442 l 135 528 l 247 528 l 247 757 q 186 831 247 831 q 125 757 125 831 l 125 661 l 26 661 l 26 747 q 68 881 26 833 q 189 928 110 928 q 310 881 268 928 q 351 749 351 835 l 351 171 q 310 40 351 85 q 188 -6 269 -6 q 26 168 26 -6 l 26 268 z "},"Ю":{"ha":568,"x_min":26,"x_max":540,"o":"m 26 0 l 26 922 l 132 922 l 132 533 l 210 533 l 210 749 q 253 881 210 835 q 375 928 296 928 q 497 880 454 928 q 540 746 540 832 l 540 168 q 498 38 540 81 q 376 -6 456 -6 q 252 40 294 -6 q 210 171 210 85 l 210 440 l 132 440 l 132 0 l 26 0 m 438 757 q 375 831 438 831 q 313 757 313 831 l 313 163 q 375 90 313 90 q 438 163 438 90 l 438 757 z "},"Я":{"ha":372,"x_min":8,"x_max":346,"o":"m 8 0 l 86 400 q 33 457 46 418 q 19 550 19 496 l 19 754 q 24 826 19 794 q 44 878 29 857 q 84 911 58 900 q 151 922 110 922 l 346 922 l 346 0 l 240 0 l 240 389 l 183 389 l 114 0 l 8 0 m 118 542 q 132 491 118 506 q 172 476 146 476 l 240 476 l 240 828 l 172 828 q 130 809 142 828 q 118 754 118 790 l 118 542 z "},"б":{"ha":376,"x_min":29,"x_max":347,"o":"m 246 522 q 189 590 246 590 q 148 575 161 590 q 126 526 135 560 l 126 149 q 141 97 126 113 q 186 82 156 82 q 231 97 217 82 q 246 149 246 113 l 246 522 m 347 124 q 308 28 347 61 q 189 -6 269 -6 q 67 32 106 -6 q 29 151 29 69 l 29 742 q 34 828 29 792 q 51 888 39 864 q 86 922 64 911 q 143 933 108 933 l 215 933 q 268 985 260 933 l 329 985 q 250 843 329 843 l 182 843 q 137 819 150 843 q 124 742 124 794 l 124 614 l 129 614 q 232 676 160 676 q 317 643 286 676 q 347 547 347 610 l 347 124 z "},"в":{"ha":371,"x_min":29,"x_max":347,"o":"m 338 450 q 271 360 338 372 l 271 354 q 347 253 347 342 l 347 132 q 312 33 347 67 q 194 0 276 0 l 29 0 l 29 671 l 196 671 q 338 557 338 671 l 338 450 m 129 321 l 129 82 l 196 82 q 238 97 225 82 q 250 139 250 111 l 250 265 q 190 321 250 321 l 129 321 m 246 540 q 194 586 246 586 l 129 586 l 129 388 l 192 388 q 246 431 246 388 l 246 540 z "},"г":{"ha":254,"x_min":29,"x_max":238,"o":"m 29 0 l 29 671 l 238 671 l 238 581 l 129 581 l 129 0 l 29 0 z "},"д":{"ha":439,"x_min":15,"x_max":422,"o":"m 344 -208 l 344 0 l 94 0 l 94 -208 l 15 -208 l 15 89 l 31 89 q 56 103 46 89 q 74 154 67 118 q 87 251 82 190 q 96 403 92 311 l 107 671 l 381 671 l 381 89 l 422 89 l 422 -208 l 344 -208 m 279 581 l 183 581 l 174 419 q 166 288 169 343 q 158 193 163 232 q 149 129 154 154 q 138 89 144 104 l 279 89 l 279 581 z "},"ж":{"ha":563,"x_min":8,"x_max":554,"o":"m 449 0 l 335 294 l 329 294 l 329 0 l 232 0 l 232 294 l 226 294 l 114 0 l 8 0 l 150 344 l 14 671 l 118 671 l 226 407 l 232 407 l 232 671 l 329 671 l 329 407 l 335 407 l 444 671 l 547 671 l 411 344 l 554 0 l 449 0 z "},"з":{"ha":367,"x_min":28,"x_max":340,"o":"m 340 124 q 303 28 340 63 q 183 -6 267 -6 q 28 129 28 -6 l 28 240 l 124 240 l 124 146 q 185 81 124 81 q 242 136 242 81 l 242 263 q 176 321 242 321 l 138 321 l 138 388 l 178 388 q 224 400 211 388 q 238 436 238 413 l 238 533 q 182 590 238 590 q 122 535 122 590 l 122 464 l 28 464 l 28 543 q 67 642 28 608 q 183 676 106 676 q 329 551 329 676 l 329 444 q 261 358 329 372 l 261 353 q 317 326 293 347 q 340 251 340 304 l 340 124 z "},"и":{"ha":393,"x_min":29,"x_max":364,"o":"m 264 0 l 264 439 l 260 439 l 133 0 l 29 0 l 29 671 l 128 671 l 128 235 l 133 235 l 257 671 l 364 671 l 364 0 l 264 0 z "},"й":{"ha":393,"x_min":29,"x_max":364,"o":"m 29 0 m 196 701 q 94 749 133 701 q 54 885 54 796 l 126 885 q 146 794 129 822 q 196 767 163 767 q 247 794 229 767 q 265 885 264 822 l 340 885 q 300 749 340 796 q 196 701 260 701 m 264 0 l 264 439 l 260 439 l 133 0 l 29 0 l 29 671 l 128 671 l 128 235 l 133 235 l 257 671 l 364 671 l 364 0 l 264 0 z "},"л":{"ha":403,"x_min":15,"x_max":374,"o":"m 274 0 l 274 581 l 176 581 l 168 426 q 158 264 163 331 q 147 153 153 197 q 135 84 142 110 q 119 43 128 58 q 86 10 107 19 q 29 0 65 0 l 15 0 l 15 89 l 24 89 q 58 110 46 89 q 69 142 64 121 q 77 199 74 163 q 84 290 81 235 q 90 428 88 346 l 100 671 l 374 671 l 374 0 l 274 0 z "},"м":{"ha":500,"x_min":29,"x_max":471,"o":"m 383 0 l 383 367 q 384 447 383 417 q 388 507 385 478 l 382 507 l 293 0 l 206 0 l 118 507 l 113 507 q 115 448 114 479 q 115 367 115 417 l 115 0 l 29 0 l 29 671 l 176 671 l 250 186 l 254 186 l 326 671 l 471 671 l 471 0 l 383 0 z "},"н":{"ha":381,"x_min":29,"x_max":351,"o":"m 251 0 l 251 304 l 129 304 l 129 0 l 29 0 l 29 671 l 129 671 l 129 394 l 251 394 l 251 671 l 351 671 l 351 0 l 251 0 z "},"п":{"ha":381,"x_min":29,"x_max":351,"o":"m 251 0 l 251 581 l 129 581 l 129 0 l 29 0 l 29 671 l 351 671 l 351 0 l 251 0 z "},"т":{"ha":319,"x_min":18,"x_max":301,"o":"m 110 0 l 110 581 l 18 581 l 18 671 l 301 671 l 301 581 l 210 581 l 210 0 l 110 0 z "},"ц":{"ha":410,"x_min":29,"x_max":394,"o":"m 315 -197 l 315 0 l 29 0 l 29 671 l 129 671 l 129 89 l 251 89 l 251 671 l 351 671 l 351 89 l 394 89 l 394 -197 l 315 -197 z "},"ч":{"ha":379,"x_min":26,"x_max":350,"o":"m 250 0 l 250 285 l 244 285 q 204 269 228 275 q 146 264 181 264 q 54 288 82 264 q 26 369 26 313 l 26 671 l 126 671 l 126 394 q 140 360 126 371 q 188 350 153 350 q 250 364 229 350 l 250 671 l 350 671 l 350 0 l 250 0 z "},"ш":{"ha":557,"x_min":29,"x_max":529,"o":"m 29 0 l 29 671 l 129 671 l 129 89 l 233 89 l 233 671 l 324 671 l 324 89 l 428 89 l 428 671 l 529 671 l 529 0 l 29 0 z "},"щ":{"ha":588,"x_min":29,"x_max":571,"o":"m 493 -197 l 493 0 l 29 0 l 29 671 l 129 671 l 129 89 l 233 89 l 233 671 l 324 671 l 324 89 l 428 89 l 428 671 l 529 671 l 529 89 l 571 89 l 571 -197 l 493 -197 z "},"ъ":{"ha":450,"x_min":11,"x_max":428,"o":"m 215 421 l 300 421 q 399 393 371 421 q 428 310 428 365 l 428 104 q 399 28 428 56 q 300 0 371 0 l 115 0 l 115 581 l 11 581 l 11 671 l 215 671 l 215 421 m 281 86 q 322 99 311 86 q 333 136 333 113 l 333 290 q 281 338 333 338 l 215 338 l 215 86 l 281 86 z "},"ы":{"ha":511,"x_min":29,"x_max":481,"o":"m 29 0 m 129 421 l 214 421 q 313 392 285 421 q 342 308 342 364 l 342 104 q 313 28 342 56 q 214 0 285 0 l 29 0 l 29 671 l 129 671 l 129 421 m 194 86 q 247 135 247 86 l 247 290 q 194 338 247 338 l 129 338 l 129 86 l 194 86 m 381 0 l 381 671 l 481 671 l 481 0 l 381 0 z "},"ь":{"ha":364,"x_min":29,"x_max":342,"o":"m 129 421 l 214 421 q 313 392 285 421 q 342 308 342 364 l 342 104 q 313 28 342 56 q 214 0 285 0 l 29 0 l 29 671 l 129 671 l 129 421 m 194 86 q 247 135 247 86 l 247 290 q 194 338 247 338 l 129 338 l 129 86 l 194 86 z "},"э":{"ha":369,"x_min":29,"x_max":340,"o":"m 135 315 l 135 388 l 243 388 l 243 524 q 183 590 243 590 q 140 575 153 590 q 126 535 126 560 l 126 468 l 32 468 l 32 538 q 67 640 32 604 q 182 676 101 676 q 340 519 340 676 l 340 151 q 183 -6 340 -6 q 65 33 101 -6 q 29 150 29 71 l 29 236 l 125 236 l 125 146 q 183 81 125 81 q 243 147 243 81 l 243 315 l 135 315 z "},"ю":{"ha":547,"x_min":29,"x_max":518,"o":"m 518 151 q 480 32 518 69 q 360 -6 442 -6 q 242 32 279 -6 q 206 151 206 69 l 206 306 l 126 306 l 126 0 l 29 0 l 29 671 l 126 671 l 126 394 l 206 394 l 206 519 q 242 639 206 601 q 360 676 279 676 q 480 639 442 676 q 518 519 518 601 l 518 151 m 421 519 q 360 586 421 586 q 300 519 300 586 l 300 151 q 360 85 300 85 q 421 151 421 85 l 421 519 z "},"я":{"ha":371,"x_min":8,"x_max":342,"o":"m 8 0 l 93 268 q 41 308 53 279 q 29 381 29 338 l 29 567 q 57 644 29 617 q 156 671 85 671 l 342 671 l 342 0 l 242 0 l 242 261 l 186 261 l 113 0 l 8 0 m 124 388 q 138 350 124 360 q 176 340 151 340 l 242 340 l 242 585 l 176 585 q 134 571 144 585 q 124 531 124 557 l 124 388 z "},"ђ":{"ha":379,"x_min":0,"x_max":351,"o":"m 129 769 l 129 610 l 135 610 q 239 676 163 676 q 326 638 301 676 q 351 540 351 599 l 351 -167 q 190 -324 351 -324 q 71 -285 108 -324 q 33 -167 33 -246 l 33 -37 l 129 -37 l 129 -167 q 189 -233 129 -233 q 250 -167 250 -233 l 250 526 q 194 589 250 589 q 149 570 165 589 q 129 507 132 551 l 129 0 l 29 0 l 29 769 l 0 769 l 0 833 l 29 833 l 29 933 l 129 933 l 129 833 l 246 833 l 246 769 l 129 769 z "},"ѓ":{"ha":254,"x_min":29,"x_max":253,"o":"m 29 0 m 85 701 l 46 742 l 200 926 l 253 865 l 85 701 m 29 0 l 29 671 l 238 671 l 238 581 l 129 581 l 129 0 l 29 0 z "},"є":{"ha":369,"x_min":29,"x_max":340,"o":"m 126 315 l 126 147 q 186 81 126 81 q 244 146 244 81 l 244 236 l 340 236 l 340 150 q 303 33 340 71 q 186 -6 267 -6 q 29 151 29 -6 l 29 519 q 186 676 29 676 q 302 640 267 676 q 338 538 338 604 l 338 468 l 243 468 l 243 535 q 230 575 243 560 q 186 590 217 590 q 126 524 126 590 l 126 388 l 233 388 l 233 315 l 126 315 z "},"љ":{"ha":608,"x_min":15,"x_max":586,"o":"m 274 0 l 274 581 l 176 581 l 168 426 q 158 264 163 331 q 147 153 153 197 q 135 84 142 110 q 119 43 128 58 q 86 10 107 19 q 29 0 65 0 l 15 0 l 15 89 l 24 89 q 58 110 46 89 q 69 142 64 121 q 77 199 74 163 q 84 290 81 235 q 90 428 88 346 l 100 671 l 374 671 l 374 421 l 460 421 q 558 392 531 421 q 586 308 586 364 l 586 104 q 558 28 586 56 q 460 0 529 0 l 274 0 m 439 86 q 492 135 492 86 l 492 290 q 439 338 492 338 l 374 338 l 374 86 l 439 86 z "},"њ":{"ha":586,"x_min":29,"x_max":564,"o":"m 351 421 l 438 421 q 536 392 508 421 q 564 308 564 364 l 564 104 q 536 28 564 56 q 438 0 508 0 l 251 0 l 251 338 l 129 338 l 129 0 l 29 0 l 29 671 l 129 671 l 129 421 l 251 421 l 251 671 l 351 671 l 351 421 m 417 86 q 469 135 469 86 l 469 290 q 417 338 469 338 l 351 338 l 351 86 l 417 86 z "},"ќ":{"ha":375,"x_min":29,"x_max":367,"o":"m 29 0 m 150 701 l 111 742 l 265 926 l 318 865 l 150 701 m 260 0 l 176 278 l 171 278 l 129 189 l 129 0 l 29 0 l 29 671 l 129 671 l 129 385 l 135 385 q 142 406 138 393 q 158 449 146 419 q 193 531 169 478 q 258 671 217 583 l 367 671 l 249 394 l 365 0 l 260 0 z "},"ѝ":{"ha":393,"x_min":29,"x_max":364,"o":"m 29 0 m 75 865 l 128 926 l 282 742 l 243 701 l 75 865 m 264 0 l 264 439 l 260 439 l 133 0 l 29 0 l 29 671 l 128 671 l 128 235 l 133 235 l 257 671 l 364 671 l 364 0 l 264 0 z "},"ў":{"ha":376,"x_min":29,"x_max":347,"o":"m 29 0 m 131 160 q 145 108 131 124 q 188 92 160 92 q 229 108 215 92 q 251 164 243 125 l 251 671 l 347 671 l 347 -167 q 188 -324 347 -324 q 69 -285 107 -324 q 32 -167 32 -246 l 32 -42 l 128 -42 l 128 -167 q 188 -233 128 -233 q 249 -167 249 -233 l 249 64 l 243 64 q 203 14 228 28 q 142 0 178 0 q 54 36 79 0 q 29 139 29 72 l 29 671 l 131 671 l 131 160 m 192 701 q 90 749 129 701 q 50 885 50 796 l 122 885 q 142 794 125 822 q 192 767 158 767 q 242 794 225 767 q 261 885 260 822 l 336 885 q 296 749 336 796 q 192 701 256 701 z "},"џ":{"ha":381,"x_min":29,"x_max":351,"o":"m 150 -197 l 150 0 l 29 0 l 29 671 l 129 671 l 129 89 l 251 89 l 251 671 l 351 671 l 351 0 l 229 0 l 229 -197 l 150 -197 z "},"Ґ":{"ha":308,"x_min":26,"x_max":293,"o":"m 26 0 l 26 922 l 214 922 l 214 1122 l 293 1122 l 293 826 l 132 826 l 132 0 l 26 0 z "},"ґ":{"ha":254,"x_min":29,"x_max":238,"o":"m 29 0 l 29 671 l 160 671 l 160 847 l 238 847 l 238 581 l 129 581 l 129 0 l 29 0 z "},"Ғ":{"ha":329,"x_min":6,"x_max":311,"o":"m 44 0 l 44 407 l 6 407 l 6 488 l 44 488 l 44 922 l 311 922 l 311 826 l 149 826 l 149 488 l 253 488 l 253 407 l 149 407 l 149 0 l 44 0 z "},"ғ":{"ha":268,"x_min":6,"x_max":253,"o":"m 43 0 l 43 271 l 6 271 l 6 335 l 43 335 l 43 671 l 253 671 l 253 581 l 143 581 l 143 335 l 253 335 l 253 271 l 143 271 l 143 0 l 43 0 z "},"Җ":{"ha":656,"x_min":8,"x_max":640,"o":"m 8 0 l 168 469 l 14 922 l 122 922 l 246 556 l 251 556 l 251 922 l 354 922 l 354 556 l 360 556 l 485 922 l 592 922 l 438 469 l 564 96 l 640 96 l 640 -189 l 561 -189 l 561 0 l 488 0 l 360 401 l 354 401 l 354 0 l 251 0 l 251 401 l 246 401 l 118 0 l 8 0 z "},"җ":{"ha":615,"x_min":8,"x_max":600,"o":"m 521 -189 l 521 0 l 449 0 l 335 294 l 329 294 l 329 0 l 232 0 l 232 294 l 226 294 l 114 0 l 8 0 l 150 344 l 14 671 l 118 671 l 226 407 l 232 407 l 232 671 l 329 671 l 329 407 l 335 407 l 444 671 l 547 671 l 411 344 l 514 96 l 600 96 l 600 -189 l 521 -189 z "},"Ҙ":{"ha":371,"x_min":26,"x_max":351,"o":"m 107 -207 q 130 -212 117 -211 q 156 -214 143 -214 q 192 -205 181 -214 q 204 -171 204 -196 l 204 -133 q 193 -65 204 -99 q 156 -4 182 -32 q 26 168 26 11 l 26 268 l 125 268 l 125 163 q 186 90 125 90 q 249 163 249 90 l 249 378 q 233 427 249 410 q 179 444 217 444 l 136 444 l 136 531 l 183 531 q 233 548 219 531 q 246 594 246 565 l 246 765 q 231 812 246 793 q 186 831 217 831 q 141 813 157 831 q 125 764 125 794 l 125 661 l 26 661 l 26 754 q 68 881 26 835 q 186 928 110 928 q 257 915 228 928 q 305 880 286 901 q 333 831 324 858 q 342 775 342 803 l 342 604 q 269 494 342 507 l 269 489 q 327 455 303 482 q 351 371 351 428 l 351 171 q 317 47 351 92 q 214 -3 282 3 l 214 -11 q 258 -78 243 -39 q 274 -161 274 -117 l 274 -201 q 249 -281 274 -258 q 175 -303 225 -303 q 107 -289 133 -303 l 107 -207 z "},"ҙ":{"ha":367,"x_min":28,"x_max":340,"o":"m 340 124 q 307 31 340 65 q 199 -6 274 -3 l 199 -15 q 252 -76 233 -39 q 271 -161 271 -112 l 271 -201 q 246 -281 271 -258 q 172 -303 221 -303 q 135 -299 153 -303 q 104 -289 117 -296 l 104 -207 q 126 -212 113 -211 q 151 -214 140 -214 q 190 -205 178 -214 q 201 -171 201 -196 l 201 -133 q 184 -60 201 -94 q 128 0 167 -25 q 28 129 28 21 l 28 240 l 124 240 l 124 146 q 185 81 124 81 q 242 136 242 81 l 242 263 q 176 321 242 321 l 138 321 l 138 388 l 178 388 q 224 400 211 388 q 238 436 238 413 l 238 533 q 182 590 238 590 q 122 535 122 590 l 122 464 l 28 464 l 28 543 q 67 642 28 608 q 183 676 106 676 q 329 551 329 676 l 329 444 q 261 358 329 372 l 261 353 q 317 326 293 347 q 340 251 340 304 l 340 124 z "},"Қ":{"ha":443,"x_min":26,"x_max":426,"o":"m 349 -189 l 349 0 l 267 0 l 181 394 l 176 394 l 133 276 l 133 0 l 26 0 l 26 922 l 133 922 l 133 536 l 139 536 q 168 625 150 576 q 203 718 186 674 l 268 922 l 374 922 l 253 561 l 351 96 l 426 96 l 426 -189 l 349 -189 z "},"қ":{"ha":424,"x_min":29,"x_max":407,"o":"m 329 -189 l 329 0 l 260 0 l 176 278 l 171 278 l 129 189 l 129 0 l 29 0 l 29 671 l 129 671 l 129 388 l 135 388 l 160 463 l 258 671 l 367 671 l 249 394 l 336 96 l 407 96 l 407 -189 l 329 -189 z "},"Ҡ":{"ha":535,"x_min":18,"x_max":526,"o":"m 179 0 l 179 826 l 18 826 l 18 922 l 285 922 l 285 536 l 290 536 q 321 625 303 576 q 356 718 339 674 l 419 922 l 526 922 l 406 561 l 525 0 l 419 0 l 333 394 l 328 394 l 285 276 l 285 0 l 179 0 z "},"ҡ":{"ha":474,"x_min":18,"x_max":464,"o":"m 126 0 l 126 581 l 18 581 l 18 671 l 228 671 l 228 388 l 232 388 l 257 463 l 356 671 l 464 671 l 346 394 l 463 0 l 357 0 l 274 278 l 268 278 l 228 192 l 228 0 l 126 0 z "},"Ң":{"ha":419,"x_min":26,"x_max":404,"o":"m 325 -189 l 325 0 l 257 0 l 257 443 l 132 443 l 132 0 l 26 0 l 26 922 l 132 922 l 132 538 l 257 538 l 257 922 l 363 922 l 363 96 l 404 96 l 404 -189 l 325 -189 z "},"ң":{"ha":424,"x_min":29,"x_max":407,"o":"m 329 -189 l 329 0 l 251 0 l 251 304 l 129 304 l 129 0 l 29 0 l 29 671 l 129 671 l 129 394 l 251 394 l 251 671 l 351 671 l 351 96 l 407 96 l 407 -189 l 329 -189 z "},"Ҫ":{"ha":378,"x_min":26,"x_max":351,"o":"m 114 -207 q 137 -212 124 -211 q 161 -214 150 -214 q 199 -205 188 -214 q 211 -171 211 -196 l 211 -133 q 193 -58 211 -93 q 133 1 175 -24 q 26 171 26 29 l 26 753 q 189 928 26 928 q 308 886 268 928 q 350 753 349 844 l 351 592 l 253 592 l 253 757 q 192 831 253 831 q 131 757 131 831 l 131 164 q 190 90 131 90 q 253 163 253 90 l 253 376 l 351 376 l 351 168 q 313 40 351 82 q 200 -6 275 -3 l 200 -11 q 281 -161 281 -58 l 281 -201 q 256 -281 281 -258 q 182 -303 232 -303 q 114 -289 140 -303 l 114 -207 z "},"ҫ":{"ha":369,"x_min":29,"x_max":340,"o":"m 103 -207 q 126 -212 113 -211 q 150 -214 139 -214 q 188 -205 176 -214 q 200 -171 200 -196 l 200 -133 q 181 -58 200 -93 q 118 3 163 -22 q 29 151 29 29 l 29 519 q 186 676 29 676 q 303 638 267 676 q 340 519 340 599 l 340 426 l 244 426 l 244 519 q 186 586 244 586 q 126 519 126 586 l 126 151 q 186 85 126 85 q 244 151 244 85 l 244 247 l 340 247 l 340 151 q 305 35 340 72 q 192 -6 269 -3 l 192 -12 q 269 -161 269 -60 l 269 -201 q 245 -281 269 -258 q 171 -303 221 -303 q 133 -299 151 -303 q 103 -289 115 -296 l 103 -207 z "},"γ":{"ha":354,"x_min":8,"x_max":346,"o":"m 129 -324 l 129 -56 l 8 671 l 111 671 l 178 157 l 183 157 l 249 671 l 346 671 l 228 -56 l 228 -324 l 129 -324 z "},"Ҳ":{"ha":453,"x_min":10,"x_max":436,"o":"m 390 922 l 269 481 l 369 96 l 436 96 l 436 -189 l 358 -189 l 358 0 l 288 0 l 204 347 l 199 347 l 115 0 l 10 0 l 136 467 l 14 922 l 119 922 l 201 593 l 207 593 l 288 922 l 390 922 z "},"ҳ":{"ha":422,"x_min":8,"x_max":406,"o":"m 360 671 l 250 350 l 332 96 l 406 96 l 406 -189 l 328 -189 l 328 0 l 258 0 l 188 240 l 182 240 l 111 0 l 8 0 l 122 342 l 13 671 l 115 671 l 186 443 l 192 443 l 258 671 l 360 671 z "},"Ҷ":{"ha":419,"x_min":26,"x_max":404,"o":"m 325 -189 l 325 0 l 253 0 l 253 406 l 247 406 q 203 388 228 394 q 149 382 178 382 q 54 417 82 382 q 26 539 26 453 l 26 922 l 129 922 l 129 544 q 141 493 129 508 q 185 478 153 478 q 223 483 204 478 q 253 501 242 489 l 253 922 l 356 922 l 356 96 l 404 96 l 404 -189 l 325 -189 z "},"ҷ":{"ha":414,"x_min":26,"x_max":399,"o":"m 319 -189 l 319 0 l 250 0 l 250 285 l 244 285 q 204 269 228 275 q 146 264 181 264 q 54 288 82 264 q 26 369 26 313 l 26 671 l 126 671 l 126 394 q 140 360 126 371 q 188 350 153 350 q 250 364 229 350 l 250 671 l 350 671 l 350 96 l 399 96 l 399 -189 l 319 -189 z "},"Һ":{"ha":383,"x_min":28,"x_max":357,"o":"m 131 922 l 131 517 l 136 517 q 181 534 156 528 q 235 540 206 540 q 329 505 301 540 q 357 383 357 469 l 357 0 l 256 0 l 256 378 q 243 429 256 414 q 199 444 231 444 q 161 439 181 444 q 131 421 142 433 l 131 0 l 28 0 l 28 922 l 131 922 z "},"Ӄ":{"ha":383,"x_min":26,"x_max":374,"o":"m 210 -233 q 268 -167 268 -233 l 268 0 l 181 394 l 176 394 l 133 276 l 133 0 l 26 0 l 26 922 l 133 922 l 133 536 l 139 536 q 168 625 150 576 q 203 718 186 674 l 268 922 l 374 922 l 253 561 l 372 0 l 372 -167 q 210 -324 372 -324 l 210 -233 z "},"ӄ":{"ha":375,"x_min":29,"x_max":367,"o":"m 204 -233 q 264 -167 264 -233 l 264 -24 l 176 278 l 171 278 l 129 189 l 129 0 l 29 0 l 29 671 l 129 671 l 129 388 l 135 388 l 160 463 l 258 671 l 367 671 l 249 394 l 365 0 l 365 -167 q 204 -324 365 -324 l 204 -233 z "},"Ӈ":{"ha":389,"x_min":26,"x_max":363,"o":"m 196 -233 q 257 -167 257 -233 l 257 443 l 132 443 l 132 0 l 26 0 l 26 922 l 132 922 l 132 538 l 257 538 l 257 922 l 363 922 l 363 -167 q 320 -285 363 -246 q 197 -324 278 -324 l 196 -233 z "},"ӈ":{"ha":381,"x_min":29,"x_max":351,"o":"m 190 -233 q 251 -167 251 -233 l 251 304 l 129 304 l 129 0 l 29 0 l 29 671 l 129 671 l 129 394 l 251 394 l 251 671 l 351 671 l 351 -167 q 192 -324 351 -324 l 190 -233 z "},"Ө":{"ha":376,"x_min":22,"x_max":354,"o":"m 354 168 q 311 38 354 81 q 189 -6 268 -6 q 65 40 107 -6 q 22 171 22 85 l 22 749 q 65 881 22 835 q 188 928 108 928 q 310 881 267 928 q 354 747 354 833 l 354 168 m 250 426 l 126 426 l 126 163 q 189 90 126 90 q 250 163 250 90 l 250 426 m 126 519 l 250 519 l 250 757 q 188 831 250 831 q 126 757 126 831 l 126 519 z "},"ө":{"ha":372,"x_min":29,"x_max":343,"o":"m 343 151 q 305 32 343 69 q 186 -6 267 -6 q 67 32 106 -6 q 29 151 29 69 l 29 519 q 67 639 29 601 q 186 676 106 676 q 305 639 267 676 q 343 519 343 601 l 343 151 m 246 310 l 126 310 l 126 151 q 186 85 126 85 q 246 151 246 85 l 246 310 m 126 374 l 246 374 l 246 519 q 186 586 246 586 q 126 519 126 586 l 126 374 z "},"Ӯ":{"ha":383,"x_min":26,"x_max":356,"o":"m 26 0 m 69 1004 l 69 1068 l 317 1068 l 317 1004 l 69 1004 m 253 407 l 247 407 q 205 365 233 379 q 142 350 176 350 q 26 525 26 350 l 26 922 l 129 922 l 129 518 q 142 464 129 482 q 185 446 154 446 q 253 507 238 446 l 253 922 l 356 922 l 356 171 q 315 40 356 85 q 192 -6 274 -6 q 69 37 113 -6 q 26 168 26 79 l 26 307 l 129 307 l 129 163 q 190 90 129 90 q 253 163 253 90 l 253 407 z "},"ӯ":{"ha":376,"x_min":29,"x_max":347,"o":"m 29 0 m 131 160 q 145 108 131 124 q 188 92 160 92 q 229 108 215 92 q 251 164 243 125 l 251 671 l 347 671 l 347 -167 q 188 -324 347 -324 q 69 -285 107 -324 q 32 -167 32 -246 l 32 -42 l 128 -42 l 128 -167 q 188 -233 128 -233 q 249 -167 249 -233 l 249 64 l 243 64 q 203 14 228 28 q 142 0 178 0 q 54 36 79 0 q 29 139 29 72 l 29 671 l 131 671 l 131 160 m 69 760 l 69 824 l 317 824 l 317 760 l 69 760 z "},"Ԓ":{"ha":432,"x_min":18,"x_max":404,"o":"m 239 -233 q 300 -167 300 -233 l 300 828 l 196 828 l 186 564 q 178 373 182 456 q 168 230 174 290 q 155 130 163 169 q 139 67 147 90 q 97 13 124 26 q 33 0 71 0 l 18 0 l 18 96 l 26 96 q 51 102 42 96 q 68 131 61 108 q 77 181 72 149 q 86 266 82 214 q 94 392 90 318 q 100 565 97 465 l 111 922 l 404 922 l 404 -167 q 362 -285 404 -246 q 238 -324 319 -324 l 239 -233 z "},"ԓ":{"ha":403,"x_min":15,"x_max":374,"o":"m 213 -233 q 274 -167 274 -233 l 274 581 l 176 581 l 168 426 q 158 264 163 331 q 147 153 153 197 q 135 84 142 110 q 119 43 128 58 q 86 10 107 19 q 29 0 65 0 l 15 0 l 15 89 l 24 89 q 58 110 46 89 q 69 142 64 121 q 77 199 74 163 q 84 290 81 235 q 90 428 88 346 l 100 671 l 374 671 l 374 -167 q 213 -324 374 -324 l 213 -233 z "},"֏":{"ha":407,"x_min":18,"x_max":390,"o":"m 240 0 l 240 215 l 86 215 l 86 279 l 240 279 l 240 407 l 86 407 l 86 471 l 240 471 l 240 760 q 178 832 240 832 q 117 760 117 832 l 117 574 l 18 574 l 18 754 q 179 928 18 928 q 302 883 261 928 q 343 751 343 838 l 343 471 l 390 471 l 390 407 l 343 407 l 343 279 l 390 279 l 390 215 l 343 215 l 343 0 l 240 0 z "},"Ḍ":{"ha":385,"x_min":26,"x_max":358,"o":"m 26 0 m 26 0 l 26 922 l 199 922 q 358 761 358 922 l 358 171 q 318 42 358 83 q 199 0 278 0 l 26 0 m 192 94 q 240 120 228 94 q 253 192 253 146 l 253 733 q 239 803 253 778 q 185 828 225 828 l 129 828 l 129 94 l 192 94 m 131 -196 l 131 -68 l 231 -68 l 231 -196 l 131 -196 z "},"ḍ":{"ha":376,"x_min":29,"x_max":347,"o":"m 29 0 m 131 149 q 145 97 131 113 q 188 82 160 82 q 229 99 215 82 q 251 157 243 117 l 251 514 q 231 573 244 556 q 189 590 218 590 q 146 574 161 590 q 131 522 131 558 l 131 149 m 258 0 l 256 68 l 250 68 q 146 -6 219 -6 q 60 28 90 -6 q 29 125 29 63 l 29 547 q 60 643 29 610 q 146 676 92 676 q 204 662 181 676 q 243 614 228 647 l 249 614 l 249 933 l 347 933 l 347 0 l 258 0 m 142 -196 l 142 -68 l 242 -68 l 242 -196 l 142 -196 z "},"Ḓ":{"ha":385,"x_min":25,"x_max":358,"o":"m 25 0 m 26 0 l 26 922 l 199 922 q 358 761 358 922 l 358 171 q 318 42 358 83 q 199 0 278 0 l 26 0 m 192 94 q 240 120 228 94 q 253 192 253 146 l 253 733 q 239 803 253 778 q 185 828 225 828 l 129 828 l 129 94 l 192 94 m 261 -262 l 165 -139 l 69 -262 l 25 -228 l 119 -79 l 210 -79 l 304 -228 l 261 -262 z "},"ḓ":{"ha":376,"x_min":29,"x_max":347,"o":"m 29 0 m 131 149 q 145 97 131 113 q 188 82 160 82 q 229 99 215 82 q 251 157 243 117 l 251 514 q 231 573 244 556 q 189 590 218 590 q 146 574 161 590 q 131 522 131 558 l 131 149 m 258 0 l 256 68 l 250 68 q 146 -6 219 -6 q 60 28 90 -6 q 29 125 29 63 l 29 547 q 60 643 29 610 q 146 676 92 676 q 204 662 181 676 q 243 614 228 647 l 249 614 l 249 933 l 347 933 l 347 0 l 258 0 m 281 -262 l 185 -139 l 89 -262 l 44 -228 l 139 -79 l 229 -79 l 324 -228 l 281 -262 z "},"Ḥ":{"ha":389,"x_min":26,"x_max":363,"o":"m 26 0 m 257 0 l 257 443 l 132 443 l 132 0 l 26 0 l 26 922 l 132 922 l 132 538 l 257 538 l 257 922 l 363 922 l 363 0 l 257 0 m 144 -196 l 144 -68 l 244 -68 l 244 -196 l 144 -196 z "},"ḥ":{"ha":379,"x_min":29,"x_max":351,"o":"m 29 0 m 250 0 l 250 526 q 194 589 250 589 q 149 570 165 589 q 129 507 132 551 l 129 0 l 29 0 l 29 933 l 129 933 l 129 610 l 135 610 q 239 676 163 676 q 326 638 301 676 q 351 540 351 599 l 351 0 l 250 0 m 139 -196 l 139 -68 l 239 -68 l 239 -196 l 139 -196 z "},"Ḽ":{"ha":311,"x_min":19,"x_max":299,"o":"m 19 0 m 26 0 l 26 922 l 132 922 l 132 96 l 293 96 l 293 0 l 26 0 m 256 -262 l 160 -139 l 64 -262 l 19 -228 l 114 -79 l 204 -79 l 299 -228 l 256 -262 z "},"ḽ":{"ha":165,"x_min":-60,"x_max":219,"o":"m 0 0 m 32 0 l 32 933 l 132 933 l 132 0 l 32 0 m 176 -262 l 81 -139 l -15 -262 l -60 -228 l 35 -79 l 125 -79 l 219 -228 l 176 -262 z "},"Ṅ":{"ha":408,"x_min":26,"x_max":382,"o":"m 26 0 m 254 0 l 118 722 l 113 722 q 115 676 114 700 q 116 621 115 651 q 117 551 117 590 q 117 461 117 513 l 117 0 l 26 0 l 26 922 l 168 922 l 289 232 l 294 232 q 292 290 293 260 q 291 358 292 321 q 290 440 290 394 q 290 543 290 485 l 290 922 l 382 922 l 382 0 l 254 0 m 150 981 l 150 1110 l 250 1110 l 250 981 l 150 981 z "},"ṅ":{"ha":379,"x_min":29,"x_max":351,"o":"m 29 0 m 250 0 l 250 526 q 194 590 250 590 q 153 575 167 590 q 129 526 139 560 l 129 0 l 29 0 l 29 671 l 122 671 l 125 603 l 131 603 q 236 676 163 676 q 320 644 289 676 q 351 546 351 611 l 351 0 l 250 0 m 138 743 l 138 872 l 238 872 l 238 743 l 138 743 z "},"Ṋ":{"ha":408,"x_min":26,"x_max":382,"o":"m 26 0 m 254 0 l 118 722 l 113 722 q 115 676 114 700 q 116 621 115 651 q 117 551 117 590 q 117 461 117 513 l 117 0 l 26 0 l 26 922 l 168 922 l 289 232 l 294 232 q 292 290 293 260 q 291 358 292 321 q 290 440 290 394 q 290 543 290 485 l 290 922 l 382 922 l 382 0 l 254 0 m 292 -262 l 196 -139 l 100 -262 l 56 -228 l 150 -79 l 240 -79 l 335 -228 l 292 -262 z "},"ṋ":{"ha":379,"x_min":29,"x_max":351,"o":"m 29 0 m 250 0 l 250 526 q 194 590 250 590 q 153 575 167 590 q 129 526 139 560 l 129 0 l 29 0 l 29 671 l 122 671 l 125 603 l 131 603 q 236 676 163 676 q 320 644 289 676 q 351 546 351 611 l 351 0 l 250 0 m 285 -262 l 189 -139 l 93 -262 l 49 -228 l 143 -79 l 233 -79 l 328 -228 l 285 -262 z "},"Ṛ":{"ha":378,"x_min":26,"x_max":356,"o":"m 26 0 m 26 0 l 26 922 l 221 922 q 324 885 294 922 q 353 782 353 849 l 353 571 q 283 460 353 476 l 283 454 q 337 422 318 447 q 356 343 356 396 l 356 0 l 253 0 l 253 351 q 242 396 253 382 q 200 410 231 410 l 129 410 l 129 0 l 26 0 m 253 769 q 197 828 253 828 l 129 828 l 129 496 l 199 496 q 238 510 224 496 q 253 561 253 525 l 253 769 m 139 -196 l 139 -68 l 239 -68 l 239 -196 l 139 -196 z "},"ṛ":{"ha":288,"x_min":25,"x_max":271,"o":"m 25 0 m 29 0 l 29 671 l 122 671 l 125 593 l 131 593 q 170 655 146 633 q 232 676 194 676 q 271 668 254 676 l 271 576 q 228 586 254 586 q 162 563 185 586 q 129 476 139 539 l 129 0 l 29 0 m 25 -196 l 25 -68 l 125 -68 l 125 -196 l 25 -196 z "},"Ṣ":{"ha":392,"x_min":22,"x_max":368,"o":"m 22 0 m 258 640 l 258 758 q 242 811 258 792 q 193 831 226 831 q 145 813 161 831 q 129 768 129 796 l 129 669 q 137 610 129 629 q 167 571 144 592 q 206 536 185 553 q 248 504 226 519 q 289 473 269 489 q 322 442 308 457 q 357 385 346 417 q 368 301 368 354 l 368 167 q 328 38 368 82 q 196 -6 288 -6 q 63 40 104 -6 q 22 174 22 85 l 22 276 l 121 276 l 121 165 q 192 90 121 90 q 258 158 258 90 l 258 275 q 249 346 258 324 q 215 392 240 368 q 140 456 178 428 q 72 522 101 485 q 26 675 26 582 l 26 769 q 66 884 26 840 q 192 928 106 928 q 269 915 238 928 q 320 877 301 901 q 347 819 339 853 q 356 747 356 786 l 356 640 l 258 640 m 143 -196 l 143 -68 l 243 -68 l 243 -196 l 143 -196 z "},"ṣ":{"ha":368,"x_min":25,"x_max":343,"o":"m 25 0 m 243 465 l 243 543 q 185 594 243 594 q 125 549 125 594 l 125 474 q 131 438 125 450 q 161 411 138 426 q 226 374 193 389 q 290 336 260 358 q 330 290 317 317 q 343 215 343 264 l 343 128 q 306 27 343 60 q 188 -6 268 -6 q 63 30 101 -6 q 25 133 25 65 l 25 215 l 119 215 l 119 131 q 134 90 119 103 q 183 76 149 76 q 243 126 243 76 l 243 213 q 235 249 243 235 q 200 282 228 263 q 174 297 190 288 q 140 318 158 307 q 103 341 121 329 q 72 364 85 353 q 40 410 49 385 q 31 474 31 436 l 31 557 q 69 644 31 613 q 182 676 107 676 q 299 640 260 676 q 338 539 338 604 l 338 465 l 243 465 m 136 -196 l 136 -68 l 236 -68 l 236 -196 l 136 -196 z "},"Ṭ":{"ha":365,"x_min":18,"x_max":347,"o":"m 18 0 m 129 0 l 129 828 l 18 828 l 18 922 l 347 922 l 347 828 l 233 828 l 233 0 l 129 0 m 132 -196 l 132 -68 l 232 -68 l 232 -196 l 132 -196 z "},"ṭ":{"ha":357,"x_min":29,"x_max":328,"o":"m 29 0 m 242 381 l 328 381 l 328 151 q 297 33 328 71 q 186 -6 267 -6 q 67 33 104 -6 q 29 151 29 71 l 29 856 l 128 856 l 128 671 l 328 671 l 328 581 l 128 581 l 128 151 q 188 85 128 85 q 229 101 217 85 q 242 151 242 117 l 242 381 m 135 -196 l 135 -68 l 235 -68 l 235 -196 l 135 -196 z "},"Ẁ":{"ha":569,"x_min":10,"x_max":558,"o":"m 10 0 m 86 0 l 10 922 l 111 922 l 160 197 l 165 197 l 225 922 l 344 922 l 407 197 l 413 197 l 460 922 l 558 922 l 482 0 l 344 0 l 288 725 l 282 725 l 225 0 l 86 0 m 163 1110 l 215 1171 l 369 986 l 331 946 l 163 1110 z "},"ẁ":{"ha":521,"x_min":8,"x_max":511,"o":"m 8 0 m 76 0 l 8 671 l 103 671 l 147 165 l 153 165 l 204 671 l 315 671 l 369 165 l 375 165 l 418 671 l 511 671 l 443 0 l 315 0 l 263 514 l 257 514 l 204 0 l 76 0 m 139 865 l 192 926 l 346 742 l 307 701 l 139 865 z "},"Ẃ":{"ha":569,"x_min":10,"x_max":558,"o":"m 10 0 m 86 0 l 10 922 l 111 922 l 160 197 l 165 197 l 225 922 l 344 922 l 407 197 l 413 197 l 460 922 l 558 922 l 482 0 l 344 0 l 288 725 l 282 725 l 225 0 l 86 0 m 244 946 l 206 986 l 360 1171 l 413 1110 l 244 946 z "},"ẃ":{"ha":521,"x_min":8,"x_max":511,"o":"m 8 0 m 76 0 l 8 671 l 103 671 l 147 165 l 153 165 l 204 671 l 315 671 l 369 165 l 375 165 l 418 671 l 511 671 l 443 0 l 315 0 l 263 514 l 257 514 l 204 0 l 76 0 m 217 701 l 178 742 l 332 926 l 385 865 l 217 701 z "},"Ẅ":{"ha":569,"x_min":10,"x_max":558,"o":"m 10 0 m 86 0 l 10 922 l 111 922 l 160 197 l 165 197 l 225 922 l 344 922 l 407 197 l 413 197 l 460 922 l 558 922 l 482 0 l 344 0 l 288 725 l 282 725 l 225 0 l 86 0 m 157 988 l 157 1117 l 250 1117 l 250 988 l 157 988 m 315 988 l 315 1117 l 408 1117 l 408 988 l 315 988 z "},"ẅ":{"ha":521,"x_min":8,"x_max":511,"o":"m 8 0 m 76 0 l 8 671 l 103 671 l 147 165 l 153 165 l 204 671 l 315 671 l 369 165 l 375 165 l 418 671 l 511 671 l 443 0 l 315 0 l 263 514 l 257 514 l 204 0 l 76 0 m 133 743 l 133 872 l 226 872 l 226 743 l 133 743 m 292 743 l 292 872 l 385 872 l 385 743 l 292 743 z "},"Ẓ":{"ha":350,"x_min":18,"x_max":333,"o":"m 18 0 m 18 0 l 18 96 l 224 828 l 19 828 l 19 922 l 328 922 l 328 828 l 125 94 l 333 94 l 333 0 l 18 0 m 125 -196 l 125 -68 l 225 -68 l 225 -196 l 125 -196 z "},"ẓ":{"ha":319,"x_min":19,"x_max":300,"o":"m 19 0 m 19 0 l 19 94 l 194 581 l 22 581 l 22 671 l 296 671 l 296 581 l 122 92 l 300 92 l 300 0 l 19 0 m 110 -196 l 110 -68 l 210 -68 l 210 -196 l 110 -196 z "},"ẞ":{"ha":428,"x_min":26,"x_max":400,"o":"m 175 96 q 202 87 188 89 q 231 85 217 85 q 283 100 267 85 q 299 153 299 115 l 299 438 q 284 478 299 465 q 246 490 269 490 q 196 479 225 490 l 196 571 l 281 828 l 207 828 q 132 747 132 828 l 132 0 l 26 0 l 26 749 q 69 878 26 833 q 192 922 111 922 l 379 922 l 379 833 l 292 571 q 369 541 339 571 q 400 444 400 511 l 400 156 q 365 30 400 65 q 254 -6 329 -6 q 208 -3 231 -6 q 175 4 186 0 l 175 96 z "},"Ạ":{"ha":388,"x_min":10,"x_max":376,"o":"m 10 0 m 272 0 l 249 225 l 135 225 l 113 0 l 10 0 l 118 922 l 267 922 l 376 0 l 272 0 m 144 315 l 239 315 l 194 753 l 189 753 l 144 315 m 142 -196 l 142 -68 l 242 -68 l 242 -196 l 142 -196 z "},"ạ":{"ha":369,"x_min":22,"x_max":342,"o":"m 22 0 m 243 358 q 216 344 228 347 q 179 332 204 340 q 131 306 143 321 q 119 260 119 290 l 119 132 q 174 82 119 82 q 217 94 201 82 q 243 132 232 107 l 243 358 m 250 0 l 247 58 l 242 58 q 202 14 226 33 q 129 -6 178 -6 q 47 25 71 -6 q 22 108 22 56 l 22 242 q 29 300 22 276 q 51 341 36 324 q 92 370 67 358 q 153 393 117 382 q 217 415 193 404 q 242 450 242 426 l 242 544 q 185 590 242 590 q 124 540 124 590 l 124 456 l 31 456 l 31 551 q 72 646 31 615 q 192 676 114 676 q 342 558 342 676 l 342 0 l 250 0 m 133 -196 l 133 -68 l 233 -68 l 233 -196 l 133 -196 z "},"Ả":{"ha":388,"x_min":10,"x_max":376,"o":"m 10 0 m 272 0 l 249 225 l 135 225 l 113 0 l 10 0 l 118 922 l 267 922 l 376 0 l 272 0 m 144 315 l 239 315 l 194 753 l 189 753 l 144 315 m 164 960 q 174 994 164 982 q 194 1015 183 1007 q 215 1032 206 1024 q 225 1056 225 1040 q 194 1081 225 1081 q 139 1060 164 1081 l 122 1114 q 161 1136 138 1129 q 204 1143 185 1143 q 260 1122 238 1143 q 282 1065 282 1100 q 272 1026 282 1040 q 248 1002 261 1013 q 224 983 235 992 q 214 960 214 974 l 164 960 z "},"ả":{"ha":369,"x_min":22,"x_max":342,"o":"m 22 0 m 243 358 q 216 344 228 347 q 179 332 204 340 q 131 306 143 321 q 119 260 119 290 l 119 132 q 174 82 119 82 q 217 94 201 82 q 243 132 232 107 l 243 358 m 250 0 l 247 58 l 242 58 q 202 14 226 33 q 129 -6 178 -6 q 47 25 71 -6 q 22 108 22 56 l 22 242 q 29 300 22 276 q 51 341 36 324 q 92 370 67 358 q 153 393 117 382 q 217 415 193 404 q 242 450 242 426 l 242 544 q 185 590 242 590 q 124 540 124 590 l 124 456 l 31 456 l 31 551 q 72 646 31 615 q 192 676 114 676 q 342 558 342 676 l 342 0 l 250 0 m 153 715 q 163 750 153 738 q 183 771 172 763 q 204 788 194 779 q 214 811 214 796 q 183 836 214 836 q 128 815 153 836 l 111 869 q 150 892 126 885 q 193 899 174 899 q 249 877 226 899 q 271 821 271 856 q 260 782 271 796 q 237 758 250 768 q 213 738 224 747 q 203 715 203 729 l 153 715 z "},"Ấ":{"ha":388,"x_min":10,"x_max":451,"o":"m 10 0 m 272 0 l 249 225 l 135 225 l 113 0 l 10 0 l 118 922 l 267 922 l 376 0 l 272 0 m 144 315 l 239 315 l 194 753 l 189 753 l 144 315 m 286 946 l 192 1065 l 96 946 l 51 981 l 146 1124 l 236 1124 l 331 981 l 286 946 m 311 1074 l 272 1113 l 399 1256 l 451 1197 l 311 1074 z "},"ấ":{"ha":369,"x_min":22,"x_max":450,"o":"m 22 0 m 243 358 q 216 344 228 347 q 179 332 204 340 q 131 306 143 321 q 119 260 119 290 l 119 132 q 174 82 119 82 q 217 94 201 82 q 243 132 232 107 l 243 358 m 250 0 l 247 58 l 242 58 q 202 14 226 33 q 129 -6 178 -6 q 47 25 71 -6 q 22 108 22 56 l 22 242 q 29 300 22 276 q 51 341 36 324 q 92 370 67 358 q 153 393 117 382 q 217 415 193 404 q 242 450 242 426 l 242 544 q 185 590 242 590 q 124 540 124 590 l 124 456 l 31 456 l 31 551 q 72 646 31 615 q 192 676 114 676 q 342 558 342 676 l 342 0 l 250 0 m 285 701 l 190 821 l 94 701 l 50 736 l 144 879 l 235 879 l 329 736 l 285 701 m 310 829 l 271 868 l 397 1011 l 450 953 l 310 829 z "},"Ầ":{"ha":388,"x_min":10,"x_max":400,"o":"m 10 0 m 272 0 l 249 225 l 135 225 l 113 0 l 10 0 l 118 922 l 267 922 l 376 0 l 272 0 m 144 315 l 239 315 l 194 753 l 189 753 l 144 315 m 283 946 l 189 1065 l 93 946 l 49 981 l 143 1124 l 233 1124 l 328 981 l 283 946 m 221 1197 l 272 1256 l 400 1113 l 361 1074 l 221 1197 z "},"ầ":{"ha":369,"x_min":22,"x_max":393,"o":"m 22 0 m 243 358 q 216 344 228 347 q 179 332 204 340 q 131 306 143 321 q 119 260 119 290 l 119 132 q 174 82 119 82 q 217 94 201 82 q 243 132 232 107 l 243 358 m 250 0 l 247 58 l 242 58 q 202 14 226 33 q 129 -6 178 -6 q 47 25 71 -6 q 22 108 22 56 l 22 242 q 29 300 22 276 q 51 341 36 324 q 92 370 67 358 q 153 393 117 382 q 217 415 193 404 q 242 450 242 426 l 242 544 q 185 590 242 590 q 124 540 124 590 l 124 456 l 31 456 l 31 551 q 72 646 31 615 q 192 676 114 676 q 342 558 342 676 l 342 0 l 250 0 m 276 701 l 182 821 l 86 701 l 42 736 l 136 879 l 226 879 l 321 736 l 276 701 m 214 953 l 265 1011 l 393 868 l 354 829 l 214 953 z "},"Ẩ":{"ha":388,"x_min":10,"x_max":431,"o":"m 10 0 m 272 0 l 249 225 l 135 225 l 113 0 l 10 0 l 118 922 l 267 922 l 376 0 l 272 0 m 144 315 l 239 315 l 194 753 l 189 753 l 144 315 m 290 946 l 194 1065 l 99 946 l 56 981 l 149 1124 l 240 1124 l 335 981 l 290 946 m 313 1057 q 322 1092 313 1079 q 343 1115 332 1106 q 364 1132 354 1124 q 374 1156 374 1140 q 342 1183 374 1183 q 288 1161 311 1183 l 269 1217 q 310 1238 286 1231 q 353 1244 333 1244 q 408 1223 386 1244 q 431 1165 431 1201 q 420 1126 431 1140 q 397 1101 410 1111 q 373 1081 383 1090 q 363 1057 363 1072 l 313 1057 z "},"ẩ":{"ha":369,"x_min":22,"x_max":411,"o":"m 22 0 m 243 358 q 216 344 228 347 q 179 332 204 340 q 131 306 143 321 q 119 260 119 290 l 119 132 q 174 82 119 82 q 217 94 201 82 q 243 132 232 107 l 243 358 m 250 0 l 247 58 l 242 58 q 202 14 226 33 q 129 -6 178 -6 q 47 25 71 -6 q 22 108 22 56 l 22 242 q 29 300 22 276 q 51 341 36 324 q 92 370 67 358 q 153 393 117 382 q 217 415 193 404 q 242 450 242 426 l 242 544 q 185 590 242 590 q 124 540 124 590 l 124 456 l 31 456 l 31 551 q 72 646 31 615 q 192 676 114 676 q 342 558 342 676 l 342 0 l 250 0 m 271 701 l 175 821 l 79 701 l 36 736 l 129 879 l 221 879 l 315 736 l 271 701 m 293 813 q 303 848 293 835 q 324 870 313 861 q 344 888 335 879 q 354 911 354 896 q 322 939 354 939 q 268 917 292 939 l 250 972 q 290 993 267 986 q 333 1000 314 1000 q 389 978 367 1000 q 411 921 411 957 q 401 881 411 896 q 377 856 390 867 q 353 837 364 846 q 343 813 343 828 l 293 813 z "},"Ẫ":{"ha":388,"x_min":10,"x_max":376,"o":"m 10 0 m 272 0 l 249 225 l 135 225 l 113 0 l 10 0 l 118 922 l 267 922 l 376 0 l 272 0 m 144 315 l 239 315 l 194 753 l 189 753 l 144 315 m 285 946 l 190 1058 l 94 946 l 50 981 l 144 1117 l 235 1117 l 329 981 l 285 946 m 335 1207 q 305 1157 325 1172 q 257 1142 285 1142 q 225 1147 240 1142 q 195 1159 210 1153 q 166 1171 181 1165 q 135 1176 151 1176 q 111 1171 121 1176 q 94 1146 101 1165 l 50 1171 q 78 1221 58 1206 q 126 1236 99 1236 q 158 1231 143 1236 q 188 1219 174 1225 q 218 1208 203 1213 q 250 1203 233 1203 q 272 1208 263 1203 q 289 1233 282 1214 l 335 1207 z "},"ẫ":{"ha":369,"x_min":22,"x_max":342,"o":"m 22 0 m 243 358 q 216 344 228 347 q 179 332 204 340 q 131 306 143 321 q 119 260 119 290 l 119 132 q 174 82 119 82 q 217 94 201 82 q 243 132 232 107 l 243 358 m 250 0 l 247 58 l 242 58 q 202 14 226 33 q 129 -6 178 -6 q 47 25 71 -6 q 22 108 22 56 l 22 242 q 29 300 22 276 q 51 341 36 324 q 92 370 67 358 q 153 393 117 382 q 217 415 193 404 q 242 450 242 426 l 242 544 q 185 590 242 590 q 124 540 124 590 l 124 456 l 31 456 l 31 551 q 72 646 31 615 q 192 676 114 676 q 342 558 342 676 l 342 0 l 250 0 m 275 701 l 181 814 l 85 701 l 40 736 l 135 872 l 225 872 l 319 736 l 275 701 m 325 963 q 295 913 315 928 q 247 897 275 897 q 215 903 231 897 q 185 915 200 908 q 156 926 171 921 q 125 932 142 932 q 101 926 111 932 q 85 901 92 921 l 40 926 q 69 976 49 961 q 117 992 89 992 q 149 986 133 992 q 178 974 164 981 q 208 963 193 968 q 240 958 224 958 q 263 964 253 958 q 279 989 272 969 l 325 963 z "},"Ậ":{"ha":388,"x_min":10,"x_max":376,"o":"m 10 0 m 272 0 l 249 225 l 135 225 l 113 0 l 10 0 l 118 922 l 267 922 l 376 0 l 272 0 m 144 315 l 239 315 l 194 753 l 189 753 l 144 315 m 288 947 l 192 1071 l 96 947 l 51 982 l 146 1131 l 236 1131 l 331 982 l 288 947 m 143 -196 l 143 -68 l 243 -68 l 243 -196 l 143 -196 z "},"ậ":{"ha":369,"x_min":22,"x_max":342,"o":"m 22 0 m 243 358 q 216 344 228 347 q 179 332 204 340 q 131 306 143 321 q 119 260 119 290 l 119 132 q 174 82 119 82 q 217 94 201 82 q 243 132 232 107 l 243 358 m 250 0 l 247 58 l 242 58 q 202 14 226 33 q 129 -6 178 -6 q 47 25 71 -6 q 22 108 22 56 l 22 242 q 29 300 22 276 q 51 341 36 324 q 92 370 67 358 q 153 393 117 382 q 217 415 193 404 q 242 450 242 426 l 242 544 q 185 590 242 590 q 124 540 124 590 l 124 456 l 31 456 l 31 551 q 72 646 31 615 q 192 676 114 676 q 342 558 342 676 l 342 0 l 250 0 m 278 703 l 182 826 l 86 703 l 42 738 l 136 886 l 226 886 l 321 738 l 278 703 m 133 -196 l 133 -68 l 233 -68 l 233 -196 l 133 -196 z "},"Ắ":{"ha":388,"x_min":10,"x_max":376,"o":"m 10 0 m 272 0 l 249 225 l 135 225 l 113 0 l 10 0 l 118 922 l 267 922 l 376 0 l 272 0 m 144 315 l 239 315 l 194 753 l 189 753 l 144 315 m 196 944 q 94 982 133 944 q 56 1101 56 1019 l 128 1101 q 196 1000 129 1000 q 264 1101 263 1000 l 339 1101 q 299 981 339 1018 q 196 944 258 944 m 179 1058 l 140 1099 l 275 1250 l 328 1192 l 179 1058 z "},"ắ":{"ha":369,"x_min":22,"x_max":342,"o":"m 22 0 m 243 358 q 216 344 228 347 q 179 332 204 340 q 131 306 143 321 q 119 260 119 290 l 119 132 q 174 82 119 82 q 217 94 201 82 q 243 132 232 107 l 243 358 m 250 0 l 247 58 l 242 58 q 202 14 226 33 q 129 -6 178 -6 q 47 25 71 -6 q 22 108 22 56 l 22 242 q 29 300 22 276 q 51 341 36 324 q 92 370 67 358 q 153 393 117 382 q 217 415 193 404 q 242 450 242 426 l 242 544 q 185 590 242 590 q 124 540 124 590 l 124 456 l 31 456 l 31 551 q 72 646 31 615 q 192 676 114 676 q 342 558 342 676 l 342 0 l 250 0 m 188 700 q 86 738 125 700 q 47 857 47 775 l 119 857 q 188 756 121 756 q 256 857 254 756 l 331 857 q 290 737 331 774 q 188 700 250 700 m 171 814 l 132 854 l 267 1006 l 319 947 l 171 814 z "},"Ằ":{"ha":388,"x_min":10,"x_max":376,"o":"m 10 0 m 272 0 l 249 225 l 135 225 l 113 0 l 10 0 l 118 922 l 267 922 l 376 0 l 272 0 m 144 315 l 239 315 l 194 753 l 189 753 l 144 315 m 199 944 q 95 981 135 944 q 56 1101 56 1018 l 129 1101 q 199 1000 133 1000 q 267 1101 263 1000 l 339 1101 q 300 981 339 1018 q 199 944 261 944 m 68 1186 l 119 1246 l 254 1099 l 217 1058 l 68 1186 z "},"ằ":{"ha":369,"x_min":22,"x_max":342,"o":"m 22 0 m 243 358 q 216 344 228 347 q 179 332 204 340 q 131 306 143 321 q 119 260 119 290 l 119 132 q 174 82 119 82 q 217 94 201 82 q 243 132 232 107 l 243 358 m 250 0 l 247 58 l 242 58 q 202 14 226 33 q 129 -6 178 -6 q 47 25 71 -6 q 22 108 22 56 l 22 242 q 29 300 22 276 q 51 341 36 324 q 92 370 67 358 q 153 393 117 382 q 217 415 193 404 q 242 450 242 426 l 242 544 q 185 590 242 590 q 124 540 124 590 l 124 456 l 31 456 l 31 551 q 72 646 31 615 q 192 676 114 676 q 342 558 342 676 l 342 0 l 250 0 m 185 700 q 81 737 121 700 q 42 857 42 774 l 115 857 q 185 756 119 756 q 253 857 249 756 l 325 857 q 286 737 325 774 q 185 700 247 700 m 54 942 l 106 1001 l 240 854 l 203 814 l 54 942 z "},"Ẳ":{"ha":388,"x_min":10,"x_max":376,"o":"m 10 0 m 272 0 l 249 225 l 135 225 l 113 0 l 10 0 l 118 922 l 267 922 l 376 0 l 272 0 m 144 315 l 239 315 l 194 753 l 189 753 l 144 315 m 193 944 q 91 982 131 944 q 51 1101 51 1019 l 124 1101 q 192 1000 125 1000 q 261 1101 258 1000 l 335 1101 q 295 982 335 1019 q 193 944 256 944 m 156 1071 q 165 1105 156 1093 q 186 1125 175 1117 q 207 1142 197 1133 q 217 1165 217 1150 q 185 1192 217 1192 q 131 1171 157 1192 l 114 1224 q 153 1243 129 1236 q 196 1250 176 1250 q 252 1229 231 1250 q 274 1174 274 1208 q 263 1135 274 1149 q 240 1112 253 1121 q 216 1094 226 1103 q 206 1071 206 1085 l 156 1071 z "},"ẳ":{"ha":369,"x_min":22,"x_max":342,"o":"m 22 0 m 243 358 q 216 344 228 347 q 179 332 204 340 q 131 306 143 321 q 119 260 119 290 l 119 132 q 174 82 119 82 q 217 94 201 82 q 243 132 232 107 l 243 358 m 250 0 l 247 58 l 242 58 q 202 14 226 33 q 129 -6 178 -6 q 47 25 71 -6 q 22 108 22 56 l 22 242 q 29 300 22 276 q 51 341 36 324 q 92 370 67 358 q 153 393 117 382 q 217 415 193 404 q 242 450 242 426 l 242 544 q 185 590 242 590 q 124 540 124 590 l 124 456 l 31 456 l 31 551 q 72 646 31 615 q 192 676 114 676 q 342 558 342 676 l 342 0 l 250 0 m 185 700 q 83 738 122 700 q 43 857 43 775 l 115 857 q 183 756 117 756 q 253 857 250 756 l 326 857 q 287 738 326 775 q 185 700 247 700 m 147 826 q 157 860 147 849 q 178 881 167 872 q 199 897 189 889 q 208 921 208 906 q 176 947 208 947 q 122 926 149 947 l 106 979 q 144 999 121 992 q 188 1006 168 1006 q 244 985 222 1006 q 265 929 265 964 q 255 890 265 904 q 231 867 244 876 q 208 849 218 858 q 197 826 197 840 l 147 826 z "},"Ẵ":{"ha":388,"x_min":10,"x_max":376,"o":"m 10 0 m 272 0 l 249 225 l 135 225 l 113 0 l 10 0 l 118 922 l 267 922 l 376 0 l 272 0 m 144 315 l 239 315 l 194 753 l 189 753 l 144 315 m 192 944 q 90 982 129 944 q 50 1101 50 1019 l 122 1101 q 190 1000 124 1000 q 260 1101 257 1000 l 333 1101 q 294 982 333 1019 q 192 944 254 944 m 333 1200 q 304 1149 325 1165 q 257 1133 283 1133 q 224 1139 239 1133 q 194 1151 208 1144 q 165 1164 179 1158 q 133 1169 150 1169 q 109 1163 119 1169 q 92 1138 99 1157 l 49 1164 q 77 1215 57 1199 q 125 1231 97 1231 q 158 1225 142 1231 q 188 1213 174 1219 q 217 1200 203 1206 q 247 1194 232 1194 q 272 1201 263 1194 q 289 1226 282 1207 l 333 1200 z "},"ẵ":{"ha":369,"x_min":22,"x_max":342,"o":"m 22 0 m 243 358 q 216 344 228 347 q 179 332 204 340 q 131 306 143 321 q 119 260 119 290 l 119 132 q 174 82 119 82 q 217 94 201 82 q 243 132 232 107 l 243 358 m 250 0 l 247 58 l 242 58 q 202 14 226 33 q 129 -6 178 -6 q 47 25 71 -6 q 22 108 22 56 l 22 242 q 29 300 22 276 q 51 341 36 324 q 92 370 67 358 q 153 393 117 382 q 217 415 193 404 q 242 450 242 426 l 242 544 q 185 590 242 590 q 124 540 124 590 l 124 456 l 31 456 l 31 551 q 72 646 31 615 q 192 676 114 676 q 342 558 342 676 l 342 0 l 250 0 m 182 700 q 80 738 119 700 q 40 857 40 775 l 113 857 q 181 756 114 756 q 250 857 247 756 l 324 857 q 284 738 324 775 q 182 700 244 700 m 324 956 q 294 905 315 921 q 247 889 274 889 q 214 894 229 889 q 184 907 199 900 q 155 919 169 914 q 124 925 140 925 q 99 919 110 925 q 82 893 89 913 l 39 919 q 67 970 47 954 q 115 986 88 986 q 148 981 132 986 q 178 968 164 975 q 208 956 193 961 q 238 950 222 950 q 263 956 253 950 q 279 982 272 963 l 324 956 z "},"Ặ":{"ha":388,"x_min":10,"x_max":376,"o":"m 10 0 m 272 0 l 249 225 l 135 225 l 113 0 l 10 0 l 118 922 l 267 922 l 376 0 l 272 0 m 144 315 l 239 315 l 194 753 l 189 753 l 144 315 m 192 946 q 90 993 129 946 q 50 1129 50 1040 l 122 1129 q 142 1039 125 1067 q 192 1011 158 1011 q 242 1039 225 1011 q 261 1129 260 1067 l 336 1129 q 296 993 336 1040 q 192 946 256 946 m 142 -196 l 142 -68 l 242 -68 l 242 -196 l 142 -196 z "},"ặ":{"ha":369,"x_min":22,"x_max":342,"o":"m 22 0 m 243 358 q 216 344 228 347 q 179 332 204 340 q 131 306 143 321 q 119 260 119 290 l 119 132 q 174 82 119 82 q 217 94 201 82 q 243 132 232 107 l 243 358 m 250 0 l 247 58 l 242 58 q 202 14 226 33 q 129 -6 178 -6 q 47 25 71 -6 q 22 108 22 56 l 22 242 q 29 300 22 276 q 51 341 36 324 q 92 370 67 358 q 153 393 117 382 q 217 415 193 404 q 242 450 242 426 l 242 544 q 185 590 242 590 q 124 540 124 590 l 124 456 l 31 456 l 31 551 q 72 646 31 615 q 192 676 114 676 q 342 558 342 676 l 342 0 l 250 0 m 179 701 q 77 749 117 701 q 38 885 38 796 l 110 885 q 129 794 113 822 q 179 767 146 767 q 230 794 213 767 q 249 885 247 822 l 324 885 q 283 749 324 796 q 179 701 243 701 m 131 -196 l 131 -68 l 231 -68 l 231 -196 l 131 -196 z "},"Ẹ":{"ha":303,"x_min":26,"x_max":288,"o":"m 26 0 m 26 0 l 26 922 l 279 922 l 279 828 l 129 828 l 129 531 l 265 531 l 265 436 l 129 436 l 129 94 l 288 94 l 288 0 l 26 0 m 104 -196 l 104 -68 l 204 -68 l 204 -196 l 104 -196 z "},"ẹ":{"ha":374,"x_min":29,"x_max":344,"o":"m 29 0 m 344 151 q 185 -6 344 -6 q 29 151 29 -6 l 29 519 q 186 676 29 676 q 344 519 344 676 l 344 311 l 126 311 l 126 149 q 186 82 126 82 q 246 149 246 82 l 246 231 l 344 231 l 344 151 m 246 521 q 186 589 246 589 q 126 521 126 589 l 126 383 l 246 383 l 246 521 m 136 -196 l 136 -68 l 236 -68 l 236 -196 l 136 -196 z "},"Ẻ":{"ha":303,"x_min":26,"x_max":288,"o":"m 26 0 m 26 0 l 26 922 l 279 922 l 279 828 l 129 828 l 129 531 l 265 531 l 265 436 l 129 436 l 129 94 l 288 94 l 288 0 l 26 0 m 132 960 q 142 994 132 982 q 163 1015 151 1007 q 183 1032 174 1024 q 193 1056 193 1040 q 163 1081 193 1081 q 107 1060 132 1081 l 90 1114 q 129 1136 106 1129 q 172 1143 153 1143 q 228 1122 206 1143 q 250 1065 250 1100 q 240 1026 250 1040 q 216 1002 229 1013 q 192 983 203 992 q 182 960 182 974 l 132 960 z "},"ẻ":{"ha":374,"x_min":29,"x_max":344,"o":"m 29 0 m 344 151 q 185 -6 344 -6 q 29 151 29 -6 l 29 519 q 186 676 29 676 q 344 519 344 676 l 344 311 l 126 311 l 126 149 q 186 82 126 82 q 246 149 246 82 l 246 231 l 344 231 l 344 151 m 246 521 q 186 589 246 589 q 126 521 126 589 l 126 383 l 246 383 l 246 521 m 157 715 q 167 750 157 738 q 188 771 176 763 q 208 788 199 779 q 218 811 218 796 q 188 836 218 836 q 132 815 157 836 l 115 869 q 154 892 131 885 q 197 899 178 899 q 253 877 231 899 q 275 821 275 856 q 265 782 275 796 q 241 758 254 768 q 217 738 228 747 q 207 715 207 729 l 157 715 z "},"Ẽ":{"ha":303,"x_min":13,"x_max":297,"o":"m 13 0 m 26 0 l 26 922 l 279 922 l 279 828 l 129 828 l 129 531 l 265 531 l 265 436 l 129 436 l 129 94 l 288 94 l 288 0 l 26 0 m 297 1036 q 269 985 289 1001 q 221 968 249 968 q 188 974 203 968 q 158 987 172 979 q 128 1000 143 994 q 99 1006 114 1006 q 74 999 83 1006 q 57 974 64 993 l 13 1000 q 42 1051 21 1035 q 89 1067 63 1067 q 122 1061 107 1067 q 152 1048 138 1056 q 181 1035 167 1040 q 213 1029 196 1029 q 254 1061 243 1029 l 297 1036 z "},"ẽ":{"ha":374,"x_min":29,"x_max":344,"o":"m 29 0 m 344 151 q 185 -6 344 -6 q 29 151 29 -6 l 29 519 q 186 676 29 676 q 344 519 344 676 l 344 311 l 126 311 l 126 149 q 186 82 126 82 q 246 149 246 82 l 246 231 l 344 231 l 344 151 m 246 521 q 186 589 246 589 q 126 521 126 589 l 126 383 l 246 383 l 246 521 m 328 792 q 299 740 319 757 q 251 724 279 724 q 218 729 233 724 q 188 742 203 735 q 159 756 174 750 q 129 761 144 761 q 104 755 114 761 q 88 729 94 749 l 43 756 q 72 806 51 790 q 119 822 93 822 q 153 817 138 822 q 183 803 168 811 q 212 790 197 796 q 243 785 226 785 q 285 817 274 785 l 328 792 z "},"Ế":{"ha":303,"x_min":18,"x_max":418,"o":"m 18 0 m 26 0 l 26 922 l 279 922 l 279 828 l 129 828 l 129 531 l 265 531 l 265 436 l 129 436 l 129 94 l 288 94 l 288 0 l 26 0 m 253 946 l 158 1065 l 63 946 l 18 981 l 113 1124 l 203 1124 l 297 981 l 253 946 m 278 1074 l 239 1113 l 365 1256 l 418 1197 l 278 1074 z "},"ế":{"ha":374,"x_min":29,"x_max":449,"o":"m 29 0 m 344 151 q 185 -6 344 -6 q 29 151 29 -6 l 29 519 q 186 676 29 676 q 344 519 344 676 l 344 311 l 126 311 l 126 149 q 186 82 126 82 q 246 149 246 82 l 246 231 l 344 231 l 344 151 m 246 521 q 186 589 246 589 q 126 521 126 589 l 126 383 l 246 383 l 246 521 m 283 701 l 189 821 l 93 701 l 49 736 l 143 879 l 233 879 l 328 736 l 283 701 m 308 829 l 269 868 l 396 1011 l 449 953 l 308 829 z "},"Ề":{"ha":303,"x_min":15,"x_max":367,"o":"m 15 0 m 26 0 l 26 922 l 279 922 l 279 828 l 129 828 l 129 531 l 265 531 l 265 436 l 129 436 l 129 94 l 288 94 l 288 0 l 26 0 m 250 946 l 156 1065 l 60 946 l 15 981 l 110 1124 l 200 1124 l 294 981 l 250 946 m 188 1197 l 239 1256 l 367 1113 l 328 1074 l 188 1197 z "},"ề":{"ha":374,"x_min":29,"x_max":392,"o":"m 29 0 m 344 151 q 185 -6 344 -6 q 29 151 29 -6 l 29 519 q 186 676 29 676 q 344 519 344 676 l 344 311 l 126 311 l 126 149 q 186 82 126 82 q 246 149 246 82 l 246 231 l 344 231 l 344 151 m 246 521 q 186 589 246 589 q 126 521 126 589 l 126 383 l 246 383 l 246 521 m 275 701 l 181 821 l 85 701 l 40 736 l 135 879 l 225 879 l 319 736 l 275 701 m 213 953 l 264 1011 l 392 868 l 353 829 l 213 953 z "},"Ể":{"ha":303,"x_min":17,"x_max":392,"o":"m 17 0 m 26 0 l 26 922 l 279 922 l 279 828 l 129 828 l 129 531 l 265 531 l 265 436 l 129 436 l 129 94 l 288 94 l 288 0 l 26 0 m 251 946 l 156 1065 l 60 946 l 17 981 l 110 1124 l 201 1124 l 296 981 l 251 946 m 274 1057 q 283 1092 274 1079 q 304 1115 293 1106 q 325 1132 315 1124 q 335 1156 335 1140 q 303 1183 335 1183 q 249 1161 272 1183 l 231 1217 q 271 1238 247 1231 q 314 1244 294 1244 q 369 1223 347 1244 q 392 1165 392 1201 q 381 1126 392 1140 q 358 1101 371 1111 q 334 1081 344 1090 q 324 1057 324 1072 l 274 1057 z "},"ể":{"ha":374,"x_min":29,"x_max":415,"o":"m 29 0 m 344 151 q 185 -6 344 -6 q 29 151 29 -6 l 29 519 q 186 676 29 676 q 344 519 344 676 l 344 311 l 126 311 l 126 149 q 186 82 126 82 q 246 149 246 82 l 246 231 l 344 231 l 344 151 m 246 521 q 186 589 246 589 q 126 521 126 589 l 126 383 l 246 383 l 246 521 m 275 701 l 179 821 l 83 701 l 40 736 l 133 879 l 225 879 l 319 736 l 275 701 m 297 813 q 307 848 297 835 q 328 870 317 861 q 349 888 339 879 q 358 911 358 896 q 326 939 358 939 q 272 917 296 939 l 254 972 q 294 993 271 986 q 338 1000 318 1000 q 393 978 371 1000 q 415 921 415 957 q 405 881 415 896 q 381 856 394 867 q 358 837 368 846 q 347 813 347 828 l 297 813 z "},"Ễ":{"ha":303,"x_min":19,"x_max":304,"o":"m 19 0 m 26 0 l 26 922 l 279 922 l 279 828 l 129 828 l 129 531 l 265 531 l 265 436 l 129 436 l 129 94 l 288 94 l 288 0 l 26 0 m 254 946 l 160 1058 l 64 946 l 19 981 l 114 1117 l 204 1117 l 299 981 l 254 946 m 304 1207 q 274 1157 294 1172 q 226 1142 254 1142 q 194 1147 210 1142 q 165 1159 179 1153 q 135 1171 150 1165 q 104 1176 121 1176 q 81 1171 90 1176 q 64 1146 71 1165 l 19 1171 q 48 1221 28 1206 q 96 1236 68 1236 q 128 1231 113 1236 q 158 1219 143 1225 q 188 1208 172 1213 q 219 1203 203 1203 q 242 1208 232 1203 q 258 1233 251 1214 l 304 1207 z "},"ễ":{"ha":374,"x_min":29,"x_max":344,"o":"m 29 0 m 344 151 q 185 -6 344 -6 q 29 151 29 -6 l 29 519 q 186 676 29 676 q 344 519 344 676 l 344 311 l 126 311 l 126 149 q 186 82 126 82 q 246 149 246 82 l 246 231 l 344 231 l 344 151 m 246 521 q 186 589 246 589 q 126 521 126 589 l 126 383 l 246 383 l 246 521 m 281 701 l 186 814 l 90 701 l 46 736 l 140 872 l 231 872 l 325 736 l 281 701 m 331 963 q 301 913 321 928 q 253 897 281 897 q 221 903 236 897 q 191 915 206 908 q 162 926 176 921 q 131 932 147 932 q 107 926 117 932 q 90 901 97 921 l 46 926 q 74 976 54 961 q 122 992 94 992 q 154 986 139 992 q 184 974 169 981 q 214 963 199 968 q 246 958 229 958 q 268 964 258 958 q 285 989 278 969 l 331 963 z "},"Ệ":{"ha":303,"x_min":21,"x_max":300,"o":"m 21 0 m 26 0 l 26 922 l 279 922 l 279 828 l 129 828 l 129 531 l 265 531 l 265 436 l 129 436 l 129 94 l 288 94 l 288 0 l 26 0 m 257 947 l 161 1071 l 65 947 l 21 982 l 115 1131 l 206 1131 l 300 982 l 257 947 m 111 -196 l 111 -68 l 211 -68 l 211 -196 l 111 -196 z "},"ệ":{"ha":374,"x_min":29,"x_max":344,"o":"m 29 0 m 344 151 q 185 -6 344 -6 q 29 151 29 -6 l 29 519 q 186 676 29 676 q 344 519 344 676 l 344 311 l 126 311 l 126 149 q 186 82 126 82 q 246 149 246 82 l 246 231 l 344 231 l 344 151 m 246 521 q 186 589 246 589 q 126 521 126 589 l 126 383 l 246 383 l 246 521 m 282 703 l 186 826 l 90 703 l 46 738 l 140 886 l 231 886 l 325 738 l 282 703 m 135 -196 l 135 -68 l 235 -68 l 235 -196 l 135 -196 z "},"Ỉ":{"ha":169,"x_min":8,"x_max":168,"o":"m 8 0 m 26 0 l 26 922 l 132 922 l 132 0 l 26 0 m 50 960 q 60 994 50 982 q 81 1015 69 1007 q 101 1032 92 1024 q 111 1056 111 1040 q 81 1081 111 1081 q 25 1060 50 1081 l 8 1114 q 47 1136 24 1129 q 90 1143 71 1143 q 146 1122 124 1143 q 168 1065 168 1100 q 158 1026 168 1040 q 134 1002 147 1013 q 110 983 121 992 q 100 960 100 974 l 50 960 z "},"ỉ":{"ha":168,"x_min":8,"x_max":168,"o":"m 8 0 m 29 0 l 29 671 l 129 671 l 129 0 l 29 0 m 50 715 q 60 750 50 738 q 81 771 69 763 q 101 788 92 779 q 111 811 111 796 q 81 836 111 836 q 25 815 50 836 l 8 869 q 47 892 24 885 q 90 899 71 899 q 146 877 124 899 q 168 821 168 856 q 158 782 168 796 q 134 758 147 768 q 110 738 121 747 q 100 715 100 729 l 50 715 z "},"Ị":{"ha":158,"x_min":26,"x_max":132,"o":"m 26 0 m 26 0 l 26 922 l 132 922 l 132 0 l 26 0 m 29 -196 l 29 -68 l 129 -68 l 129 -196 l 29 -196 z "},"ị":{"ha":158,"x_min":28,"x_max":129,"o":"m 28 0 m 29 0 l 29 671 l 129 671 l 129 0 l 29 0 m 29 743 l 29 872 l 129 872 l 129 743 l 29 743 m 28 -196 l 28 -68 l 128 -68 l 128 -196 l 28 -196 z "},"Ọ":{"ha":376,"x_min":22,"x_max":354,"o":"m 22 0 m 354 168 q 311 38 354 81 q 189 -6 268 -6 q 65 40 107 -6 q 22 171 22 85 l 22 749 q 65 881 22 835 q 188 928 108 928 q 310 881 267 928 q 354 747 354 833 l 354 168 m 250 757 q 188 831 250 831 q 126 757 126 831 l 126 163 q 189 90 126 90 q 250 163 250 90 l 250 757 m 139 -196 l 139 -68 l 239 -68 l 239 -196 l 139 -196 z "},"ọ":{"ha":372,"x_min":29,"x_max":343,"o":"m 29 0 m 343 151 q 305 32 343 69 q 186 -6 267 -6 q 67 32 106 -6 q 29 151 29 69 l 29 519 q 67 639 29 601 q 186 676 106 676 q 305 639 267 676 q 343 519 343 601 l 343 151 m 246 519 q 186 586 246 586 q 126 519 126 586 l 126 151 q 186 85 126 85 q 246 151 246 85 l 246 519 m 138 -196 l 138 -68 l 238 -68 l 238 -196 l 138 -196 z "},"Ỏ":{"ha":376,"x_min":22,"x_max":354,"o":"m 22 0 m 354 168 q 311 38 354 81 q 189 -6 268 -6 q 65 40 107 -6 q 22 171 22 85 l 22 749 q 65 881 22 835 q 188 928 108 928 q 310 881 267 928 q 354 747 354 833 l 354 168 m 250 757 q 188 831 250 831 q 126 757 126 831 l 126 163 q 189 90 126 90 q 250 163 250 90 l 250 757 m 158 960 q 168 994 158 982 q 189 1015 178 1007 q 210 1032 200 1024 q 219 1056 219 1040 q 189 1081 219 1081 q 133 1060 158 1081 l 117 1114 q 156 1136 132 1129 q 199 1143 179 1143 q 254 1122 232 1143 q 276 1065 276 1100 q 266 1026 276 1040 q 242 1002 256 1013 q 219 983 229 992 q 208 960 208 974 l 158 960 z "},"ỏ":{"ha":372,"x_min":29,"x_max":343,"o":"m 29 0 m 343 151 q 305 32 343 69 q 186 -6 267 -6 q 67 32 106 -6 q 29 151 29 69 l 29 519 q 67 639 29 601 q 186 676 106 676 q 305 639 267 676 q 343 519 343 601 l 343 151 m 246 519 q 186 586 246 586 q 126 519 126 586 l 126 151 q 186 85 126 85 q 246 151 246 85 l 246 519 m 156 715 q 165 750 156 738 q 186 771 175 763 q 207 788 197 779 q 217 811 217 796 q 186 836 217 836 q 131 815 156 836 l 114 869 q 153 892 129 885 q 196 899 176 899 q 251 877 229 899 q 274 821 274 856 q 263 782 274 796 q 240 758 253 768 q 216 738 226 747 q 206 715 206 729 l 156 715 z "},"Ố":{"ha":376,"x_min":22,"x_max":453,"o":"m 22 0 m 354 168 q 311 38 354 81 q 189 -6 268 -6 q 65 40 107 -6 q 22 171 22 85 l 22 749 q 65 881 22 835 q 188 928 108 928 q 310 881 267 928 q 354 747 354 833 l 354 168 m 250 757 q 188 831 250 831 q 126 757 126 831 l 126 163 q 189 90 126 90 q 250 163 250 90 l 250 757 m 288 946 l 193 1065 l 97 946 l 53 981 l 147 1124 l 238 1124 l 332 981 l 288 946 m 313 1074 l 274 1113 l 400 1256 l 453 1197 l 313 1074 z "},"ố":{"ha":372,"x_min":29,"x_max":446,"o":"m 29 0 m 343 151 q 305 32 343 69 q 186 -6 267 -6 q 67 32 106 -6 q 29 151 29 69 l 29 519 q 67 639 29 601 q 186 676 106 676 q 305 639 267 676 q 343 519 343 601 l 343 151 m 246 519 q 186 586 246 586 q 126 519 126 586 l 126 151 q 186 85 126 85 q 246 151 246 85 l 246 519 m 281 701 l 186 821 l 90 701 l 46 736 l 140 879 l 231 879 l 325 736 l 281 701 m 306 829 l 267 868 l 393 1011 l 446 953 l 306 829 z "}}}
